G75*
G70*
%OFA0B0*%
%FSLAX24Y24*%
%IPPOS*%
%LPD*%
%AMOC8*
5,1,8,0,0,1.08239X$1,22.5*
%
%ADD10C,0.0160*%
%ADD11C,0.0560*%
%ADD12C,0.0690*%
%ADD13C,0.0700*%
%ADD14C,0.0808*%
%ADD15OC8,0.0800*%
%ADD16C,0.0050*%
%ADD17C,0.0000*%
%ADD18C,0.1300*%
%ADD19OC8,0.0780*%
%ADD20R,0.0780X0.0780*%
%ADD21C,0.0780*%
%ADD22OC8,0.0560*%
%ADD23OC8,0.0600*%
%ADD24C,0.0600*%
%ADD25C,0.0640*%
%ADD26C,0.1221*%
D10*
X000519Y000180D02*
X023747Y000180D01*
X023747Y031282D01*
X000519Y031282D01*
X000519Y000180D01*
D11*
X006184Y011648D02*
X006184Y012168D01*
X007184Y012168D02*
X007184Y011648D01*
X008184Y011648D02*
X008184Y012168D01*
X009184Y012168D02*
X009184Y011648D01*
X010184Y011648D02*
X010184Y012168D01*
X011184Y012168D02*
X011184Y011648D01*
X012184Y011648D02*
X012184Y012168D01*
X013184Y012168D02*
X013184Y011648D01*
X014184Y011648D02*
X014184Y012168D01*
X015184Y012168D02*
X015184Y011648D01*
X016184Y011648D02*
X016184Y012168D01*
X017184Y012168D02*
X017184Y011648D01*
X018184Y011648D02*
X018184Y012168D01*
X019184Y012168D02*
X019184Y011648D01*
X019184Y014648D02*
X019184Y015168D01*
X018184Y015168D02*
X018184Y014648D01*
X017184Y014648D02*
X017184Y015168D01*
X016184Y015168D02*
X016184Y014648D01*
X015184Y014648D02*
X015184Y015168D01*
X014184Y015168D02*
X014184Y014648D01*
X013184Y014648D02*
X013184Y015168D01*
X012184Y015168D02*
X012184Y014648D01*
X011184Y014648D02*
X011184Y015168D01*
X010184Y015168D02*
X010184Y014648D01*
X009184Y014648D02*
X009184Y015168D01*
X008184Y015168D02*
X008184Y014648D01*
X007184Y014648D02*
X007184Y015168D01*
X006184Y015168D02*
X006184Y014648D01*
X010208Y017554D02*
X010208Y018074D01*
X011208Y018074D02*
X011208Y017554D01*
X012208Y017554D02*
X012208Y018074D01*
X013208Y018074D02*
X013208Y017554D01*
X014208Y017554D02*
X014208Y018074D01*
X015208Y018074D02*
X015208Y017554D01*
X016208Y017554D02*
X016208Y018074D01*
X017208Y018074D02*
X017208Y017554D01*
X017208Y020554D02*
X017208Y021074D01*
X016208Y021074D02*
X016208Y020554D01*
X015208Y020554D02*
X015208Y021074D01*
X014208Y021074D02*
X014208Y020554D01*
X013208Y020554D02*
X013208Y021074D01*
X012208Y021074D02*
X012208Y020554D01*
X011208Y020554D02*
X011208Y021074D01*
X010208Y021074D02*
X010208Y020554D01*
D12*
X004023Y014408D03*
X004023Y012408D03*
D13*
X004702Y030337D03*
X006493Y030337D03*
X009033Y030337D03*
X010824Y030337D03*
X013363Y030337D03*
X015155Y030337D03*
X017694Y030337D03*
X019485Y030337D03*
X020854Y014688D03*
X022625Y014688D03*
X022625Y012129D03*
X020854Y012129D03*
D14*
X019968Y029353D03*
X017212Y029353D03*
X015637Y029353D03*
X012881Y029353D03*
X011306Y029353D03*
X008550Y029353D03*
X006976Y029353D03*
X004220Y029353D03*
D15*
X011598Y008928D03*
X011598Y007928D03*
X011598Y006928D03*
X011598Y005928D03*
X011598Y004928D03*
X011598Y003928D03*
X011598Y002928D03*
X011598Y001928D03*
D16*
X012132Y010043D02*
X012204Y010049D01*
X012274Y010070D01*
X012338Y010103D01*
X012394Y010148D01*
X012441Y010204D01*
X012476Y010267D01*
X012497Y010336D01*
X012505Y010408D01*
X012500Y010474D01*
X012484Y010538D01*
X012457Y010599D01*
X012420Y010653D01*
X012374Y010701D01*
X012320Y010740D01*
X012261Y010768D01*
X012197Y010787D01*
X012131Y010793D01*
X012065Y010787D01*
X012002Y010769D01*
X011942Y010740D01*
X011888Y010702D01*
X011842Y010654D01*
X011805Y010600D01*
X011778Y010539D01*
X011761Y010475D01*
X011756Y010409D01*
X011764Y010337D01*
X011786Y010268D01*
X012476Y010268D01*
X012491Y010317D02*
X011771Y010317D01*
X011761Y010365D02*
X012501Y010365D01*
X012505Y010414D02*
X011757Y010414D01*
X011760Y010462D02*
X012501Y010462D01*
X012491Y010511D02*
X011770Y010511D01*
X011787Y010559D02*
X012475Y010559D01*
X012451Y010608D02*
X011810Y010608D01*
X011844Y010656D02*
X012417Y010656D01*
X012369Y010705D02*
X011893Y010705D01*
X011969Y010753D02*
X012293Y010753D01*
X012449Y010220D02*
X011813Y010220D01*
X011822Y010204D02*
X011786Y010268D01*
X011822Y010204D02*
X011868Y010148D01*
X011925Y010103D01*
X011990Y010070D01*
X012060Y010049D01*
X012132Y010043D01*
X012282Y010074D02*
X011981Y010074D01*
X011901Y010123D02*
X012362Y010123D01*
X012413Y010171D02*
X011849Y010171D01*
X012866Y010337D02*
X012858Y010409D01*
X012863Y010475D01*
X012880Y010539D01*
X012907Y010600D01*
X012944Y010654D01*
X012990Y010702D01*
X013044Y010740D01*
X013104Y010769D01*
X013167Y010787D01*
X013233Y010793D01*
X013299Y010787D01*
X013363Y010768D01*
X013422Y010740D01*
X013476Y010701D01*
X013522Y010653D01*
X013559Y010599D01*
X013586Y010538D01*
X013602Y010474D01*
X013607Y010408D01*
X013599Y010336D01*
X013578Y010267D01*
X013543Y010204D01*
X013496Y010148D01*
X013440Y010103D01*
X013376Y010070D01*
X013306Y010049D01*
X013234Y010043D01*
X013162Y010049D01*
X013092Y010070D01*
X013027Y010103D01*
X012970Y010148D01*
X012924Y010204D01*
X012888Y010268D01*
X013578Y010268D01*
X013593Y010317D02*
X012873Y010317D01*
X012866Y010337D02*
X012888Y010268D01*
X012915Y010220D02*
X013552Y010220D01*
X013515Y010171D02*
X012951Y010171D01*
X013003Y010123D02*
X013464Y010123D01*
X013384Y010074D02*
X013083Y010074D01*
X012863Y010365D02*
X013603Y010365D01*
X013607Y010414D02*
X012859Y010414D01*
X012862Y010462D02*
X013603Y010462D01*
X013593Y010511D02*
X012872Y010511D01*
X012889Y010559D02*
X013577Y010559D01*
X013553Y010608D02*
X012912Y010608D01*
X012946Y010656D02*
X013519Y010656D01*
X013471Y010705D02*
X012995Y010705D01*
X013071Y010753D02*
X013395Y010753D01*
X002427Y011675D02*
X001677Y011675D01*
X001677Y011674D02*
X001684Y011740D01*
X001702Y011804D01*
X001731Y011863D01*
X001770Y011917D01*
X002338Y011917D01*
X002322Y011937D02*
X002367Y011881D01*
X002401Y011817D01*
X002421Y011747D01*
X002427Y011675D01*
X002421Y011603D01*
X002401Y011533D01*
X002368Y011468D01*
X002322Y011411D01*
X002267Y011365D01*
X002203Y011329D01*
X002134Y011307D01*
X002061Y011299D01*
X001995Y011304D01*
X001931Y011321D01*
X001871Y011348D01*
X001816Y011385D01*
X001769Y011431D01*
X001730Y011485D01*
X001702Y011545D01*
X001684Y011608D01*
X001677Y011674D01*
X001682Y011626D02*
X002423Y011626D01*
X002414Y011578D02*
X001693Y011578D01*
X001709Y011529D02*
X002399Y011529D01*
X002374Y011481D02*
X001734Y011481D01*
X001769Y011432D02*
X002339Y011432D01*
X002289Y011384D02*
X001819Y011384D01*
X001899Y011335D02*
X002213Y011335D01*
X002423Y011723D02*
X001682Y011723D01*
X001693Y011772D02*
X002414Y011772D01*
X002399Y011820D02*
X001710Y011820D01*
X001735Y011869D02*
X002374Y011869D01*
X002322Y011937D02*
X002267Y011984D01*
X002203Y012019D01*
X002134Y012040D01*
X002062Y012048D01*
X001996Y012043D01*
X001932Y012027D01*
X001872Y012000D01*
X001817Y011963D01*
X001770Y011917D01*
X001821Y011966D02*
X002289Y011966D01*
X002212Y012014D02*
X001903Y012014D01*
X001995Y012406D02*
X001931Y012423D01*
X001871Y012450D01*
X001816Y012487D01*
X001769Y012533D01*
X001730Y012587D01*
X001702Y012647D01*
X001684Y012710D01*
X001677Y012776D01*
X001684Y012842D01*
X001702Y012906D01*
X001731Y012965D01*
X001770Y013019D01*
X001817Y013065D01*
X001872Y013102D01*
X001932Y013129D01*
X001996Y013145D01*
X002062Y013150D01*
X002134Y013142D01*
X002203Y013121D01*
X002267Y013086D01*
X002322Y013039D01*
X002367Y012983D01*
X002401Y012919D01*
X002421Y012849D01*
X002427Y012777D01*
X002421Y012705D01*
X002401Y012635D01*
X002368Y012570D01*
X002322Y012513D01*
X002267Y012467D01*
X002203Y012431D01*
X002134Y012409D01*
X002061Y012401D01*
X001995Y012406D01*
X002051Y012402D02*
X002068Y012402D01*
X002238Y012451D02*
X001870Y012451D01*
X001804Y012499D02*
X002305Y012499D01*
X002349Y012548D02*
X001759Y012548D01*
X001726Y012596D02*
X002381Y012596D01*
X002404Y012645D02*
X001703Y012645D01*
X001689Y012693D02*
X002418Y012693D01*
X002424Y012742D02*
X001681Y012742D01*
X001679Y012790D02*
X002426Y012790D01*
X002422Y012839D02*
X001684Y012839D01*
X001697Y012887D02*
X002410Y012887D01*
X002392Y012936D02*
X001717Y012936D01*
X001744Y012984D02*
X002367Y012984D01*
X002328Y013033D02*
X001784Y013033D01*
X001841Y013081D02*
X002272Y013081D01*
X002175Y013130D02*
X001933Y013130D01*
X001995Y014060D02*
X001931Y014077D01*
X001871Y014104D01*
X001816Y014141D01*
X001769Y014187D01*
X001730Y014241D01*
X001702Y014301D01*
X001684Y014364D01*
X001677Y014430D01*
X001684Y014496D01*
X001702Y014560D01*
X001731Y014619D01*
X001770Y014673D01*
X001817Y014719D01*
X001872Y014756D01*
X001932Y014783D01*
X001996Y014799D01*
X002062Y014804D01*
X002134Y014796D01*
X002203Y014775D01*
X002267Y014740D01*
X002322Y014693D01*
X002367Y014637D01*
X002401Y014573D01*
X002421Y014503D01*
X002427Y014431D01*
X002421Y014359D01*
X002401Y014289D01*
X002368Y014224D01*
X002322Y014167D01*
X002267Y014120D01*
X002203Y014085D01*
X002134Y014063D01*
X002061Y014055D01*
X001995Y014060D01*
X001880Y014100D02*
X002229Y014100D01*
X002299Y014148D02*
X001809Y014148D01*
X001762Y014197D02*
X002346Y014197D01*
X002378Y014245D02*
X001728Y014245D01*
X001705Y014294D02*
X002402Y014294D01*
X002416Y014342D02*
X001690Y014342D01*
X001681Y014391D02*
X002424Y014391D01*
X002427Y014439D02*
X001678Y014439D01*
X001683Y014488D02*
X002422Y014488D01*
X002411Y014536D02*
X001695Y014536D01*
X001714Y014585D02*
X002395Y014585D01*
X002369Y014633D02*
X001741Y014633D01*
X001779Y014682D02*
X002332Y014682D01*
X002278Y014730D02*
X001834Y014730D01*
X001922Y014779D02*
X002191Y014779D01*
X002134Y015165D02*
X002061Y015157D01*
X001995Y015162D01*
X001931Y015179D01*
X001871Y015206D01*
X001816Y015243D01*
X001769Y015289D01*
X001730Y015343D01*
X001702Y015403D01*
X001684Y015466D01*
X001677Y015532D01*
X001684Y015598D01*
X001702Y015662D01*
X001731Y015721D01*
X001770Y015775D01*
X001817Y015821D01*
X001872Y015858D01*
X001932Y015885D01*
X001996Y015901D01*
X002062Y015906D01*
X002134Y015898D01*
X002203Y015877D01*
X002267Y015842D01*
X002322Y015795D01*
X002367Y015739D01*
X002401Y015675D01*
X002421Y015605D01*
X002427Y015533D01*
X002421Y015461D01*
X002401Y015391D01*
X002368Y015326D01*
X002322Y015269D01*
X002267Y015222D01*
X002203Y015187D01*
X002134Y015165D01*
X002138Y015167D02*
X001978Y015167D01*
X001857Y015215D02*
X002253Y015215D01*
X002315Y015264D02*
X001795Y015264D01*
X001753Y015312D02*
X002356Y015312D01*
X002385Y015361D02*
X001722Y015361D01*
X001700Y015409D02*
X002406Y015409D01*
X002420Y015458D02*
X001686Y015458D01*
X001680Y015506D02*
X002425Y015506D01*
X002425Y015555D02*
X001680Y015555D01*
X001685Y015603D02*
X002421Y015603D01*
X002408Y015652D02*
X001699Y015652D01*
X001721Y015700D02*
X002388Y015700D01*
X002360Y015749D02*
X001751Y015749D01*
X001793Y015797D02*
X002320Y015797D01*
X002260Y015846D02*
X001853Y015846D01*
X001967Y015894D02*
X002148Y015894D01*
X004973Y028002D02*
X005046Y027996D01*
X005118Y028002D01*
X005187Y028022D01*
X005251Y028056D01*
X005308Y028101D01*
X005354Y028157D01*
X005389Y028220D01*
X005411Y028289D01*
X005419Y028361D01*
X005414Y028427D01*
X005398Y028491D01*
X005371Y028551D01*
X005333Y028606D01*
X005287Y028654D01*
X005234Y028692D01*
X005174Y028721D01*
X005110Y028739D01*
X005045Y028746D01*
X004979Y028739D01*
X004915Y028722D01*
X004855Y028693D01*
X004802Y028654D01*
X004756Y028607D01*
X004718Y028552D01*
X004691Y028492D01*
X004675Y028428D01*
X004670Y028362D01*
X004678Y028290D01*
X004700Y028220D01*
X004735Y028157D01*
X004782Y028101D01*
X004839Y028056D01*
X004903Y028022D01*
X004973Y028002D01*
X004914Y028019D02*
X005176Y028019D01*
X005266Y028068D02*
X004824Y028068D01*
X004769Y028116D02*
X005320Y028116D01*
X005359Y028165D02*
X004731Y028165D01*
X004704Y028213D02*
X005385Y028213D01*
X005402Y028262D02*
X004687Y028262D01*
X004675Y028310D02*
X005413Y028310D01*
X005418Y028359D02*
X004670Y028359D01*
X004673Y028407D02*
X005415Y028407D01*
X005407Y028456D02*
X004682Y028456D01*
X004696Y028504D02*
X005392Y028504D01*
X005370Y028553D02*
X004718Y028553D01*
X004752Y028601D02*
X005337Y028601D01*
X005291Y028650D02*
X004797Y028650D01*
X004866Y028698D02*
X005222Y028698D01*
X005793Y028492D02*
X005820Y028552D01*
X005858Y028607D01*
X005904Y028654D01*
X005958Y028693D01*
X006017Y028722D01*
X006081Y028739D01*
X006147Y028746D01*
X006212Y028739D01*
X006276Y028721D01*
X006336Y028692D01*
X006389Y028654D01*
X006435Y028606D01*
X006473Y028551D01*
X006500Y028491D01*
X006516Y028427D01*
X006521Y028361D01*
X006513Y028289D01*
X006491Y028220D01*
X006456Y028157D01*
X006410Y028101D01*
X006353Y028056D01*
X006289Y028022D01*
X006220Y028002D01*
X006148Y027996D01*
X006075Y028002D01*
X006005Y028022D01*
X005941Y028056D01*
X005884Y028101D01*
X005837Y028157D01*
X005802Y028220D01*
X005780Y028290D01*
X005772Y028362D01*
X005777Y028428D01*
X005793Y028492D01*
X005798Y028504D02*
X006494Y028504D01*
X006509Y028456D02*
X005784Y028456D01*
X005775Y028407D02*
X006517Y028407D01*
X006520Y028359D02*
X005772Y028359D01*
X005777Y028310D02*
X006515Y028310D01*
X006504Y028262D02*
X005789Y028262D01*
X005806Y028213D02*
X006487Y028213D01*
X006461Y028165D02*
X005833Y028165D01*
X005871Y028116D02*
X006422Y028116D01*
X006368Y028068D02*
X005926Y028068D01*
X006016Y028019D02*
X006278Y028019D01*
X006472Y028553D02*
X005820Y028553D01*
X005854Y028601D02*
X006439Y028601D01*
X006393Y028650D02*
X005899Y028650D01*
X005968Y028698D02*
X006324Y028698D01*
X009005Y028428D02*
X009022Y028492D01*
X009049Y028552D01*
X009086Y028607D01*
X009132Y028654D01*
X009186Y028693D01*
X009246Y028722D01*
X009310Y028739D01*
X009375Y028746D01*
X009441Y028739D01*
X009505Y028721D01*
X009564Y028692D01*
X009618Y028654D01*
X009664Y028606D01*
X009701Y028551D01*
X009728Y028491D01*
X009745Y028427D01*
X009749Y028361D01*
X009742Y028289D01*
X009720Y028220D01*
X009685Y028157D01*
X009638Y028101D01*
X009582Y028056D01*
X009518Y028022D01*
X009448Y028002D01*
X009376Y027996D01*
X009304Y028002D01*
X009234Y028022D01*
X009169Y028056D01*
X009113Y028101D01*
X009066Y028157D01*
X009031Y028220D01*
X009008Y028290D01*
X009000Y028362D01*
X009005Y028428D01*
X009004Y028407D02*
X009746Y028407D01*
X009749Y028359D02*
X009001Y028359D01*
X009006Y028310D02*
X009744Y028310D01*
X009733Y028262D02*
X009017Y028262D01*
X009035Y028213D02*
X009716Y028213D01*
X009689Y028165D02*
X009061Y028165D01*
X009100Y028116D02*
X009651Y028116D01*
X009597Y028068D02*
X009154Y028068D01*
X009245Y028019D02*
X009506Y028019D01*
X009737Y028456D02*
X009012Y028456D01*
X009027Y028504D02*
X009723Y028504D01*
X009700Y028553D02*
X009049Y028553D01*
X009082Y028601D02*
X009668Y028601D01*
X009622Y028650D02*
X009128Y028650D01*
X009197Y028698D02*
X009552Y028698D01*
X010124Y028492D02*
X010151Y028552D01*
X010188Y028607D01*
X010234Y028654D01*
X010288Y028693D01*
X010348Y028722D01*
X010412Y028739D01*
X010477Y028746D01*
X010543Y028739D01*
X010607Y028721D01*
X010666Y028692D01*
X010720Y028654D01*
X010766Y028606D01*
X010803Y028551D01*
X010830Y028491D01*
X010847Y028427D01*
X010851Y028361D01*
X010844Y028289D01*
X010822Y028220D01*
X010787Y028157D01*
X010740Y028101D01*
X010684Y028056D01*
X010620Y028022D01*
X010550Y028002D01*
X010478Y027996D01*
X010406Y028002D01*
X010336Y028022D01*
X010271Y028056D01*
X010215Y028101D01*
X010168Y028157D01*
X010133Y028220D01*
X010110Y028290D01*
X010102Y028362D01*
X010107Y028428D01*
X010124Y028492D01*
X010129Y028504D02*
X010825Y028504D01*
X010839Y028456D02*
X010114Y028456D01*
X010106Y028407D02*
X010848Y028407D01*
X010851Y028359D02*
X010103Y028359D01*
X010108Y028310D02*
X010846Y028310D01*
X010835Y028262D02*
X010119Y028262D01*
X010137Y028213D02*
X010818Y028213D01*
X010791Y028165D02*
X010163Y028165D01*
X010202Y028116D02*
X010753Y028116D01*
X010699Y028068D02*
X010256Y028068D01*
X010347Y028019D02*
X010608Y028019D01*
X010802Y028553D02*
X010151Y028553D01*
X010184Y028601D02*
X010770Y028601D01*
X010724Y028650D02*
X010230Y028650D01*
X010299Y028698D02*
X010654Y028698D01*
X013336Y028428D02*
X013352Y028492D01*
X013380Y028552D01*
X013417Y028607D01*
X013463Y028654D01*
X013517Y028693D01*
X013577Y028722D01*
X013640Y028739D01*
X013706Y028746D01*
X013772Y028739D01*
X013836Y028721D01*
X013895Y028692D01*
X013949Y028654D01*
X013995Y028606D01*
X014032Y028551D01*
X014059Y028491D01*
X014075Y028427D01*
X014080Y028361D01*
X014072Y028289D01*
X014050Y028220D01*
X014016Y028157D01*
X013969Y028101D01*
X013913Y028056D01*
X013849Y028022D01*
X013779Y028002D01*
X013707Y027996D01*
X013635Y028002D01*
X013565Y028022D01*
X013500Y028056D01*
X013443Y028101D01*
X013396Y028157D01*
X013361Y028220D01*
X013339Y028290D01*
X013331Y028362D01*
X013336Y028428D01*
X013335Y028407D02*
X014077Y028407D01*
X014080Y028359D02*
X013331Y028359D01*
X013337Y028310D02*
X014075Y028310D01*
X014064Y028262D02*
X013348Y028262D01*
X013365Y028213D02*
X014047Y028213D01*
X014020Y028165D02*
X013392Y028165D01*
X013431Y028116D02*
X013982Y028116D01*
X013927Y028068D02*
X013485Y028068D01*
X013576Y028019D02*
X013837Y028019D01*
X014068Y028456D02*
X013343Y028456D01*
X013358Y028504D02*
X014053Y028504D01*
X014031Y028553D02*
X013380Y028553D01*
X013413Y028601D02*
X013998Y028601D01*
X013953Y028650D02*
X013459Y028650D01*
X013528Y028698D02*
X013883Y028698D01*
X014454Y028492D02*
X014482Y028552D01*
X014519Y028607D01*
X014565Y028654D01*
X014619Y028693D01*
X014679Y028722D01*
X014742Y028739D01*
X014808Y028746D01*
X014874Y028739D01*
X014938Y028721D01*
X014997Y028692D01*
X015051Y028654D01*
X015097Y028606D01*
X015134Y028551D01*
X015161Y028491D01*
X015177Y028427D01*
X015182Y028361D01*
X015174Y028289D01*
X015152Y028220D01*
X015118Y028157D01*
X015071Y028101D01*
X015015Y028056D01*
X014951Y028022D01*
X014881Y028002D01*
X014809Y027996D01*
X014737Y028002D01*
X014667Y028022D01*
X014602Y028056D01*
X014545Y028101D01*
X014498Y028157D01*
X014463Y028220D01*
X014441Y028290D01*
X014433Y028362D01*
X014438Y028428D01*
X014454Y028492D01*
X014460Y028504D02*
X015155Y028504D01*
X015170Y028456D02*
X014445Y028456D01*
X014437Y028407D02*
X015179Y028407D01*
X015182Y028359D02*
X014433Y028359D01*
X014439Y028310D02*
X015177Y028310D01*
X015166Y028262D02*
X014450Y028262D01*
X014467Y028213D02*
X015149Y028213D01*
X015122Y028165D02*
X014494Y028165D01*
X014533Y028116D02*
X015084Y028116D01*
X015029Y028068D02*
X014587Y028068D01*
X014678Y028019D02*
X014939Y028019D01*
X015133Y028553D02*
X014482Y028553D01*
X014515Y028601D02*
X015100Y028601D01*
X015055Y028650D02*
X014561Y028650D01*
X014630Y028698D02*
X014985Y028698D01*
X017667Y028428D02*
X017683Y028492D01*
X017710Y028552D01*
X017748Y028607D01*
X017794Y028654D01*
X017848Y028693D01*
X017907Y028722D01*
X017971Y028739D01*
X018037Y028746D01*
X018103Y028739D01*
X018166Y028721D01*
X018226Y028692D01*
X018279Y028654D01*
X018326Y028606D01*
X018363Y028551D01*
X018390Y028491D01*
X018406Y028427D01*
X018411Y028361D01*
X018403Y028289D01*
X018381Y028220D01*
X018346Y028157D01*
X018300Y028101D01*
X018243Y028056D01*
X018179Y028022D01*
X018110Y028002D01*
X018038Y027996D01*
X017965Y028002D01*
X017895Y028022D01*
X017831Y028056D01*
X017774Y028101D01*
X017727Y028157D01*
X017692Y028220D01*
X017670Y028290D01*
X017662Y028362D01*
X017667Y028428D01*
X017665Y028407D02*
X018407Y028407D01*
X018411Y028359D02*
X017662Y028359D01*
X017668Y028310D02*
X018405Y028310D01*
X018394Y028262D02*
X017679Y028262D01*
X017696Y028213D02*
X018377Y028213D01*
X018351Y028165D02*
X017723Y028165D01*
X017761Y028116D02*
X018312Y028116D01*
X018258Y028068D02*
X017816Y028068D01*
X017906Y028019D02*
X018168Y028019D01*
X018399Y028456D02*
X017674Y028456D01*
X017689Y028504D02*
X018384Y028504D01*
X018362Y028553D02*
X017711Y028553D01*
X017744Y028601D02*
X018329Y028601D01*
X018283Y028650D02*
X017789Y028650D01*
X017859Y028698D02*
X018214Y028698D01*
X018785Y028492D02*
X018812Y028552D01*
X018850Y028607D01*
X018896Y028654D01*
X018950Y028693D01*
X019009Y028722D01*
X019073Y028739D01*
X019139Y028746D01*
X019205Y028739D01*
X019268Y028721D01*
X019328Y028692D01*
X019381Y028654D01*
X019428Y028606D01*
X019465Y028551D01*
X019492Y028491D01*
X019508Y028427D01*
X019513Y028361D01*
X019505Y028289D01*
X019483Y028220D01*
X019448Y028157D01*
X019402Y028101D01*
X019345Y028056D01*
X019281Y028022D01*
X019212Y028002D01*
X019140Y027996D01*
X019067Y028002D01*
X018997Y028022D01*
X018933Y028056D01*
X018876Y028101D01*
X018829Y028157D01*
X018794Y028220D01*
X018772Y028290D01*
X018764Y028362D01*
X018769Y028428D01*
X018785Y028492D01*
X018791Y028504D02*
X019486Y028504D01*
X019501Y028456D02*
X018776Y028456D01*
X018767Y028407D02*
X019509Y028407D01*
X019513Y028359D02*
X018764Y028359D01*
X018770Y028310D02*
X019507Y028310D01*
X019496Y028262D02*
X018781Y028262D01*
X018798Y028213D02*
X019479Y028213D01*
X019453Y028165D02*
X018825Y028165D01*
X018863Y028116D02*
X019414Y028116D01*
X019360Y028068D02*
X018918Y028068D01*
X019008Y028019D02*
X019270Y028019D01*
X019464Y028553D02*
X018813Y028553D01*
X018846Y028601D02*
X019431Y028601D01*
X019385Y028650D02*
X018891Y028650D01*
X018961Y028698D02*
X019316Y028698D01*
D17*
X020322Y026794D02*
X020324Y026844D01*
X020330Y026894D01*
X020340Y026943D01*
X020354Y026991D01*
X020371Y027038D01*
X020392Y027083D01*
X020417Y027127D01*
X020445Y027168D01*
X020477Y027207D01*
X020511Y027244D01*
X020548Y027278D01*
X020588Y027308D01*
X020630Y027335D01*
X020674Y027359D01*
X020720Y027380D01*
X020767Y027396D01*
X020815Y027409D01*
X020865Y027418D01*
X020914Y027423D01*
X020965Y027424D01*
X021015Y027421D01*
X021064Y027414D01*
X021113Y027403D01*
X021161Y027388D01*
X021207Y027370D01*
X021252Y027348D01*
X021295Y027322D01*
X021336Y027293D01*
X021375Y027261D01*
X021411Y027226D01*
X021443Y027188D01*
X021473Y027148D01*
X021500Y027105D01*
X021523Y027061D01*
X021542Y027015D01*
X021558Y026967D01*
X021570Y026918D01*
X021578Y026869D01*
X021582Y026819D01*
X021582Y026769D01*
X021578Y026719D01*
X021570Y026670D01*
X021558Y026621D01*
X021542Y026573D01*
X021523Y026527D01*
X021500Y026483D01*
X021473Y026440D01*
X021443Y026400D01*
X021411Y026362D01*
X021375Y026327D01*
X021336Y026295D01*
X021295Y026266D01*
X021252Y026240D01*
X021207Y026218D01*
X021161Y026200D01*
X021113Y026185D01*
X021064Y026174D01*
X021015Y026167D01*
X020965Y026164D01*
X020914Y026165D01*
X020865Y026170D01*
X020815Y026179D01*
X020767Y026192D01*
X020720Y026208D01*
X020674Y026229D01*
X020630Y026253D01*
X020588Y026280D01*
X020548Y026310D01*
X020511Y026344D01*
X020477Y026381D01*
X020445Y026420D01*
X020417Y026461D01*
X020392Y026505D01*
X020371Y026550D01*
X020354Y026597D01*
X020340Y026645D01*
X020330Y026694D01*
X020324Y026744D01*
X020322Y026794D01*
X021975Y030101D02*
X021977Y030149D01*
X021983Y030197D01*
X021993Y030244D01*
X022006Y030290D01*
X022024Y030335D01*
X022044Y030379D01*
X022069Y030421D01*
X022097Y030460D01*
X022127Y030497D01*
X022161Y030531D01*
X022198Y030563D01*
X022236Y030592D01*
X022277Y030617D01*
X022320Y030639D01*
X022365Y030657D01*
X022411Y030671D01*
X022458Y030682D01*
X022506Y030689D01*
X022554Y030692D01*
X022602Y030691D01*
X022650Y030686D01*
X022698Y030677D01*
X022744Y030665D01*
X022789Y030648D01*
X022833Y030628D01*
X022875Y030605D01*
X022915Y030578D01*
X022953Y030548D01*
X022988Y030515D01*
X023020Y030479D01*
X023050Y030441D01*
X023076Y030400D01*
X023098Y030357D01*
X023118Y030313D01*
X023133Y030268D01*
X023145Y030221D01*
X023153Y030173D01*
X023157Y030125D01*
X023157Y030077D01*
X023153Y030029D01*
X023145Y029981D01*
X023133Y029934D01*
X023118Y029889D01*
X023098Y029845D01*
X023076Y029802D01*
X023050Y029761D01*
X023020Y029723D01*
X022988Y029687D01*
X022953Y029654D01*
X022915Y029624D01*
X022875Y029597D01*
X022833Y029574D01*
X022789Y029554D01*
X022744Y029537D01*
X022698Y029525D01*
X022650Y029516D01*
X022602Y029511D01*
X022554Y029510D01*
X022506Y029513D01*
X022458Y029520D01*
X022411Y029531D01*
X022365Y029545D01*
X022320Y029563D01*
X022277Y029585D01*
X022236Y029610D01*
X022198Y029639D01*
X022161Y029671D01*
X022127Y029705D01*
X022097Y029742D01*
X022069Y029781D01*
X022044Y029823D01*
X022024Y029867D01*
X022006Y029912D01*
X021993Y029958D01*
X021983Y030005D01*
X021977Y030053D01*
X021975Y030101D01*
X002212Y026794D02*
X002214Y026844D01*
X002220Y026894D01*
X002230Y026943D01*
X002244Y026991D01*
X002261Y027038D01*
X002282Y027083D01*
X002307Y027127D01*
X002335Y027168D01*
X002367Y027207D01*
X002401Y027244D01*
X002438Y027278D01*
X002478Y027308D01*
X002520Y027335D01*
X002564Y027359D01*
X002610Y027380D01*
X002657Y027396D01*
X002705Y027409D01*
X002755Y027418D01*
X002804Y027423D01*
X002855Y027424D01*
X002905Y027421D01*
X002954Y027414D01*
X003003Y027403D01*
X003051Y027388D01*
X003097Y027370D01*
X003142Y027348D01*
X003185Y027322D01*
X003226Y027293D01*
X003265Y027261D01*
X003301Y027226D01*
X003333Y027188D01*
X003363Y027148D01*
X003390Y027105D01*
X003413Y027061D01*
X003432Y027015D01*
X003448Y026967D01*
X003460Y026918D01*
X003468Y026869D01*
X003472Y026819D01*
X003472Y026769D01*
X003468Y026719D01*
X003460Y026670D01*
X003448Y026621D01*
X003432Y026573D01*
X003413Y026527D01*
X003390Y026483D01*
X003363Y026440D01*
X003333Y026400D01*
X003301Y026362D01*
X003265Y026327D01*
X003226Y026295D01*
X003185Y026266D01*
X003142Y026240D01*
X003097Y026218D01*
X003051Y026200D01*
X003003Y026185D01*
X002954Y026174D01*
X002905Y026167D01*
X002855Y026164D01*
X002804Y026165D01*
X002755Y026170D01*
X002705Y026179D01*
X002657Y026192D01*
X002610Y026208D01*
X002564Y026229D01*
X002520Y026253D01*
X002478Y026280D01*
X002438Y026310D01*
X002401Y026344D01*
X002367Y026381D01*
X002335Y026420D01*
X002307Y026461D01*
X002282Y026505D01*
X002261Y026550D01*
X002244Y026597D01*
X002230Y026645D01*
X002220Y026694D01*
X002214Y026744D01*
X002212Y026794D01*
X001109Y030101D02*
X001111Y030149D01*
X001117Y030197D01*
X001127Y030244D01*
X001140Y030290D01*
X001158Y030335D01*
X001178Y030379D01*
X001203Y030421D01*
X001231Y030460D01*
X001261Y030497D01*
X001295Y030531D01*
X001332Y030563D01*
X001370Y030592D01*
X001411Y030617D01*
X001454Y030639D01*
X001499Y030657D01*
X001545Y030671D01*
X001592Y030682D01*
X001640Y030689D01*
X001688Y030692D01*
X001736Y030691D01*
X001784Y030686D01*
X001832Y030677D01*
X001878Y030665D01*
X001923Y030648D01*
X001967Y030628D01*
X002009Y030605D01*
X002049Y030578D01*
X002087Y030548D01*
X002122Y030515D01*
X002154Y030479D01*
X002184Y030441D01*
X002210Y030400D01*
X002232Y030357D01*
X002252Y030313D01*
X002267Y030268D01*
X002279Y030221D01*
X002287Y030173D01*
X002291Y030125D01*
X002291Y030077D01*
X002287Y030029D01*
X002279Y029981D01*
X002267Y029934D01*
X002252Y029889D01*
X002232Y029845D01*
X002210Y029802D01*
X002184Y029761D01*
X002154Y029723D01*
X002122Y029687D01*
X002087Y029654D01*
X002049Y029624D01*
X002009Y029597D01*
X001967Y029574D01*
X001923Y029554D01*
X001878Y029537D01*
X001832Y029525D01*
X001784Y029516D01*
X001736Y029511D01*
X001688Y029510D01*
X001640Y029513D01*
X001592Y029520D01*
X001545Y029531D01*
X001499Y029545D01*
X001454Y029563D01*
X001411Y029585D01*
X001370Y029610D01*
X001332Y029639D01*
X001295Y029671D01*
X001261Y029705D01*
X001231Y029742D01*
X001203Y029781D01*
X001178Y029823D01*
X001158Y029867D01*
X001140Y029912D01*
X001127Y029958D01*
X001117Y030005D01*
X001111Y030053D01*
X001109Y030101D01*
X002212Y001597D02*
X002214Y001647D01*
X002220Y001697D01*
X002230Y001746D01*
X002244Y001794D01*
X002261Y001841D01*
X002282Y001886D01*
X002307Y001930D01*
X002335Y001971D01*
X002367Y002010D01*
X002401Y002047D01*
X002438Y002081D01*
X002478Y002111D01*
X002520Y002138D01*
X002564Y002162D01*
X002610Y002183D01*
X002657Y002199D01*
X002705Y002212D01*
X002755Y002221D01*
X002804Y002226D01*
X002855Y002227D01*
X002905Y002224D01*
X002954Y002217D01*
X003003Y002206D01*
X003051Y002191D01*
X003097Y002173D01*
X003142Y002151D01*
X003185Y002125D01*
X003226Y002096D01*
X003265Y002064D01*
X003301Y002029D01*
X003333Y001991D01*
X003363Y001951D01*
X003390Y001908D01*
X003413Y001864D01*
X003432Y001818D01*
X003448Y001770D01*
X003460Y001721D01*
X003468Y001672D01*
X003472Y001622D01*
X003472Y001572D01*
X003468Y001522D01*
X003460Y001473D01*
X003448Y001424D01*
X003432Y001376D01*
X003413Y001330D01*
X003390Y001286D01*
X003363Y001243D01*
X003333Y001203D01*
X003301Y001165D01*
X003265Y001130D01*
X003226Y001098D01*
X003185Y001069D01*
X003142Y001043D01*
X003097Y001021D01*
X003051Y001003D01*
X003003Y000988D01*
X002954Y000977D01*
X002905Y000970D01*
X002855Y000967D01*
X002804Y000968D01*
X002755Y000973D01*
X002705Y000982D01*
X002657Y000995D01*
X002610Y001011D01*
X002564Y001032D01*
X002520Y001056D01*
X002478Y001083D01*
X002438Y001113D01*
X002401Y001147D01*
X002367Y001184D01*
X002335Y001223D01*
X002307Y001264D01*
X002282Y001308D01*
X002261Y001353D01*
X002244Y001400D01*
X002230Y001448D01*
X002220Y001497D01*
X002214Y001547D01*
X002212Y001597D01*
X020322Y001597D02*
X020324Y001647D01*
X020330Y001697D01*
X020340Y001746D01*
X020354Y001794D01*
X020371Y001841D01*
X020392Y001886D01*
X020417Y001930D01*
X020445Y001971D01*
X020477Y002010D01*
X020511Y002047D01*
X020548Y002081D01*
X020588Y002111D01*
X020630Y002138D01*
X020674Y002162D01*
X020720Y002183D01*
X020767Y002199D01*
X020815Y002212D01*
X020865Y002221D01*
X020914Y002226D01*
X020965Y002227D01*
X021015Y002224D01*
X021064Y002217D01*
X021113Y002206D01*
X021161Y002191D01*
X021207Y002173D01*
X021252Y002151D01*
X021295Y002125D01*
X021336Y002096D01*
X021375Y002064D01*
X021411Y002029D01*
X021443Y001991D01*
X021473Y001951D01*
X021500Y001908D01*
X021523Y001864D01*
X021542Y001818D01*
X021558Y001770D01*
X021570Y001721D01*
X021578Y001672D01*
X021582Y001622D01*
X021582Y001572D01*
X021578Y001522D01*
X021570Y001473D01*
X021558Y001424D01*
X021542Y001376D01*
X021523Y001330D01*
X021500Y001286D01*
X021473Y001243D01*
X021443Y001203D01*
X021411Y001165D01*
X021375Y001130D01*
X021336Y001098D01*
X021295Y001069D01*
X021252Y001043D01*
X021207Y001021D01*
X021161Y001003D01*
X021113Y000988D01*
X021064Y000977D01*
X021015Y000970D01*
X020965Y000967D01*
X020914Y000968D01*
X020865Y000973D01*
X020815Y000982D01*
X020767Y000995D01*
X020720Y001011D01*
X020674Y001032D01*
X020630Y001056D01*
X020588Y001083D01*
X020548Y001113D01*
X020511Y001147D01*
X020477Y001184D01*
X020445Y001223D01*
X020417Y001264D01*
X020392Y001308D01*
X020371Y001353D01*
X020354Y001400D01*
X020340Y001448D01*
X020330Y001497D01*
X020324Y001547D01*
X020322Y001597D01*
D18*
X020952Y001597D03*
X002842Y001597D03*
X002842Y026794D03*
X020952Y026794D03*
D19*
X014999Y024054D03*
X013999Y024054D03*
X012999Y024054D03*
X011999Y024054D03*
X010999Y024054D03*
X009999Y024054D03*
X008999Y024054D03*
X007999Y024054D03*
X007999Y023054D03*
X008999Y023054D03*
X009999Y023054D03*
X010999Y023054D03*
X011999Y023054D03*
X012999Y023054D03*
X013999Y023054D03*
X014999Y023054D03*
X002948Y009684D03*
X002948Y008684D03*
X002948Y007684D03*
X001948Y007684D03*
X001948Y008684D03*
X001948Y009684D03*
D20*
X007960Y002385D03*
D21*
X007960Y003385D03*
X007960Y004385D03*
X007960Y005385D03*
X007960Y007503D03*
X007960Y008503D03*
D22*
X003905Y020204D03*
X003905Y021204D03*
X003905Y022204D03*
D23*
X010289Y009629D03*
D24*
X009489Y009629D03*
D25*
X008172Y017305D02*
X008172Y017905D01*
X007472Y019605D02*
X006872Y019605D01*
X006172Y017905D02*
X006172Y017305D01*
D26*
X001700Y030101D03*
X022566Y030101D03*
M02*
