G75*
G70*
%OFA0B0*%
%FSLAX24Y24*%
%IPPOS*%
%LPD*%
%AMOC8*
5,1,8,0,0,1.08239X$1,22.5*
%
%ADD10C,0.0030*%
%ADD11C,0.0040*%
%ADD12C,0.0060*%
%ADD13C,0.0160*%
%ADD14C,0.0070*%
%ADD15C,0.0080*%
%ADD16C,0.0050*%
%ADD17C,0.0010*%
%ADD18C,0.0100*%
%ADD19C,0.0000*%
D10*
X005202Y015549D02*
X005140Y015611D01*
X005202Y015549D02*
X005325Y015549D01*
X005387Y015611D01*
X005387Y015673D01*
X005325Y015734D01*
X005202Y015734D01*
X005140Y015796D01*
X005140Y015858D01*
X005202Y015920D01*
X005325Y015920D01*
X005387Y015858D01*
X005509Y015920D02*
X005509Y015549D01*
X005755Y015549D01*
X005877Y015549D02*
X005877Y015920D01*
X006062Y015920D01*
X006124Y015858D01*
X006124Y015734D01*
X006062Y015673D01*
X005877Y015673D01*
X006000Y015673D02*
X006124Y015549D01*
X005755Y015920D02*
X005509Y015920D01*
X005509Y015734D02*
X005632Y015734D01*
X006597Y015825D02*
X006597Y016195D01*
X006782Y016195D01*
X006844Y016134D01*
X006844Y016010D01*
X006782Y015948D01*
X006597Y015948D01*
X006720Y015948D02*
X006844Y015825D01*
X006965Y015887D02*
X007027Y015825D01*
X007150Y015825D01*
X007212Y015887D01*
X007334Y015948D02*
X007580Y016195D01*
X007334Y016195D02*
X007334Y015825D01*
X007395Y016010D02*
X007580Y015825D01*
X007212Y016134D02*
X007150Y016195D01*
X007027Y016195D01*
X006965Y016134D01*
X006965Y015887D01*
X008172Y015875D02*
X008233Y015813D01*
X008357Y015813D01*
X008419Y015752D01*
X008419Y015690D01*
X008357Y015628D01*
X008233Y015628D01*
X008172Y015690D01*
X008172Y015875D02*
X008172Y015937D01*
X008233Y015998D01*
X008357Y015998D01*
X008419Y015937D01*
X008540Y015937D02*
X008540Y015690D01*
X008602Y015628D01*
X008725Y015628D01*
X008787Y015690D01*
X008908Y015752D02*
X009155Y015998D01*
X008908Y015998D02*
X008908Y015628D01*
X008970Y015813D02*
X009155Y015628D01*
X008787Y015937D02*
X008725Y015998D01*
X008602Y015998D01*
X008540Y015937D01*
D11*
X004153Y022641D02*
X003846Y022641D01*
X003999Y022641D02*
X003999Y023101D01*
X003846Y022948D01*
X007444Y030437D02*
X007367Y030513D01*
X007367Y030667D01*
X007444Y030744D01*
X007521Y030897D02*
X007367Y031051D01*
X007828Y031051D01*
X007828Y031204D02*
X007828Y030897D01*
X007751Y030744D02*
X007828Y030667D01*
X007828Y030513D01*
X007751Y030437D01*
X007597Y030513D02*
X007597Y030667D01*
X007674Y030744D01*
X007751Y030744D01*
X007597Y030513D02*
X007521Y030437D01*
X007444Y030437D01*
X011698Y030513D02*
X011775Y030437D01*
X011851Y030437D01*
X011928Y030513D01*
X011928Y030667D01*
X012005Y030744D01*
X012082Y030744D01*
X012158Y030667D01*
X012158Y030513D01*
X012082Y030437D01*
X011698Y030513D02*
X011698Y030667D01*
X011775Y030744D01*
X011775Y030897D02*
X011698Y030974D01*
X011698Y031127D01*
X011775Y031204D01*
X011851Y031204D01*
X012158Y030897D01*
X012158Y031204D01*
X016029Y031127D02*
X016105Y031204D01*
X016182Y031204D01*
X016259Y031127D01*
X016336Y031204D01*
X016412Y031204D01*
X016489Y031127D01*
X016489Y030974D01*
X016412Y030897D01*
X016412Y030744D02*
X016489Y030667D01*
X016489Y030513D01*
X016412Y030437D01*
X016259Y030513D02*
X016259Y030667D01*
X016336Y030744D01*
X016412Y030744D01*
X016259Y030513D02*
X016182Y030437D01*
X016105Y030437D01*
X016029Y030513D01*
X016029Y030667D01*
X016105Y030744D01*
X016105Y030897D02*
X016029Y030974D01*
X016029Y031127D01*
X016259Y031127D02*
X016259Y031051D01*
X020359Y031127D02*
X020590Y030897D01*
X020590Y031204D01*
X020820Y031127D02*
X020359Y031127D01*
X020436Y030744D02*
X020359Y030667D01*
X020359Y030513D01*
X020436Y030437D01*
X020513Y030437D01*
X020590Y030513D01*
X020590Y030667D01*
X020666Y030744D01*
X020743Y030744D01*
X020820Y030667D01*
X020820Y030513D01*
X020743Y030437D01*
X020393Y013196D02*
X020239Y013196D01*
X020162Y013119D01*
X020162Y013042D01*
X020239Y012889D01*
X020009Y012889D01*
X020009Y013196D01*
X020393Y013196D02*
X020469Y013119D01*
X020469Y012965D01*
X020393Y012889D01*
X020393Y012735D02*
X020316Y012735D01*
X020239Y012659D01*
X020239Y012505D01*
X020162Y012428D01*
X020086Y012428D01*
X020009Y012505D01*
X020009Y012659D01*
X020086Y012735D01*
X020393Y012735D02*
X020469Y012659D01*
X020469Y012505D01*
X020393Y012428D01*
X014266Y009088D02*
X014189Y009164D01*
X014036Y009164D01*
X013959Y009088D01*
X013806Y009088D02*
X013806Y008781D01*
X013729Y008704D01*
X013576Y008704D01*
X013499Y008781D01*
X013499Y009088D01*
X013576Y009164D01*
X013729Y009164D01*
X013806Y009088D01*
X013959Y008704D02*
X014266Y009011D01*
X014266Y009088D01*
X014266Y008704D02*
X013959Y008704D01*
X013916Y008180D02*
X013762Y008027D01*
X013609Y008103D02*
X013609Y007796D01*
X013532Y007720D01*
X013379Y007720D01*
X013302Y007796D01*
X013302Y008103D01*
X013379Y008180D01*
X013532Y008180D01*
X013609Y008103D01*
X013762Y007720D02*
X014069Y007720D01*
X013916Y007720D02*
X013916Y008180D01*
X013149Y008180D02*
X012995Y008180D01*
X013072Y008180D02*
X013072Y007720D01*
X012995Y007720D02*
X013149Y007720D01*
X012842Y007950D02*
X012765Y007873D01*
X012535Y007873D01*
X012535Y007720D02*
X012535Y008180D01*
X012765Y008180D01*
X012842Y008103D01*
X012842Y007950D01*
X012381Y007950D02*
X012381Y007796D01*
X012305Y007720D01*
X012151Y007720D01*
X012074Y007796D01*
X012074Y008103D01*
X012151Y008180D01*
X012305Y008180D01*
X012381Y008103D01*
X012381Y007950D02*
X012228Y007950D01*
X012348Y008704D02*
X012501Y008704D01*
X012578Y008781D01*
X012578Y008934D01*
X012425Y008934D01*
X012578Y009088D02*
X012501Y009164D01*
X012348Y009164D01*
X012271Y009088D01*
X012271Y008781D01*
X012348Y008704D01*
X012732Y008704D02*
X012732Y009164D01*
X012962Y009164D01*
X013039Y009088D01*
X013039Y008934D01*
X012962Y008857D01*
X012732Y008857D01*
X013192Y008704D02*
X013345Y008704D01*
X013269Y008704D02*
X013269Y009164D01*
X013345Y009164D02*
X013192Y009164D01*
X013192Y007196D02*
X013499Y007196D01*
X013345Y007196D02*
X013345Y006735D01*
X013039Y006812D02*
X012962Y006735D01*
X012808Y006735D01*
X012732Y006812D01*
X012808Y006966D02*
X012962Y006966D01*
X013039Y006889D01*
X013039Y006812D01*
X012808Y006966D02*
X012732Y007042D01*
X012732Y007119D01*
X012808Y007196D01*
X012962Y007196D01*
X013039Y007119D01*
X012578Y007119D02*
X012578Y006966D01*
X012501Y006889D01*
X012271Y006889D01*
X012271Y006735D02*
X012271Y007196D01*
X012501Y007196D01*
X012578Y007119D01*
X012425Y006889D02*
X012578Y006735D01*
X012501Y006212D02*
X012348Y006212D01*
X012271Y006135D01*
X012271Y006058D01*
X012348Y005981D01*
X012501Y005981D01*
X012578Y005905D01*
X012578Y005828D01*
X012501Y005751D01*
X012348Y005751D01*
X012271Y005828D01*
X012578Y006135D02*
X012501Y006212D01*
X012732Y006212D02*
X012732Y005751D01*
X013039Y005751D01*
X013192Y005751D02*
X013192Y006212D01*
X013499Y005751D01*
X013499Y006212D01*
X013039Y006212D02*
X012732Y006212D01*
X012732Y005981D02*
X012885Y005981D01*
X012808Y005227D02*
X012732Y005151D01*
X012732Y004844D01*
X012808Y004767D01*
X012962Y004767D01*
X013039Y004844D01*
X013192Y004767D02*
X013192Y005227D01*
X013039Y005151D02*
X012962Y005227D01*
X012808Y005227D01*
X012578Y005151D02*
X012501Y005227D01*
X012348Y005227D01*
X012271Y005151D01*
X012271Y005074D01*
X012348Y004997D01*
X012501Y004997D01*
X012578Y004920D01*
X012578Y004844D01*
X012501Y004767D01*
X012348Y004767D01*
X012271Y004844D01*
X012348Y004243D02*
X012271Y004166D01*
X012271Y004090D01*
X012348Y004013D01*
X012501Y004013D01*
X012578Y003936D01*
X012578Y003859D01*
X012501Y003783D01*
X012348Y003783D01*
X012271Y003859D01*
X012348Y004243D02*
X012501Y004243D01*
X012578Y004166D01*
X012732Y004243D02*
X012732Y003783D01*
X012962Y003783D01*
X013039Y003859D01*
X013039Y004166D01*
X012962Y004243D01*
X012732Y004243D01*
X013192Y004243D02*
X013345Y004243D01*
X013269Y004243D02*
X013269Y003783D01*
X013345Y003783D02*
X013192Y003783D01*
X013499Y003859D02*
X013499Y004166D01*
X013576Y004243D01*
X013729Y004243D01*
X013806Y004166D01*
X013806Y003859D01*
X013729Y003783D01*
X013576Y003783D01*
X013499Y003859D01*
X013422Y003259D02*
X013192Y003259D01*
X013192Y002798D01*
X013422Y002798D01*
X013499Y002875D01*
X013499Y003182D01*
X013422Y003259D01*
X013039Y003259D02*
X013039Y002798D01*
X012732Y003259D01*
X012732Y002798D01*
X012578Y002875D02*
X012578Y003029D01*
X012425Y003029D01*
X012578Y003182D02*
X012501Y003259D01*
X012348Y003259D01*
X012271Y003182D01*
X012271Y002875D01*
X012348Y002798D01*
X012501Y002798D01*
X012578Y002875D01*
X012501Y002275D02*
X012348Y002275D01*
X012271Y002198D01*
X012425Y002044D02*
X012501Y002044D01*
X012578Y001968D01*
X012578Y001891D01*
X012501Y001814D01*
X012348Y001814D01*
X012271Y001891D01*
X012501Y002044D02*
X012578Y002121D01*
X012578Y002198D01*
X012501Y002275D01*
X012732Y001891D02*
X012808Y001891D01*
X012808Y001814D01*
X012732Y001814D01*
X012732Y001891D01*
X012962Y001891D02*
X013039Y001814D01*
X013192Y001814D01*
X013269Y001891D01*
X013269Y001968D01*
X013192Y002044D01*
X013115Y002044D01*
X013192Y002044D02*
X013269Y002121D01*
X013269Y002198D01*
X013192Y002275D01*
X013039Y002275D01*
X012962Y002198D01*
X013192Y004767D02*
X013499Y004767D01*
X013652Y004767D02*
X013652Y005227D01*
X013729Y004997D02*
X013959Y004767D01*
X013652Y004920D02*
X013959Y005227D01*
D12*
X008889Y009629D02*
X008891Y009692D01*
X008897Y009754D01*
X008907Y009816D01*
X008920Y009878D01*
X008938Y009938D01*
X008959Y009997D01*
X008984Y010055D01*
X009013Y010111D01*
X009045Y010165D01*
X009080Y010217D01*
X009118Y010266D01*
X009160Y010314D01*
X009204Y010358D01*
X009252Y010400D01*
X009301Y010438D01*
X009353Y010473D01*
X009407Y010505D01*
X009463Y010534D01*
X009521Y010559D01*
X009580Y010580D01*
X009640Y010598D01*
X009702Y010611D01*
X009764Y010621D01*
X009826Y010627D01*
X009889Y010629D01*
X009952Y010627D01*
X010014Y010621D01*
X010076Y010611D01*
X010138Y010598D01*
X010198Y010580D01*
X010257Y010559D01*
X010315Y010534D01*
X010371Y010505D01*
X010425Y010473D01*
X010477Y010438D01*
X010526Y010400D01*
X010574Y010358D01*
X010618Y010314D01*
X010660Y010266D01*
X010698Y010217D01*
X010733Y010165D01*
X010765Y010111D01*
X010794Y010055D01*
X010819Y009997D01*
X010840Y009938D01*
X010858Y009878D01*
X010871Y009816D01*
X010881Y009754D01*
X010887Y009692D01*
X010889Y009629D01*
X010887Y009566D01*
X010881Y009504D01*
X010871Y009442D01*
X010858Y009380D01*
X010840Y009320D01*
X010819Y009261D01*
X010794Y009203D01*
X010765Y009147D01*
X010733Y009093D01*
X010698Y009041D01*
X010660Y008992D01*
X010618Y008944D01*
X010574Y008900D01*
X010526Y008858D01*
X010477Y008820D01*
X010425Y008785D01*
X010371Y008753D01*
X010315Y008724D01*
X010257Y008699D01*
X010198Y008678D01*
X010138Y008660D01*
X010076Y008647D01*
X010014Y008637D01*
X009952Y008631D01*
X009889Y008629D01*
X009826Y008631D01*
X009764Y008637D01*
X009702Y008647D01*
X009640Y008660D01*
X009580Y008678D01*
X009521Y008699D01*
X009463Y008724D01*
X009407Y008753D01*
X009353Y008785D01*
X009301Y008820D01*
X009252Y008858D01*
X009204Y008900D01*
X009160Y008944D01*
X009118Y008992D01*
X009080Y009041D01*
X009045Y009093D01*
X009013Y009147D01*
X008984Y009203D01*
X008959Y009261D01*
X008938Y009320D01*
X008920Y009380D01*
X008907Y009442D01*
X008897Y009504D01*
X008891Y009566D01*
X008889Y009629D01*
X009389Y010329D02*
X009589Y010329D01*
X009489Y010229D02*
X009489Y010429D01*
X006960Y008736D02*
X006853Y008843D01*
X006640Y008843D01*
X006533Y008736D01*
X006533Y008309D01*
X006640Y008202D01*
X006853Y008202D01*
X006960Y008309D01*
X006960Y008522D01*
X006747Y008522D01*
X006960Y007740D02*
X006960Y007313D01*
X006747Y007100D01*
X006533Y007313D01*
X006533Y007740D01*
X003448Y007934D02*
X003448Y007434D01*
X003198Y007184D01*
X001698Y007184D01*
X001448Y007434D01*
X001448Y007934D01*
X001698Y008184D01*
X003198Y008184D01*
X003448Y008434D01*
X003448Y008934D01*
X003198Y009184D01*
X003448Y009434D01*
X003448Y009934D01*
X003198Y010184D01*
X001698Y010184D01*
X001448Y009934D01*
X001448Y009434D01*
X001698Y009184D01*
X003198Y009184D01*
X003198Y008184D02*
X003448Y007934D01*
X003085Y006992D02*
X003085Y006352D01*
X002872Y006352D02*
X003299Y006352D01*
X002872Y006779D02*
X003085Y006992D01*
X001698Y008184D02*
X001448Y008434D01*
X001448Y008934D01*
X001698Y009184D01*
X005384Y012308D02*
X005384Y014508D01*
X019984Y014508D01*
X019984Y013658D01*
X019954Y013656D01*
X019924Y013651D01*
X019895Y013642D01*
X019868Y013629D01*
X019842Y013614D01*
X019818Y013595D01*
X019797Y013574D01*
X019778Y013550D01*
X019763Y013524D01*
X019750Y013497D01*
X019741Y013468D01*
X019736Y013438D01*
X019734Y013408D01*
X019736Y013378D01*
X019741Y013348D01*
X019750Y013319D01*
X019763Y013292D01*
X019778Y013266D01*
X019797Y013242D01*
X019818Y013221D01*
X019842Y013202D01*
X019868Y013187D01*
X019895Y013174D01*
X019924Y013165D01*
X019954Y013160D01*
X019984Y013158D01*
X019984Y012308D01*
X005384Y012308D01*
X006522Y017105D02*
X007822Y017105D01*
X008522Y017105D02*
X008545Y017107D01*
X008568Y017112D01*
X008590Y017121D01*
X008610Y017134D01*
X008628Y017149D01*
X008643Y017167D01*
X008656Y017187D01*
X008665Y017209D01*
X008670Y017232D01*
X008672Y017255D01*
X008672Y018005D02*
X008672Y019955D01*
X008670Y019978D01*
X008665Y020001D01*
X008656Y020023D01*
X008643Y020043D01*
X008628Y020061D01*
X008610Y020076D01*
X008590Y020089D01*
X008568Y020098D01*
X008545Y020103D01*
X008522Y020105D01*
X007522Y020105D01*
X006822Y020105D02*
X005822Y020105D01*
X005799Y020103D01*
X005776Y020098D01*
X005754Y020089D01*
X005734Y020076D01*
X005716Y020061D01*
X005701Y020043D01*
X005688Y020023D01*
X005679Y020001D01*
X005674Y019978D01*
X005672Y019955D01*
X005672Y018005D01*
X005672Y017255D02*
X005674Y017232D01*
X005679Y017209D01*
X005688Y017187D01*
X005701Y017167D01*
X005716Y017149D01*
X005734Y017134D01*
X005754Y017121D01*
X005776Y017112D01*
X005799Y017107D01*
X005822Y017105D01*
X006622Y018055D02*
X006822Y018255D01*
X006822Y018505D02*
X006822Y018705D01*
X007072Y018705D01*
X007072Y018955D01*
X007272Y018955D01*
X007272Y018705D01*
X007522Y018705D01*
X007522Y018505D01*
X007272Y018505D01*
X007272Y018255D01*
X007072Y018255D01*
X007072Y018505D01*
X006822Y018505D01*
X006622Y018605D02*
X006422Y018605D01*
X006772Y019005D02*
X006672Y019105D01*
X007572Y019005D02*
X007672Y019105D01*
X007722Y018605D02*
X007922Y018605D01*
X007522Y018255D02*
X007722Y018055D01*
X007749Y022554D02*
X008249Y022554D01*
X008499Y022804D01*
X008499Y024304D01*
X008749Y024554D01*
X009249Y024554D01*
X009499Y024304D01*
X009499Y022804D01*
X009749Y022554D01*
X010249Y022554D01*
X010499Y022804D01*
X010499Y024304D01*
X010749Y024554D01*
X011249Y024554D01*
X011499Y024304D01*
X011499Y022804D01*
X011749Y022554D01*
X012249Y022554D01*
X012499Y022804D01*
X012499Y024304D01*
X012749Y024554D01*
X013249Y024554D01*
X013499Y024304D01*
X013499Y022804D01*
X013749Y022554D01*
X014249Y022554D01*
X014499Y022804D01*
X014499Y024304D01*
X014749Y024554D01*
X015249Y024554D01*
X015499Y024304D01*
X015499Y022804D01*
X015249Y022554D01*
X014749Y022554D01*
X014499Y022804D01*
X013499Y022804D02*
X013249Y022554D01*
X012749Y022554D01*
X012499Y022804D01*
X011499Y022804D02*
X011249Y022554D01*
X010749Y022554D01*
X010499Y022804D01*
X009499Y022804D02*
X009249Y022554D01*
X008749Y022554D01*
X008499Y022804D01*
X007749Y022554D02*
X007499Y022804D01*
X007499Y024304D01*
X007749Y024554D01*
X008249Y024554D01*
X008499Y024304D01*
X009499Y024304D02*
X009749Y024554D01*
X010249Y024554D01*
X010499Y024304D01*
X011499Y024304D02*
X011749Y024554D01*
X012249Y024554D01*
X012499Y024304D01*
X013499Y024304D02*
X013749Y024554D01*
X014249Y024554D01*
X014499Y024304D01*
X022183Y024548D02*
X022289Y024548D01*
X022503Y024548D02*
X022930Y024548D01*
X022930Y024442D02*
X022930Y024655D01*
X022823Y024871D02*
X022610Y024871D01*
X022503Y024978D01*
X022503Y025192D01*
X022610Y025298D01*
X022716Y025298D01*
X022716Y024871D01*
X022823Y024871D02*
X022930Y024978D01*
X022930Y025192D01*
X022503Y024548D02*
X022503Y024442D01*
X022610Y024224D02*
X022503Y024117D01*
X022503Y023797D01*
X022930Y023797D01*
X022930Y023580D02*
X022610Y023580D01*
X022503Y023473D01*
X022503Y023153D01*
X022930Y023153D01*
X022716Y022935D02*
X022716Y022508D01*
X022610Y022508D02*
X022503Y022615D01*
X022503Y022828D01*
X022610Y022935D01*
X022716Y022935D01*
X022930Y022828D02*
X022930Y022615D01*
X022823Y022508D01*
X022610Y022508D01*
X022930Y022291D02*
X022289Y022291D01*
X022503Y022077D01*
X022289Y021864D01*
X022930Y021864D01*
X022930Y024224D02*
X022610Y024224D01*
X022716Y026161D02*
X022716Y026481D01*
X022610Y026588D01*
X022396Y026588D01*
X022289Y026481D01*
X022289Y026161D01*
X022930Y026161D01*
X022930Y026805D02*
X022503Y026805D01*
X022716Y026805D02*
X022503Y027019D01*
X022503Y027125D01*
X022503Y027449D02*
X022503Y027662D01*
X022610Y027769D01*
X022930Y027769D01*
X022930Y027449D01*
X022823Y027342D01*
X022716Y027449D01*
X022716Y027769D01*
X022503Y027987D02*
X022503Y028200D01*
X022396Y028094D02*
X022823Y028094D01*
X022930Y028200D01*
X022823Y028523D02*
X022930Y028630D01*
X022823Y028523D02*
X022396Y028523D01*
X022503Y028416D02*
X022503Y028630D01*
X021216Y030101D02*
X021218Y030174D01*
X021224Y030247D01*
X021234Y030319D01*
X021248Y030391D01*
X021265Y030462D01*
X021287Y030532D01*
X021312Y030601D01*
X021341Y030668D01*
X021373Y030733D01*
X021409Y030797D01*
X021449Y030859D01*
X021491Y030918D01*
X021537Y030975D01*
X021586Y031029D01*
X021638Y031081D01*
X021692Y031130D01*
X021749Y031176D01*
X021808Y031218D01*
X021870Y031258D01*
X021934Y031294D01*
X021999Y031326D01*
X022066Y031355D01*
X022135Y031380D01*
X022205Y031402D01*
X022276Y031419D01*
X022348Y031433D01*
X022420Y031443D01*
X022493Y031449D01*
X022566Y031451D01*
X022639Y031449D01*
X022712Y031443D01*
X022784Y031433D01*
X022856Y031419D01*
X022927Y031402D01*
X022997Y031380D01*
X023066Y031355D01*
X023133Y031326D01*
X023198Y031294D01*
X023262Y031258D01*
X023324Y031218D01*
X023383Y031176D01*
X023440Y031130D01*
X023494Y031081D01*
X023546Y031029D01*
X023595Y030975D01*
X023641Y030918D01*
X023683Y030859D01*
X023723Y030797D01*
X023759Y030733D01*
X023791Y030668D01*
X023820Y030601D01*
X023845Y030532D01*
X023867Y030462D01*
X023884Y030391D01*
X023898Y030319D01*
X023908Y030247D01*
X023914Y030174D01*
X023916Y030101D01*
X023914Y030028D01*
X023908Y029955D01*
X023898Y029883D01*
X023884Y029811D01*
X023867Y029740D01*
X023845Y029670D01*
X023820Y029601D01*
X023791Y029534D01*
X023759Y029469D01*
X023723Y029405D01*
X023683Y029343D01*
X023641Y029284D01*
X023595Y029227D01*
X023546Y029173D01*
X023494Y029121D01*
X023440Y029072D01*
X023383Y029026D01*
X023324Y028984D01*
X023262Y028944D01*
X023198Y028908D01*
X023133Y028876D01*
X023066Y028847D01*
X022997Y028822D01*
X022927Y028800D01*
X022856Y028783D01*
X022784Y028769D01*
X022712Y028759D01*
X022639Y028753D01*
X022566Y028751D01*
X022493Y028753D01*
X022420Y028759D01*
X022348Y028769D01*
X022276Y028783D01*
X022205Y028800D01*
X022135Y028822D01*
X022066Y028847D01*
X021999Y028876D01*
X021934Y028908D01*
X021870Y028944D01*
X021808Y028984D01*
X021749Y029026D01*
X021692Y029072D01*
X021638Y029121D01*
X021586Y029173D01*
X021537Y029227D01*
X021491Y029284D01*
X021449Y029343D01*
X021409Y029405D01*
X021373Y029469D01*
X021341Y029534D01*
X021312Y029601D01*
X021287Y029670D01*
X021265Y029740D01*
X021248Y029811D01*
X021234Y029883D01*
X021224Y029955D01*
X021218Y030028D01*
X021216Y030101D01*
X003375Y024366D02*
X003268Y024473D01*
X003054Y024473D01*
X002948Y024366D01*
X003375Y024259D02*
X002948Y023832D01*
X003375Y023832D01*
X003375Y024259D02*
X003375Y024366D01*
X002732Y023939D02*
X002732Y023832D01*
X002625Y023832D01*
X002625Y023939D01*
X002732Y023939D01*
X002408Y023832D02*
X001981Y023832D01*
X002194Y023832D02*
X002194Y024473D01*
X001981Y024259D01*
X001763Y024046D02*
X001763Y024473D01*
X001763Y024046D02*
X001550Y023832D01*
X001336Y024046D01*
X001336Y024473D01*
X001443Y025013D02*
X001336Y025120D01*
X001336Y025547D01*
X001443Y025654D01*
X001657Y025654D01*
X001763Y025547D01*
X001763Y025120D01*
X001657Y025013D01*
X001443Y025013D01*
X001550Y025227D02*
X001763Y025013D01*
X001981Y025013D02*
X001981Y025654D01*
X002194Y025440D01*
X002408Y025654D01*
X002408Y025013D01*
X002625Y025013D02*
X002625Y025654D01*
X002946Y025654D01*
X003052Y025547D01*
X003052Y025333D01*
X002946Y025227D01*
X002625Y025227D01*
X000350Y030101D02*
X000352Y030174D01*
X000358Y030247D01*
X000368Y030319D01*
X000382Y030391D01*
X000399Y030462D01*
X000421Y030532D01*
X000446Y030601D01*
X000475Y030668D01*
X000507Y030733D01*
X000543Y030797D01*
X000583Y030859D01*
X000625Y030918D01*
X000671Y030975D01*
X000720Y031029D01*
X000772Y031081D01*
X000826Y031130D01*
X000883Y031176D01*
X000942Y031218D01*
X001004Y031258D01*
X001068Y031294D01*
X001133Y031326D01*
X001200Y031355D01*
X001269Y031380D01*
X001339Y031402D01*
X001410Y031419D01*
X001482Y031433D01*
X001554Y031443D01*
X001627Y031449D01*
X001700Y031451D01*
X001773Y031449D01*
X001846Y031443D01*
X001918Y031433D01*
X001990Y031419D01*
X002061Y031402D01*
X002131Y031380D01*
X002200Y031355D01*
X002267Y031326D01*
X002332Y031294D01*
X002396Y031258D01*
X002458Y031218D01*
X002517Y031176D01*
X002574Y031130D01*
X002628Y031081D01*
X002680Y031029D01*
X002729Y030975D01*
X002775Y030918D01*
X002817Y030859D01*
X002857Y030797D01*
X002893Y030733D01*
X002925Y030668D01*
X002954Y030601D01*
X002979Y030532D01*
X003001Y030462D01*
X003018Y030391D01*
X003032Y030319D01*
X003042Y030247D01*
X003048Y030174D01*
X003050Y030101D01*
X003048Y030028D01*
X003042Y029955D01*
X003032Y029883D01*
X003018Y029811D01*
X003001Y029740D01*
X002979Y029670D01*
X002954Y029601D01*
X002925Y029534D01*
X002893Y029469D01*
X002857Y029405D01*
X002817Y029343D01*
X002775Y029284D01*
X002729Y029227D01*
X002680Y029173D01*
X002628Y029121D01*
X002574Y029072D01*
X002517Y029026D01*
X002458Y028984D01*
X002396Y028944D01*
X002332Y028908D01*
X002267Y028876D01*
X002200Y028847D01*
X002131Y028822D01*
X002061Y028800D01*
X001990Y028783D01*
X001918Y028769D01*
X001846Y028759D01*
X001773Y028753D01*
X001700Y028751D01*
X001627Y028753D01*
X001554Y028759D01*
X001482Y028769D01*
X001410Y028783D01*
X001339Y028800D01*
X001269Y028822D01*
X001200Y028847D01*
X001133Y028876D01*
X001068Y028908D01*
X001004Y028944D01*
X000942Y028984D01*
X000883Y029026D01*
X000826Y029072D01*
X000772Y029121D01*
X000720Y029173D01*
X000671Y029227D01*
X000625Y029284D01*
X000583Y029343D01*
X000543Y029405D01*
X000507Y029469D01*
X000475Y029534D01*
X000446Y029601D01*
X000421Y029670D01*
X000399Y029740D01*
X000382Y029811D01*
X000368Y029883D01*
X000358Y029955D01*
X000352Y030028D01*
X000350Y030101D01*
D13*
X000519Y000180D02*
X023747Y000180D01*
X023747Y031282D01*
X000519Y031282D01*
X000519Y000180D01*
D14*
X020279Y012725D02*
X020279Y012935D01*
X020279Y012830D02*
X020909Y012830D01*
X020909Y012725D02*
X020909Y012935D01*
X020804Y013154D02*
X020909Y013259D01*
X020909Y013470D01*
X020804Y013575D01*
X020909Y013799D02*
X020489Y014219D01*
X020384Y014219D01*
X020279Y014114D01*
X020279Y013904D01*
X020384Y013799D01*
X020384Y013575D02*
X020279Y013470D01*
X020279Y013259D01*
X020384Y013154D01*
X020804Y013154D01*
X020909Y013799D02*
X020909Y014219D01*
D15*
X020598Y014300D02*
X020598Y012517D01*
X021348Y012267D02*
X022131Y012267D01*
X022881Y012517D02*
X022881Y014300D01*
X022131Y014550D02*
X021348Y014550D01*
X021089Y013408D02*
X021091Y013458D01*
X021097Y013508D01*
X021107Y013558D01*
X021120Y013606D01*
X021137Y013654D01*
X021158Y013700D01*
X021182Y013744D01*
X021210Y013786D01*
X021241Y013826D01*
X021275Y013863D01*
X021312Y013898D01*
X021351Y013929D01*
X021392Y013958D01*
X021436Y013983D01*
X021482Y014005D01*
X021529Y014023D01*
X021577Y014037D01*
X021626Y014048D01*
X021676Y014055D01*
X021726Y014058D01*
X021777Y014057D01*
X021827Y014052D01*
X021877Y014043D01*
X021925Y014031D01*
X021973Y014014D01*
X022019Y013994D01*
X022064Y013971D01*
X022107Y013944D01*
X022147Y013914D01*
X022185Y013881D01*
X022220Y013845D01*
X022253Y013806D01*
X022282Y013765D01*
X022308Y013722D01*
X022331Y013677D01*
X022350Y013630D01*
X022365Y013582D01*
X022377Y013533D01*
X022385Y013483D01*
X022389Y013433D01*
X022389Y013383D01*
X022385Y013333D01*
X022377Y013283D01*
X022365Y013234D01*
X022350Y013186D01*
X022331Y013139D01*
X022308Y013094D01*
X022282Y013051D01*
X022253Y013010D01*
X022220Y012971D01*
X022185Y012935D01*
X022147Y012902D01*
X022107Y012872D01*
X022064Y012845D01*
X022019Y012822D01*
X021973Y012802D01*
X021925Y012785D01*
X021877Y012773D01*
X021827Y012764D01*
X021777Y012759D01*
X021726Y012758D01*
X021676Y012761D01*
X021626Y012768D01*
X021577Y012779D01*
X021529Y012793D01*
X021482Y012811D01*
X021436Y012833D01*
X021392Y012858D01*
X021351Y012887D01*
X021312Y012918D01*
X021275Y012953D01*
X021241Y012990D01*
X021210Y013030D01*
X021182Y013072D01*
X021158Y013116D01*
X021137Y013162D01*
X021120Y013210D01*
X021107Y013258D01*
X021097Y013308D01*
X021091Y013358D01*
X021089Y013408D01*
X019948Y028802D02*
X019948Y028940D01*
X019948Y029786D02*
X019948Y029924D01*
X017231Y029924D01*
X017231Y029786D01*
X017231Y029924D02*
X017231Y031302D01*
X019948Y031302D01*
X019948Y029924D01*
X019830Y031341D02*
X019830Y031460D01*
X019535Y031460D01*
X019535Y031341D01*
X019338Y031341D02*
X019338Y031578D01*
X019259Y031656D01*
X018944Y031656D01*
X018944Y032168D01*
X018235Y032168D01*
X018235Y031656D01*
X017920Y031656D01*
X017842Y031578D01*
X017842Y031341D01*
X017645Y031341D02*
X017645Y031460D01*
X017350Y031460D01*
X017350Y031341D01*
X018039Y032168D02*
X018235Y032168D01*
X018039Y032168D02*
X018039Y032798D01*
X019141Y032798D01*
X019141Y032168D01*
X018944Y032168D01*
X018944Y031656D02*
X018235Y031656D01*
X017231Y028940D02*
X017231Y028802D01*
X015617Y028802D02*
X015617Y028940D01*
X015617Y029786D02*
X015617Y029924D01*
X012901Y029924D01*
X012901Y029786D01*
X012901Y029924D02*
X012901Y031302D01*
X015617Y031302D01*
X015617Y029924D01*
X015499Y031341D02*
X015499Y031460D01*
X015204Y031460D01*
X015204Y031341D01*
X015007Y031341D02*
X015007Y031578D01*
X014928Y031656D01*
X014613Y031656D01*
X014613Y032168D01*
X013905Y032168D01*
X013905Y031656D01*
X013590Y031656D01*
X013511Y031578D01*
X013511Y031341D01*
X013314Y031341D02*
X013314Y031460D01*
X013019Y031460D01*
X013019Y031341D01*
X013708Y032168D02*
X013905Y032168D01*
X013708Y032168D02*
X013708Y032798D01*
X014810Y032798D01*
X014810Y032168D01*
X014613Y032168D01*
X014613Y031656D02*
X013905Y031656D01*
X012901Y028940D02*
X012901Y028802D01*
X011287Y028802D02*
X011287Y028940D01*
X011287Y029786D02*
X011287Y029924D01*
X008570Y029924D01*
X008570Y029786D01*
X008570Y029924D02*
X008570Y031302D01*
X011287Y031302D01*
X011287Y029924D01*
X011169Y031341D02*
X011169Y031460D01*
X010873Y031460D01*
X010873Y031341D01*
X010676Y031341D02*
X010676Y031578D01*
X010598Y031656D01*
X010283Y031656D01*
X010283Y032168D01*
X009574Y032168D01*
X009574Y031656D01*
X009259Y031656D01*
X009180Y031578D01*
X009180Y031341D01*
X008983Y031341D02*
X008983Y031460D01*
X008688Y031460D01*
X008688Y031341D01*
X009377Y032168D02*
X009574Y032168D01*
X009377Y032168D02*
X009377Y032798D01*
X010480Y032798D01*
X010480Y032168D01*
X010283Y032168D01*
X010283Y031656D02*
X009574Y031656D01*
X008570Y028940D02*
X008570Y028802D01*
X006956Y028802D02*
X006956Y028940D01*
X006956Y029786D02*
X006956Y029924D01*
X004239Y029924D01*
X004239Y029786D01*
X004239Y029924D02*
X004239Y031302D01*
X006956Y031302D01*
X006956Y029924D01*
X006838Y031341D02*
X006838Y031460D01*
X006543Y031460D01*
X006543Y031341D01*
X006346Y031341D02*
X006346Y031578D01*
X006267Y031656D01*
X005952Y031656D01*
X005952Y032168D01*
X005243Y032168D01*
X005243Y031656D01*
X004928Y031656D01*
X004850Y031578D01*
X004850Y031341D01*
X004653Y031341D02*
X004653Y031460D01*
X004357Y031460D01*
X004357Y031341D01*
X005046Y032168D02*
X005243Y032168D01*
X005046Y032168D02*
X005046Y032798D01*
X006149Y032798D01*
X006149Y032168D01*
X005952Y032168D01*
X005952Y031656D02*
X005243Y031656D01*
X004239Y028940D02*
X004239Y028802D01*
X001070Y030101D02*
X001072Y030151D01*
X001078Y030201D01*
X001088Y030250D01*
X001102Y030298D01*
X001119Y030345D01*
X001140Y030390D01*
X001165Y030434D01*
X001193Y030475D01*
X001225Y030514D01*
X001259Y030551D01*
X001296Y030585D01*
X001336Y030615D01*
X001378Y030642D01*
X001422Y030666D01*
X001468Y030687D01*
X001515Y030703D01*
X001563Y030716D01*
X001613Y030725D01*
X001662Y030730D01*
X001713Y030731D01*
X001763Y030728D01*
X001812Y030721D01*
X001861Y030710D01*
X001909Y030695D01*
X001955Y030677D01*
X002000Y030655D01*
X002043Y030629D01*
X002084Y030600D01*
X002123Y030568D01*
X002159Y030533D01*
X002191Y030495D01*
X002221Y030455D01*
X002248Y030412D01*
X002271Y030368D01*
X002290Y030322D01*
X002306Y030274D01*
X002318Y030225D01*
X002326Y030176D01*
X002330Y030126D01*
X002330Y030076D01*
X002326Y030026D01*
X002318Y029977D01*
X002306Y029928D01*
X002290Y029880D01*
X002271Y029834D01*
X002248Y029790D01*
X002221Y029747D01*
X002191Y029707D01*
X002159Y029669D01*
X002123Y029634D01*
X002084Y029602D01*
X002043Y029573D01*
X002000Y029547D01*
X001955Y029525D01*
X001909Y029507D01*
X001861Y029492D01*
X001812Y029481D01*
X001763Y029474D01*
X001713Y029471D01*
X001662Y029472D01*
X001613Y029477D01*
X001563Y029486D01*
X001515Y029499D01*
X001468Y029515D01*
X001422Y029536D01*
X001378Y029560D01*
X001336Y029587D01*
X001296Y029617D01*
X001259Y029651D01*
X001225Y029688D01*
X001193Y029727D01*
X001165Y029768D01*
X001140Y029812D01*
X001119Y029857D01*
X001102Y029904D01*
X001088Y029952D01*
X001078Y030001D01*
X001072Y030051D01*
X001070Y030101D01*
X003123Y014758D02*
X003123Y012058D01*
X003125Y011999D01*
X003131Y011941D01*
X003140Y011882D01*
X003154Y011825D01*
X003171Y011769D01*
X003192Y011714D01*
X003216Y011660D01*
X003244Y011608D01*
X003275Y011558D01*
X003309Y011510D01*
X003346Y011465D01*
X003387Y011422D01*
X003430Y011381D01*
X003475Y011344D01*
X003523Y011310D01*
X003573Y011279D01*
X003625Y011251D01*
X003679Y011227D01*
X003734Y011206D01*
X003790Y011189D01*
X003847Y011175D01*
X003906Y011166D01*
X003964Y011160D01*
X004023Y011158D01*
X004082Y011160D01*
X004140Y011166D01*
X004199Y011175D01*
X004256Y011189D01*
X004312Y011206D01*
X004367Y011227D01*
X004421Y011251D01*
X004473Y011279D01*
X004523Y011310D01*
X004571Y011344D01*
X004616Y011381D01*
X004659Y011422D01*
X004700Y011465D01*
X004737Y011510D01*
X004771Y011558D01*
X004802Y011608D01*
X004830Y011660D01*
X004854Y011714D01*
X004875Y011769D01*
X004892Y011825D01*
X004906Y011882D01*
X004915Y011941D01*
X004921Y011999D01*
X004923Y012058D01*
X004923Y014758D01*
X004921Y014817D01*
X004915Y014875D01*
X004906Y014934D01*
X004892Y014991D01*
X004875Y015047D01*
X004854Y015102D01*
X004830Y015156D01*
X004802Y015208D01*
X004771Y015258D01*
X004737Y015306D01*
X004700Y015351D01*
X004659Y015394D01*
X004616Y015435D01*
X004571Y015472D01*
X004523Y015506D01*
X004473Y015537D01*
X004421Y015565D01*
X004367Y015589D01*
X004312Y015610D01*
X004256Y015627D01*
X004199Y015641D01*
X004140Y015650D01*
X004082Y015656D01*
X004023Y015658D01*
X003964Y015656D01*
X003906Y015650D01*
X003847Y015641D01*
X003790Y015627D01*
X003734Y015610D01*
X003679Y015589D01*
X003625Y015565D01*
X003573Y015537D01*
X003523Y015506D01*
X003475Y015472D01*
X003430Y015435D01*
X003387Y015394D01*
X003346Y015351D01*
X003309Y015306D01*
X003275Y015258D01*
X003244Y015208D01*
X003216Y015156D01*
X003192Y015102D01*
X003171Y015047D01*
X003154Y014991D01*
X003140Y014934D01*
X003131Y014875D01*
X003125Y014817D01*
X003123Y014758D01*
X007710Y009003D02*
X007460Y008753D01*
X007460Y008253D01*
X007710Y008003D01*
X007460Y007753D01*
X007460Y007253D01*
X007710Y007003D01*
X008210Y007003D01*
X008460Y007253D01*
X008460Y007753D01*
X008210Y008003D01*
X008460Y008253D01*
X008460Y008753D01*
X008210Y009003D01*
X007710Y009003D01*
X007710Y005885D02*
X007460Y005635D01*
X007460Y005135D01*
X007710Y004885D01*
X007460Y004635D01*
X007460Y004135D01*
X007710Y003885D01*
X007460Y003635D01*
X007460Y003135D01*
X007710Y002885D01*
X007460Y002635D01*
X007460Y002135D01*
X007710Y001885D01*
X008210Y001885D01*
X008460Y002135D01*
X008460Y002635D01*
X008210Y002885D01*
X008460Y003135D01*
X008460Y003635D01*
X008210Y003885D01*
X008460Y004135D01*
X008460Y004635D01*
X008210Y004885D01*
X008460Y005135D01*
X008460Y005635D01*
X008210Y005885D01*
X007710Y005885D01*
X021936Y030101D02*
X021938Y030151D01*
X021944Y030201D01*
X021954Y030250D01*
X021968Y030298D01*
X021985Y030345D01*
X022006Y030390D01*
X022031Y030434D01*
X022059Y030475D01*
X022091Y030514D01*
X022125Y030551D01*
X022162Y030585D01*
X022202Y030615D01*
X022244Y030642D01*
X022288Y030666D01*
X022334Y030687D01*
X022381Y030703D01*
X022429Y030716D01*
X022479Y030725D01*
X022528Y030730D01*
X022579Y030731D01*
X022629Y030728D01*
X022678Y030721D01*
X022727Y030710D01*
X022775Y030695D01*
X022821Y030677D01*
X022866Y030655D01*
X022909Y030629D01*
X022950Y030600D01*
X022989Y030568D01*
X023025Y030533D01*
X023057Y030495D01*
X023087Y030455D01*
X023114Y030412D01*
X023137Y030368D01*
X023156Y030322D01*
X023172Y030274D01*
X023184Y030225D01*
X023192Y030176D01*
X023196Y030126D01*
X023196Y030076D01*
X023192Y030026D01*
X023184Y029977D01*
X023172Y029928D01*
X023156Y029880D01*
X023137Y029834D01*
X023114Y029790D01*
X023087Y029747D01*
X023057Y029707D01*
X023025Y029669D01*
X022989Y029634D01*
X022950Y029602D01*
X022909Y029573D01*
X022866Y029547D01*
X022821Y029525D01*
X022775Y029507D01*
X022727Y029492D01*
X022678Y029481D01*
X022629Y029474D01*
X022579Y029471D01*
X022528Y029472D01*
X022479Y029477D01*
X022429Y029486D01*
X022381Y029499D01*
X022334Y029515D01*
X022288Y029536D01*
X022244Y029560D01*
X022202Y029587D01*
X022162Y029617D01*
X022125Y029651D01*
X022091Y029688D01*
X022059Y029727D01*
X022031Y029768D01*
X022006Y029812D01*
X021985Y029857D01*
X021968Y029904D01*
X021954Y029952D01*
X021944Y030001D01*
X021938Y030051D01*
X021936Y030101D01*
D16*
X021739Y027582D02*
X011897Y027582D01*
X002054Y027582D01*
X002054Y000810D01*
X021739Y000810D01*
X021739Y027582D01*
X023472Y009865D02*
X011070Y009865D01*
X011070Y000810D01*
X023472Y000810D01*
X023472Y006125D01*
X024653Y006125D01*
X024653Y008684D01*
X023472Y008684D01*
X023472Y009865D01*
X010218Y007810D02*
X009918Y007810D01*
X010068Y007810D02*
X010068Y008260D01*
X009918Y008110D01*
X009758Y008185D02*
X009682Y008260D01*
X009532Y008260D01*
X009457Y008185D01*
X009457Y007885D01*
X009532Y007810D01*
X009682Y007810D01*
X009758Y007885D01*
X008002Y009041D02*
X008002Y009116D01*
X007927Y009192D01*
X007552Y009192D01*
X007552Y009267D02*
X007552Y009116D01*
X007627Y009427D02*
X007552Y009502D01*
X007552Y009652D01*
X007627Y009727D01*
X007702Y009727D01*
X007777Y009652D01*
X007852Y009727D01*
X007927Y009727D01*
X008002Y009652D01*
X008002Y009502D01*
X007927Y009427D01*
X007777Y009577D02*
X007777Y009652D01*
X008002Y009041D02*
X007927Y008966D01*
X006990Y002640D02*
X006990Y002340D01*
X006764Y002565D01*
X007215Y002565D01*
X007140Y002105D02*
X006764Y002105D01*
X006764Y002030D02*
X006764Y002180D01*
X007140Y002105D02*
X007215Y002030D01*
X007215Y001955D01*
X007140Y001880D01*
X001173Y007284D02*
X001098Y007209D01*
X001173Y007284D02*
X001173Y007359D01*
X001098Y007434D01*
X000723Y007434D01*
X000723Y007359D02*
X000723Y007509D01*
X000798Y007669D02*
X000723Y007744D01*
X000723Y007895D01*
X000798Y007970D01*
X000873Y007970D01*
X001173Y007669D01*
X001173Y007970D01*
X002573Y011433D02*
X002497Y011508D01*
X002497Y011659D01*
X002573Y011734D01*
X002873Y011734D01*
X002948Y011659D01*
X002948Y011508D01*
X002873Y011433D01*
X002573Y011433D01*
X002798Y011583D02*
X002948Y011734D01*
X002948Y011894D02*
X002948Y012194D01*
X002948Y012044D02*
X002497Y012044D01*
X002648Y011894D01*
X006197Y020280D02*
X006197Y020731D01*
X006423Y020731D01*
X006498Y020656D01*
X006498Y020505D01*
X006423Y020430D01*
X006197Y020430D01*
X006348Y020430D02*
X006498Y020280D01*
X006658Y020280D02*
X006658Y020355D01*
X006958Y020656D01*
X006958Y020731D01*
X006658Y020731D01*
D17*
X005350Y027643D02*
X005250Y027643D01*
X005203Y027643D02*
X005153Y027693D01*
X005178Y027693D02*
X005103Y027693D01*
X005103Y027643D02*
X005103Y027793D01*
X005178Y027793D01*
X005203Y027768D01*
X005203Y027718D01*
X005178Y027693D01*
X005250Y027743D02*
X005300Y027793D01*
X005300Y027643D01*
X009433Y027643D02*
X009433Y027793D01*
X009508Y027793D01*
X009533Y027768D01*
X009533Y027718D01*
X009508Y027693D01*
X009433Y027693D01*
X009483Y027693D02*
X009533Y027643D01*
X009581Y027643D02*
X009681Y027743D01*
X009681Y027768D01*
X009656Y027793D01*
X009606Y027793D01*
X009581Y027768D01*
X009581Y027643D02*
X009681Y027643D01*
X013764Y027643D02*
X013764Y027793D01*
X013839Y027793D01*
X013864Y027768D01*
X013864Y027718D01*
X013839Y027693D01*
X013764Y027693D01*
X013814Y027693D02*
X013864Y027643D01*
X013911Y027668D02*
X013936Y027643D01*
X013986Y027643D01*
X014011Y027668D01*
X014011Y027693D01*
X013986Y027718D01*
X013961Y027718D01*
X013986Y027718D02*
X014011Y027743D01*
X014011Y027768D01*
X013986Y027793D01*
X013936Y027793D01*
X013911Y027768D01*
X018095Y027793D02*
X018095Y027643D01*
X018095Y027693D02*
X018170Y027693D01*
X018195Y027718D01*
X018195Y027768D01*
X018170Y027793D01*
X018095Y027793D01*
X018145Y027693D02*
X018195Y027643D01*
X018242Y027718D02*
X018342Y027718D01*
X018317Y027643D02*
X018317Y027793D01*
X018242Y027718D01*
X021244Y020195D02*
X021319Y020195D01*
X021344Y020170D01*
X021344Y020120D01*
X021319Y020094D01*
X021244Y020094D01*
X021244Y020044D02*
X021244Y020195D01*
X021294Y020094D02*
X021344Y020044D01*
X021392Y020069D02*
X021417Y020044D01*
X021467Y020044D01*
X021492Y020069D01*
X021492Y020120D01*
X021467Y020145D01*
X021442Y020145D01*
X021392Y020120D01*
X021392Y020195D01*
X021492Y020195D01*
X021442Y019117D02*
X021442Y018917D01*
X021467Y018942D02*
X021492Y018967D01*
X021492Y018992D01*
X021467Y019017D01*
X021417Y019017D01*
X021392Y019042D01*
X021392Y019067D01*
X021417Y019092D01*
X021467Y019092D01*
X021492Y019067D01*
X021539Y019042D02*
X021589Y019092D01*
X021589Y018942D01*
X021539Y018942D02*
X021639Y018942D01*
X021686Y018967D02*
X021711Y018942D01*
X021761Y018942D01*
X021786Y018967D01*
X021786Y018992D01*
X021761Y019017D01*
X021736Y019017D01*
X021761Y019017D02*
X021786Y019042D01*
X021786Y019067D01*
X021761Y019092D01*
X021711Y019092D01*
X021686Y019067D01*
X021467Y018942D02*
X021417Y018942D01*
X021392Y018967D01*
X021344Y018942D02*
X021244Y018942D01*
X021244Y019092D01*
X021344Y019092D01*
X021294Y019017D02*
X021244Y019017D01*
X021244Y017163D02*
X021319Y017163D01*
X021344Y017138D01*
X021344Y017088D01*
X021319Y017063D01*
X021244Y017063D01*
X021244Y017013D02*
X021244Y017163D01*
X021294Y017063D02*
X021344Y017013D01*
X021392Y017038D02*
X021417Y017013D01*
X021467Y017013D01*
X021492Y017038D01*
X021492Y017063D01*
X021467Y017088D01*
X021392Y017088D01*
X021392Y017038D01*
X021392Y017088D02*
X021442Y017138D01*
X021492Y017163D01*
D18*
X013734Y010916D02*
X013734Y009916D01*
X011634Y009916D01*
X011634Y010916D01*
X013734Y010916D01*
X012684Y010666D02*
X012684Y010166D01*
X002554Y011177D02*
X001554Y011177D01*
X001554Y013277D01*
X002554Y013277D01*
X002554Y011177D01*
X002304Y012227D02*
X001804Y012227D01*
X001554Y013933D02*
X002554Y013933D01*
X002554Y016033D01*
X001554Y016033D01*
X001554Y013933D01*
X001804Y014983D02*
X002304Y014983D01*
X004548Y027869D02*
X004548Y028869D01*
X006648Y028869D01*
X006648Y027869D01*
X004548Y027869D01*
X005598Y028119D02*
X005598Y028619D01*
X008878Y028869D02*
X008878Y027869D01*
X010978Y027869D01*
X010978Y028869D01*
X008878Y028869D01*
X009928Y028619D02*
X009928Y028119D01*
X013209Y027869D02*
X013209Y028869D01*
X015309Y028869D01*
X015309Y027869D01*
X013209Y027869D01*
X014259Y028119D02*
X014259Y028619D01*
X017540Y028869D02*
X017540Y027869D01*
X019640Y027869D01*
X019640Y028869D01*
X017540Y028869D01*
X018590Y028619D02*
X018590Y028119D01*
D19*
X020322Y026794D02*
X020324Y026844D01*
X020330Y026894D01*
X020340Y026943D01*
X020354Y026991D01*
X020371Y027038D01*
X020392Y027083D01*
X020417Y027127D01*
X020445Y027168D01*
X020477Y027207D01*
X020511Y027244D01*
X020548Y027278D01*
X020588Y027308D01*
X020630Y027335D01*
X020674Y027359D01*
X020720Y027380D01*
X020767Y027396D01*
X020815Y027409D01*
X020865Y027418D01*
X020914Y027423D01*
X020965Y027424D01*
X021015Y027421D01*
X021064Y027414D01*
X021113Y027403D01*
X021161Y027388D01*
X021207Y027370D01*
X021252Y027348D01*
X021295Y027322D01*
X021336Y027293D01*
X021375Y027261D01*
X021411Y027226D01*
X021443Y027188D01*
X021473Y027148D01*
X021500Y027105D01*
X021523Y027061D01*
X021542Y027015D01*
X021558Y026967D01*
X021570Y026918D01*
X021578Y026869D01*
X021582Y026819D01*
X021582Y026769D01*
X021578Y026719D01*
X021570Y026670D01*
X021558Y026621D01*
X021542Y026573D01*
X021523Y026527D01*
X021500Y026483D01*
X021473Y026440D01*
X021443Y026400D01*
X021411Y026362D01*
X021375Y026327D01*
X021336Y026295D01*
X021295Y026266D01*
X021252Y026240D01*
X021207Y026218D01*
X021161Y026200D01*
X021113Y026185D01*
X021064Y026174D01*
X021015Y026167D01*
X020965Y026164D01*
X020914Y026165D01*
X020865Y026170D01*
X020815Y026179D01*
X020767Y026192D01*
X020720Y026208D01*
X020674Y026229D01*
X020630Y026253D01*
X020588Y026280D01*
X020548Y026310D01*
X020511Y026344D01*
X020477Y026381D01*
X020445Y026420D01*
X020417Y026461D01*
X020392Y026505D01*
X020371Y026550D01*
X020354Y026597D01*
X020340Y026645D01*
X020330Y026694D01*
X020324Y026744D01*
X020322Y026794D01*
X021975Y030101D02*
X021977Y030149D01*
X021983Y030197D01*
X021993Y030244D01*
X022006Y030290D01*
X022024Y030335D01*
X022044Y030379D01*
X022069Y030421D01*
X022097Y030460D01*
X022127Y030497D01*
X022161Y030531D01*
X022198Y030563D01*
X022236Y030592D01*
X022277Y030617D01*
X022320Y030639D01*
X022365Y030657D01*
X022411Y030671D01*
X022458Y030682D01*
X022506Y030689D01*
X022554Y030692D01*
X022602Y030691D01*
X022650Y030686D01*
X022698Y030677D01*
X022744Y030665D01*
X022789Y030648D01*
X022833Y030628D01*
X022875Y030605D01*
X022915Y030578D01*
X022953Y030548D01*
X022988Y030515D01*
X023020Y030479D01*
X023050Y030441D01*
X023076Y030400D01*
X023098Y030357D01*
X023118Y030313D01*
X023133Y030268D01*
X023145Y030221D01*
X023153Y030173D01*
X023157Y030125D01*
X023157Y030077D01*
X023153Y030029D01*
X023145Y029981D01*
X023133Y029934D01*
X023118Y029889D01*
X023098Y029845D01*
X023076Y029802D01*
X023050Y029761D01*
X023020Y029723D01*
X022988Y029687D01*
X022953Y029654D01*
X022915Y029624D01*
X022875Y029597D01*
X022833Y029574D01*
X022789Y029554D01*
X022744Y029537D01*
X022698Y029525D01*
X022650Y029516D01*
X022602Y029511D01*
X022554Y029510D01*
X022506Y029513D01*
X022458Y029520D01*
X022411Y029531D01*
X022365Y029545D01*
X022320Y029563D01*
X022277Y029585D01*
X022236Y029610D01*
X022198Y029639D01*
X022161Y029671D01*
X022127Y029705D01*
X022097Y029742D01*
X022069Y029781D01*
X022044Y029823D01*
X022024Y029867D01*
X022006Y029912D01*
X021993Y029958D01*
X021983Y030005D01*
X021977Y030053D01*
X021975Y030101D01*
X002212Y026794D02*
X002214Y026844D01*
X002220Y026894D01*
X002230Y026943D01*
X002244Y026991D01*
X002261Y027038D01*
X002282Y027083D01*
X002307Y027127D01*
X002335Y027168D01*
X002367Y027207D01*
X002401Y027244D01*
X002438Y027278D01*
X002478Y027308D01*
X002520Y027335D01*
X002564Y027359D01*
X002610Y027380D01*
X002657Y027396D01*
X002705Y027409D01*
X002755Y027418D01*
X002804Y027423D01*
X002855Y027424D01*
X002905Y027421D01*
X002954Y027414D01*
X003003Y027403D01*
X003051Y027388D01*
X003097Y027370D01*
X003142Y027348D01*
X003185Y027322D01*
X003226Y027293D01*
X003265Y027261D01*
X003301Y027226D01*
X003333Y027188D01*
X003363Y027148D01*
X003390Y027105D01*
X003413Y027061D01*
X003432Y027015D01*
X003448Y026967D01*
X003460Y026918D01*
X003468Y026869D01*
X003472Y026819D01*
X003472Y026769D01*
X003468Y026719D01*
X003460Y026670D01*
X003448Y026621D01*
X003432Y026573D01*
X003413Y026527D01*
X003390Y026483D01*
X003363Y026440D01*
X003333Y026400D01*
X003301Y026362D01*
X003265Y026327D01*
X003226Y026295D01*
X003185Y026266D01*
X003142Y026240D01*
X003097Y026218D01*
X003051Y026200D01*
X003003Y026185D01*
X002954Y026174D01*
X002905Y026167D01*
X002855Y026164D01*
X002804Y026165D01*
X002755Y026170D01*
X002705Y026179D01*
X002657Y026192D01*
X002610Y026208D01*
X002564Y026229D01*
X002520Y026253D01*
X002478Y026280D01*
X002438Y026310D01*
X002401Y026344D01*
X002367Y026381D01*
X002335Y026420D01*
X002307Y026461D01*
X002282Y026505D01*
X002261Y026550D01*
X002244Y026597D01*
X002230Y026645D01*
X002220Y026694D01*
X002214Y026744D01*
X002212Y026794D01*
X001109Y030101D02*
X001111Y030149D01*
X001117Y030197D01*
X001127Y030244D01*
X001140Y030290D01*
X001158Y030335D01*
X001178Y030379D01*
X001203Y030421D01*
X001231Y030460D01*
X001261Y030497D01*
X001295Y030531D01*
X001332Y030563D01*
X001370Y030592D01*
X001411Y030617D01*
X001454Y030639D01*
X001499Y030657D01*
X001545Y030671D01*
X001592Y030682D01*
X001640Y030689D01*
X001688Y030692D01*
X001736Y030691D01*
X001784Y030686D01*
X001832Y030677D01*
X001878Y030665D01*
X001923Y030648D01*
X001967Y030628D01*
X002009Y030605D01*
X002049Y030578D01*
X002087Y030548D01*
X002122Y030515D01*
X002154Y030479D01*
X002184Y030441D01*
X002210Y030400D01*
X002232Y030357D01*
X002252Y030313D01*
X002267Y030268D01*
X002279Y030221D01*
X002287Y030173D01*
X002291Y030125D01*
X002291Y030077D01*
X002287Y030029D01*
X002279Y029981D01*
X002267Y029934D01*
X002252Y029889D01*
X002232Y029845D01*
X002210Y029802D01*
X002184Y029761D01*
X002154Y029723D01*
X002122Y029687D01*
X002087Y029654D01*
X002049Y029624D01*
X002009Y029597D01*
X001967Y029574D01*
X001923Y029554D01*
X001878Y029537D01*
X001832Y029525D01*
X001784Y029516D01*
X001736Y029511D01*
X001688Y029510D01*
X001640Y029513D01*
X001592Y029520D01*
X001545Y029531D01*
X001499Y029545D01*
X001454Y029563D01*
X001411Y029585D01*
X001370Y029610D01*
X001332Y029639D01*
X001295Y029671D01*
X001261Y029705D01*
X001231Y029742D01*
X001203Y029781D01*
X001178Y029823D01*
X001158Y029867D01*
X001140Y029912D01*
X001127Y029958D01*
X001117Y030005D01*
X001111Y030053D01*
X001109Y030101D01*
X002212Y001597D02*
X002214Y001647D01*
X002220Y001697D01*
X002230Y001746D01*
X002244Y001794D01*
X002261Y001841D01*
X002282Y001886D01*
X002307Y001930D01*
X002335Y001971D01*
X002367Y002010D01*
X002401Y002047D01*
X002438Y002081D01*
X002478Y002111D01*
X002520Y002138D01*
X002564Y002162D01*
X002610Y002183D01*
X002657Y002199D01*
X002705Y002212D01*
X002755Y002221D01*
X002804Y002226D01*
X002855Y002227D01*
X002905Y002224D01*
X002954Y002217D01*
X003003Y002206D01*
X003051Y002191D01*
X003097Y002173D01*
X003142Y002151D01*
X003185Y002125D01*
X003226Y002096D01*
X003265Y002064D01*
X003301Y002029D01*
X003333Y001991D01*
X003363Y001951D01*
X003390Y001908D01*
X003413Y001864D01*
X003432Y001818D01*
X003448Y001770D01*
X003460Y001721D01*
X003468Y001672D01*
X003472Y001622D01*
X003472Y001572D01*
X003468Y001522D01*
X003460Y001473D01*
X003448Y001424D01*
X003432Y001376D01*
X003413Y001330D01*
X003390Y001286D01*
X003363Y001243D01*
X003333Y001203D01*
X003301Y001165D01*
X003265Y001130D01*
X003226Y001098D01*
X003185Y001069D01*
X003142Y001043D01*
X003097Y001021D01*
X003051Y001003D01*
X003003Y000988D01*
X002954Y000977D01*
X002905Y000970D01*
X002855Y000967D01*
X002804Y000968D01*
X002755Y000973D01*
X002705Y000982D01*
X002657Y000995D01*
X002610Y001011D01*
X002564Y001032D01*
X002520Y001056D01*
X002478Y001083D01*
X002438Y001113D01*
X002401Y001147D01*
X002367Y001184D01*
X002335Y001223D01*
X002307Y001264D01*
X002282Y001308D01*
X002261Y001353D01*
X002244Y001400D01*
X002230Y001448D01*
X002220Y001497D01*
X002214Y001547D01*
X002212Y001597D01*
X020322Y001597D02*
X020324Y001647D01*
X020330Y001697D01*
X020340Y001746D01*
X020354Y001794D01*
X020371Y001841D01*
X020392Y001886D01*
X020417Y001930D01*
X020445Y001971D01*
X020477Y002010D01*
X020511Y002047D01*
X020548Y002081D01*
X020588Y002111D01*
X020630Y002138D01*
X020674Y002162D01*
X020720Y002183D01*
X020767Y002199D01*
X020815Y002212D01*
X020865Y002221D01*
X020914Y002226D01*
X020965Y002227D01*
X021015Y002224D01*
X021064Y002217D01*
X021113Y002206D01*
X021161Y002191D01*
X021207Y002173D01*
X021252Y002151D01*
X021295Y002125D01*
X021336Y002096D01*
X021375Y002064D01*
X021411Y002029D01*
X021443Y001991D01*
X021473Y001951D01*
X021500Y001908D01*
X021523Y001864D01*
X021542Y001818D01*
X021558Y001770D01*
X021570Y001721D01*
X021578Y001672D01*
X021582Y001622D01*
X021582Y001572D01*
X021578Y001522D01*
X021570Y001473D01*
X021558Y001424D01*
X021542Y001376D01*
X021523Y001330D01*
X021500Y001286D01*
X021473Y001243D01*
X021443Y001203D01*
X021411Y001165D01*
X021375Y001130D01*
X021336Y001098D01*
X021295Y001069D01*
X021252Y001043D01*
X021207Y001021D01*
X021161Y001003D01*
X021113Y000988D01*
X021064Y000977D01*
X021015Y000970D01*
X020965Y000967D01*
X020914Y000968D01*
X020865Y000973D01*
X020815Y000982D01*
X020767Y000995D01*
X020720Y001011D01*
X020674Y001032D01*
X020630Y001056D01*
X020588Y001083D01*
X020548Y001113D01*
X020511Y001147D01*
X020477Y001184D01*
X020445Y001223D01*
X020417Y001264D01*
X020392Y001308D01*
X020371Y001353D01*
X020354Y001400D01*
X020340Y001448D01*
X020330Y001497D01*
X020324Y001547D01*
X020322Y001597D01*
M02*
