G75*
G70*
%OFA0B0*%
%FSLAX24Y24*%
%IPPOS*%
%LPD*%
%AMOC8*
5,1,8,0,0,1.08239X$1,22.5*
%
%ADD10C,0.0160*%
%ADD11C,0.0000*%
%ADD12C,0.0120*%
%ADD13C,0.0050*%
%ADD14C,0.0060*%
D10*
X000519Y000180D02*
X023747Y000180D01*
X023747Y031282D01*
X000519Y031282D01*
X000519Y000180D01*
D11*
X002212Y001597D02*
X002214Y001647D01*
X002220Y001697D01*
X002230Y001746D01*
X002244Y001794D01*
X002261Y001841D01*
X002282Y001886D01*
X002307Y001930D01*
X002335Y001971D01*
X002367Y002010D01*
X002401Y002047D01*
X002438Y002081D01*
X002478Y002111D01*
X002520Y002138D01*
X002564Y002162D01*
X002610Y002183D01*
X002657Y002199D01*
X002705Y002212D01*
X002755Y002221D01*
X002804Y002226D01*
X002855Y002227D01*
X002905Y002224D01*
X002954Y002217D01*
X003003Y002206D01*
X003051Y002191D01*
X003097Y002173D01*
X003142Y002151D01*
X003185Y002125D01*
X003226Y002096D01*
X003265Y002064D01*
X003301Y002029D01*
X003333Y001991D01*
X003363Y001951D01*
X003390Y001908D01*
X003413Y001864D01*
X003432Y001818D01*
X003448Y001770D01*
X003460Y001721D01*
X003468Y001672D01*
X003472Y001622D01*
X003472Y001572D01*
X003468Y001522D01*
X003460Y001473D01*
X003448Y001424D01*
X003432Y001376D01*
X003413Y001330D01*
X003390Y001286D01*
X003363Y001243D01*
X003333Y001203D01*
X003301Y001165D01*
X003265Y001130D01*
X003226Y001098D01*
X003185Y001069D01*
X003142Y001043D01*
X003097Y001021D01*
X003051Y001003D01*
X003003Y000988D01*
X002954Y000977D01*
X002905Y000970D01*
X002855Y000967D01*
X002804Y000968D01*
X002755Y000973D01*
X002705Y000982D01*
X002657Y000995D01*
X002610Y001011D01*
X002564Y001032D01*
X002520Y001056D01*
X002478Y001083D01*
X002438Y001113D01*
X002401Y001147D01*
X002367Y001184D01*
X002335Y001223D01*
X002307Y001264D01*
X002282Y001308D01*
X002261Y001353D01*
X002244Y001400D01*
X002230Y001448D01*
X002220Y001497D01*
X002214Y001547D01*
X002212Y001597D01*
X020322Y001597D02*
X020324Y001647D01*
X020330Y001697D01*
X020340Y001746D01*
X020354Y001794D01*
X020371Y001841D01*
X020392Y001886D01*
X020417Y001930D01*
X020445Y001971D01*
X020477Y002010D01*
X020511Y002047D01*
X020548Y002081D01*
X020588Y002111D01*
X020630Y002138D01*
X020674Y002162D01*
X020720Y002183D01*
X020767Y002199D01*
X020815Y002212D01*
X020865Y002221D01*
X020914Y002226D01*
X020965Y002227D01*
X021015Y002224D01*
X021064Y002217D01*
X021113Y002206D01*
X021161Y002191D01*
X021207Y002173D01*
X021252Y002151D01*
X021295Y002125D01*
X021336Y002096D01*
X021375Y002064D01*
X021411Y002029D01*
X021443Y001991D01*
X021473Y001951D01*
X021500Y001908D01*
X021523Y001864D01*
X021542Y001818D01*
X021558Y001770D01*
X021570Y001721D01*
X021578Y001672D01*
X021582Y001622D01*
X021582Y001572D01*
X021578Y001522D01*
X021570Y001473D01*
X021558Y001424D01*
X021542Y001376D01*
X021523Y001330D01*
X021500Y001286D01*
X021473Y001243D01*
X021443Y001203D01*
X021411Y001165D01*
X021375Y001130D01*
X021336Y001098D01*
X021295Y001069D01*
X021252Y001043D01*
X021207Y001021D01*
X021161Y001003D01*
X021113Y000988D01*
X021064Y000977D01*
X021015Y000970D01*
X020965Y000967D01*
X020914Y000968D01*
X020865Y000973D01*
X020815Y000982D01*
X020767Y000995D01*
X020720Y001011D01*
X020674Y001032D01*
X020630Y001056D01*
X020588Y001083D01*
X020548Y001113D01*
X020511Y001147D01*
X020477Y001184D01*
X020445Y001223D01*
X020417Y001264D01*
X020392Y001308D01*
X020371Y001353D01*
X020354Y001400D01*
X020340Y001448D01*
X020330Y001497D01*
X020324Y001547D01*
X020322Y001597D01*
X020322Y026794D02*
X020324Y026844D01*
X020330Y026894D01*
X020340Y026943D01*
X020354Y026991D01*
X020371Y027038D01*
X020392Y027083D01*
X020417Y027127D01*
X020445Y027168D01*
X020477Y027207D01*
X020511Y027244D01*
X020548Y027278D01*
X020588Y027308D01*
X020630Y027335D01*
X020674Y027359D01*
X020720Y027380D01*
X020767Y027396D01*
X020815Y027409D01*
X020865Y027418D01*
X020914Y027423D01*
X020965Y027424D01*
X021015Y027421D01*
X021064Y027414D01*
X021113Y027403D01*
X021161Y027388D01*
X021207Y027370D01*
X021252Y027348D01*
X021295Y027322D01*
X021336Y027293D01*
X021375Y027261D01*
X021411Y027226D01*
X021443Y027188D01*
X021473Y027148D01*
X021500Y027105D01*
X021523Y027061D01*
X021542Y027015D01*
X021558Y026967D01*
X021570Y026918D01*
X021578Y026869D01*
X021582Y026819D01*
X021582Y026769D01*
X021578Y026719D01*
X021570Y026670D01*
X021558Y026621D01*
X021542Y026573D01*
X021523Y026527D01*
X021500Y026483D01*
X021473Y026440D01*
X021443Y026400D01*
X021411Y026362D01*
X021375Y026327D01*
X021336Y026295D01*
X021295Y026266D01*
X021252Y026240D01*
X021207Y026218D01*
X021161Y026200D01*
X021113Y026185D01*
X021064Y026174D01*
X021015Y026167D01*
X020965Y026164D01*
X020914Y026165D01*
X020865Y026170D01*
X020815Y026179D01*
X020767Y026192D01*
X020720Y026208D01*
X020674Y026229D01*
X020630Y026253D01*
X020588Y026280D01*
X020548Y026310D01*
X020511Y026344D01*
X020477Y026381D01*
X020445Y026420D01*
X020417Y026461D01*
X020392Y026505D01*
X020371Y026550D01*
X020354Y026597D01*
X020340Y026645D01*
X020330Y026694D01*
X020324Y026744D01*
X020322Y026794D01*
X021975Y030101D02*
X021977Y030149D01*
X021983Y030197D01*
X021993Y030244D01*
X022006Y030290D01*
X022024Y030335D01*
X022044Y030379D01*
X022069Y030421D01*
X022097Y030460D01*
X022127Y030497D01*
X022161Y030531D01*
X022198Y030563D01*
X022236Y030592D01*
X022277Y030617D01*
X022320Y030639D01*
X022365Y030657D01*
X022411Y030671D01*
X022458Y030682D01*
X022506Y030689D01*
X022554Y030692D01*
X022602Y030691D01*
X022650Y030686D01*
X022698Y030677D01*
X022744Y030665D01*
X022789Y030648D01*
X022833Y030628D01*
X022875Y030605D01*
X022915Y030578D01*
X022953Y030548D01*
X022988Y030515D01*
X023020Y030479D01*
X023050Y030441D01*
X023076Y030400D01*
X023098Y030357D01*
X023118Y030313D01*
X023133Y030268D01*
X023145Y030221D01*
X023153Y030173D01*
X023157Y030125D01*
X023157Y030077D01*
X023153Y030029D01*
X023145Y029981D01*
X023133Y029934D01*
X023118Y029889D01*
X023098Y029845D01*
X023076Y029802D01*
X023050Y029761D01*
X023020Y029723D01*
X022988Y029687D01*
X022953Y029654D01*
X022915Y029624D01*
X022875Y029597D01*
X022833Y029574D01*
X022789Y029554D01*
X022744Y029537D01*
X022698Y029525D01*
X022650Y029516D01*
X022602Y029511D01*
X022554Y029510D01*
X022506Y029513D01*
X022458Y029520D01*
X022411Y029531D01*
X022365Y029545D01*
X022320Y029563D01*
X022277Y029585D01*
X022236Y029610D01*
X022198Y029639D01*
X022161Y029671D01*
X022127Y029705D01*
X022097Y029742D01*
X022069Y029781D01*
X022044Y029823D01*
X022024Y029867D01*
X022006Y029912D01*
X021993Y029958D01*
X021983Y030005D01*
X021977Y030053D01*
X021975Y030101D01*
X002212Y026794D02*
X002214Y026844D01*
X002220Y026894D01*
X002230Y026943D01*
X002244Y026991D01*
X002261Y027038D01*
X002282Y027083D01*
X002307Y027127D01*
X002335Y027168D01*
X002367Y027207D01*
X002401Y027244D01*
X002438Y027278D01*
X002478Y027308D01*
X002520Y027335D01*
X002564Y027359D01*
X002610Y027380D01*
X002657Y027396D01*
X002705Y027409D01*
X002755Y027418D01*
X002804Y027423D01*
X002855Y027424D01*
X002905Y027421D01*
X002954Y027414D01*
X003003Y027403D01*
X003051Y027388D01*
X003097Y027370D01*
X003142Y027348D01*
X003185Y027322D01*
X003226Y027293D01*
X003265Y027261D01*
X003301Y027226D01*
X003333Y027188D01*
X003363Y027148D01*
X003390Y027105D01*
X003413Y027061D01*
X003432Y027015D01*
X003448Y026967D01*
X003460Y026918D01*
X003468Y026869D01*
X003472Y026819D01*
X003472Y026769D01*
X003468Y026719D01*
X003460Y026670D01*
X003448Y026621D01*
X003432Y026573D01*
X003413Y026527D01*
X003390Y026483D01*
X003363Y026440D01*
X003333Y026400D01*
X003301Y026362D01*
X003265Y026327D01*
X003226Y026295D01*
X003185Y026266D01*
X003142Y026240D01*
X003097Y026218D01*
X003051Y026200D01*
X003003Y026185D01*
X002954Y026174D01*
X002905Y026167D01*
X002855Y026164D01*
X002804Y026165D01*
X002755Y026170D01*
X002705Y026179D01*
X002657Y026192D01*
X002610Y026208D01*
X002564Y026229D01*
X002520Y026253D01*
X002478Y026280D01*
X002438Y026310D01*
X002401Y026344D01*
X002367Y026381D01*
X002335Y026420D01*
X002307Y026461D01*
X002282Y026505D01*
X002261Y026550D01*
X002244Y026597D01*
X002230Y026645D01*
X002220Y026694D01*
X002214Y026744D01*
X002212Y026794D01*
X001109Y030101D02*
X001111Y030149D01*
X001117Y030197D01*
X001127Y030244D01*
X001140Y030290D01*
X001158Y030335D01*
X001178Y030379D01*
X001203Y030421D01*
X001231Y030460D01*
X001261Y030497D01*
X001295Y030531D01*
X001332Y030563D01*
X001370Y030592D01*
X001411Y030617D01*
X001454Y030639D01*
X001499Y030657D01*
X001545Y030671D01*
X001592Y030682D01*
X001640Y030689D01*
X001688Y030692D01*
X001736Y030691D01*
X001784Y030686D01*
X001832Y030677D01*
X001878Y030665D01*
X001923Y030648D01*
X001967Y030628D01*
X002009Y030605D01*
X002049Y030578D01*
X002087Y030548D01*
X002122Y030515D01*
X002154Y030479D01*
X002184Y030441D01*
X002210Y030400D01*
X002232Y030357D01*
X002252Y030313D01*
X002267Y030268D01*
X002279Y030221D01*
X002287Y030173D01*
X002291Y030125D01*
X002291Y030077D01*
X002287Y030029D01*
X002279Y029981D01*
X002267Y029934D01*
X002252Y029889D01*
X002232Y029845D01*
X002210Y029802D01*
X002184Y029761D01*
X002154Y029723D01*
X002122Y029687D01*
X002087Y029654D01*
X002049Y029624D01*
X002009Y029597D01*
X001967Y029574D01*
X001923Y029554D01*
X001878Y029537D01*
X001832Y029525D01*
X001784Y029516D01*
X001736Y029511D01*
X001688Y029510D01*
X001640Y029513D01*
X001592Y029520D01*
X001545Y029531D01*
X001499Y029545D01*
X001454Y029563D01*
X001411Y029585D01*
X001370Y029610D01*
X001332Y029639D01*
X001295Y029671D01*
X001261Y029705D01*
X001231Y029742D01*
X001203Y029781D01*
X001178Y029823D01*
X001158Y029867D01*
X001140Y029912D01*
X001127Y029958D01*
X001117Y030005D01*
X001111Y030053D01*
X001109Y030101D01*
D12*
X009708Y020464D02*
X009708Y019714D01*
X009747Y019712D01*
X009786Y019706D01*
X009824Y019697D01*
X009861Y019684D01*
X009897Y019667D01*
X009930Y019647D01*
X009962Y019623D01*
X009991Y019597D01*
X010017Y019568D01*
X010041Y019536D01*
X010061Y019503D01*
X010078Y019467D01*
X010091Y019430D01*
X010100Y019392D01*
X010106Y019353D01*
X010108Y019314D01*
X010106Y019275D01*
X010100Y019236D01*
X010091Y019198D01*
X010078Y019161D01*
X010061Y019125D01*
X010041Y019092D01*
X010017Y019060D01*
X009991Y019031D01*
X009962Y019005D01*
X009930Y018981D01*
X009897Y018961D01*
X009861Y018944D01*
X009824Y018931D01*
X009786Y018922D01*
X009747Y018916D01*
X009708Y018914D01*
X009708Y018164D01*
X017708Y018164D01*
X017708Y020464D01*
X009708Y020464D01*
D13*
X009533Y020179D02*
X009083Y020179D01*
X009083Y020329D02*
X009083Y020028D01*
X009158Y019868D02*
X009083Y019793D01*
X009083Y019643D01*
X009158Y019568D01*
X009458Y019568D01*
X009533Y019643D01*
X009533Y019793D01*
X009458Y019868D01*
X009383Y020028D02*
X009533Y020179D01*
X009533Y019411D02*
X009533Y019261D01*
X009533Y019336D02*
X009083Y019336D01*
X009083Y019261D02*
X009083Y019411D01*
X005501Y020737D02*
X005426Y020662D01*
X005501Y020737D02*
X005501Y020887D01*
X005426Y020962D01*
X005351Y020962D01*
X005051Y020662D01*
X005051Y020962D01*
X005051Y021122D02*
X005501Y021122D01*
X005051Y021422D01*
X005501Y021422D01*
X005426Y021582D02*
X005501Y021658D01*
X005501Y021808D01*
X005426Y021883D01*
X005351Y021883D01*
X005276Y021808D01*
X005201Y021883D01*
X005126Y021883D01*
X005051Y021808D01*
X005051Y021658D01*
X005126Y021582D01*
X005276Y021733D02*
X005276Y021808D01*
D14*
X003855Y021756D02*
X003855Y021651D01*
X003467Y022158D02*
X003411Y022131D01*
X003357Y022100D01*
X003305Y022066D01*
X003255Y022029D01*
X003255Y022028D02*
X003255Y020379D01*
X003855Y020651D02*
X003855Y020756D01*
X003458Y020253D02*
X003404Y020280D01*
X003353Y020310D01*
X003303Y020343D01*
X003255Y020378D01*
X004352Y020254D02*
X004409Y020283D01*
X004465Y020316D01*
X004518Y020351D01*
X004569Y020391D01*
X004617Y020433D01*
X004663Y020478D01*
X004706Y020525D01*
X004746Y020575D01*
X004783Y020628D01*
X004816Y020683D01*
X004847Y020739D01*
X004873Y020798D01*
X004896Y020858D01*
X004916Y020919D01*
X004931Y020981D01*
X004943Y021044D01*
X004951Y021108D01*
X004955Y021172D01*
X004955Y021236D01*
X004951Y021300D01*
X004943Y021364D01*
X004931Y021427D01*
X004916Y021489D01*
X004896Y021550D01*
X004873Y021610D01*
X004847Y021669D01*
X004816Y021725D01*
X004783Y021780D01*
X004746Y021833D01*
X004706Y021883D01*
X004663Y021930D01*
X004617Y021975D01*
X004569Y022017D01*
X004518Y022057D01*
X004465Y022092D01*
X004409Y022125D01*
X004352Y022154D01*
M02*
