%
M48
M72
T01C0.0236
T02C0.0276
T03C0.0315
T04C0.0320
T05C0.0394
T06C0.0400
T07C0.0512
T08C0.1181
T09C0.1260
%
T01
X5086Y7700
X1661Y16991
X4338Y18448
X4613Y22936
X16897Y22621
X19810Y22975
X19574Y18881
T02
X16228Y27424
X20283Y27778
X11897Y27424
X7566Y27385
X4023Y14408
X4023Y12408
T03
X11598Y8928
X11598Y7928
X11598Y6928
X11598Y5928
X11598Y4928
X11598Y3928
X11598Y2928
X11598Y1928
T04
X10289Y9629
X9489Y9629
X9184Y11908
X8184Y11908
X7184Y11908
X6184Y11908
X6184Y14908
X7184Y14908
X8184Y14908
X9184Y14908
X10184Y14908
X11184Y14908
X12184Y14908
X13184Y14908
X14184Y14908
X15184Y14908
X16184Y14908
X17184Y14908
X18184Y14908
X19184Y14908
X19184Y11908
X18184Y11908
X17184Y11908
X16184Y11908
X15184Y11908
X14184Y11908
X13184Y11908
X12184Y11908
X11184Y11908
X10184Y11908
X10208Y17814
X11208Y17814
X12208Y17814
X13208Y17814
X14208Y17814
X15208Y17814
X16208Y17814
X17208Y17814
X17208Y20814
X16208Y20814
X15208Y20814
X14208Y20814
X13208Y20814
X12208Y20814
X11208Y20814
X10208Y20814
X3905Y21204
X3905Y22204
X3905Y20204
T05
X4702Y30337
X6493Y30337
X9033Y30337
X10824Y30337
X13363Y30337
X15155Y30337
X17694Y30337
X19485Y30337
X20854Y14688
X22625Y14688
X22625Y12129
X20854Y12129
T06
X13234Y10416
X12134Y10416
X7960Y8503
X7960Y7503
X7960Y5385
X7960Y4385
X7960Y3385
X7960Y2385
X2948Y7684
X2948Y8684
X2948Y9684
X1948Y9684
X1948Y8684
X1948Y7684
X2054Y11677
X2054Y12777
X2054Y14433
X2054Y15533
X6172Y17605
X7172Y19605
X8172Y17605
X7999Y23054
X7999Y24054
X8999Y24054
X8999Y23054
X9999Y23054
X9999Y24054
X10999Y24054
X10999Y23054
X11999Y23054
X11999Y24054
X12999Y24054
X12999Y23054
X13999Y23054
X13999Y24054
X14999Y24054
X14999Y23054
X14809Y28369
X13709Y28369
X10478Y28369
X9378Y28369
X6148Y28369
X5048Y28369
X18040Y28369
X19140Y28369
T07
X19968Y29353
X17212Y29353
X15637Y29353
X12881Y29353
X11306Y29353
X8550Y29353
X6976Y29353
X4220Y29353
T08
X1700Y30101
X22566Y30101
T09
X2842Y1597
X20952Y1597
X20952Y26794
X2842Y26794
M30
