G75*
G70*
%OFA0B0*%
%FSLAX24Y24*%
%IPPOS*%
%LPD*%
%AMOC8*
5,1,8,0,0,1.08239X$1,22.5*
%
%ADD10C,0.0160*%
%ADD11C,0.0520*%
%ADD12C,0.0650*%
%ADD13R,0.0630X0.0709*%
%ADD14C,0.0660*%
%ADD15C,0.0768*%
%ADD16OC8,0.0760*%
%ADD17C,0.0800*%
%ADD18C,0.0000*%
%ADD19OC8,0.0740*%
%ADD20R,0.0740X0.0740*%
%ADD21C,0.0740*%
%ADD22OC8,0.0520*%
%ADD23OC8,0.0560*%
%ADD24C,0.0560*%
%ADD25C,0.0600*%
%ADD26R,0.0560X0.0560*%
%ADD27C,0.0120*%
D10*
X000519Y000180D02*
X023747Y000180D01*
X023747Y031282D01*
X000519Y031282D01*
X000519Y000180D01*
X004062Y003999D02*
X007251Y000810D01*
X012763Y000810D01*
X020125Y008172D01*
X020125Y015849D01*
X019180Y014904D01*
X018684Y015477D02*
X018676Y015497D01*
X018513Y015660D01*
X018300Y015748D01*
X018069Y015748D01*
X017856Y015660D01*
X017693Y015497D01*
X017684Y015477D01*
X017676Y015497D01*
X017513Y015660D01*
X017300Y015748D01*
X017069Y015748D01*
X016856Y015660D01*
X016693Y015497D01*
X016684Y015477D01*
X016676Y015497D01*
X016513Y015660D01*
X016300Y015748D01*
X016069Y015748D01*
X015856Y015660D01*
X015693Y015497D01*
X015684Y015477D01*
X015676Y015497D01*
X015513Y015660D01*
X015300Y015748D01*
X015069Y015748D01*
X014856Y015660D01*
X014693Y015497D01*
X014684Y015477D01*
X014676Y015497D01*
X014513Y015660D01*
X014300Y015748D01*
X014069Y015748D01*
X013856Y015660D01*
X013693Y015497D01*
X013684Y015477D01*
X013676Y015497D01*
X013513Y015660D01*
X013300Y015748D01*
X013069Y015748D01*
X012856Y015660D01*
X012693Y015497D01*
X012684Y015477D01*
X012676Y015497D01*
X012513Y015660D01*
X012300Y015748D01*
X012069Y015748D01*
X011856Y015660D01*
X011693Y015497D01*
X011684Y015477D01*
X011676Y015497D01*
X011513Y015660D01*
X011300Y015748D01*
X011069Y015748D01*
X010856Y015660D01*
X010693Y015497D01*
X010684Y015477D01*
X010676Y015497D01*
X010513Y015660D01*
X010300Y015748D01*
X010069Y015748D01*
X009856Y015660D01*
X009693Y015497D01*
X009684Y015477D01*
X009676Y015497D01*
X009513Y015660D01*
X009300Y015748D01*
X009069Y015748D01*
X008856Y015660D01*
X008693Y015497D01*
X008684Y015477D01*
X008676Y015497D01*
X008513Y015660D01*
X008300Y015748D01*
X008069Y015748D01*
X007856Y015660D01*
X007693Y015497D01*
X007684Y015477D01*
X007676Y015497D01*
X007513Y015660D01*
X007300Y015748D01*
X007069Y015748D01*
X006856Y015660D01*
X006693Y015497D01*
X006684Y015477D01*
X006676Y015497D01*
X006513Y015660D01*
X006300Y015748D01*
X006069Y015748D01*
X005856Y015660D01*
X005693Y015497D01*
X005604Y015284D01*
X005604Y014533D01*
X005693Y014320D01*
X005856Y014157D01*
X006069Y014068D01*
X006300Y014068D01*
X006338Y014084D01*
X005416Y013162D01*
X005355Y013015D01*
X005355Y011911D01*
X005416Y011764D01*
X005529Y011652D01*
X005604Y011576D01*
X005604Y011533D01*
X005693Y011320D01*
X005856Y011157D01*
X006069Y011068D01*
X006300Y011068D01*
X006513Y011157D01*
X006676Y011320D01*
X006684Y011340D01*
X006693Y011320D01*
X006856Y011157D01*
X007069Y011068D01*
X007248Y011068D01*
X007212Y011032D01*
X002379Y011032D01*
X002462Y011067D01*
X002665Y011269D01*
X002774Y011534D01*
X002774Y011820D01*
X002665Y012085D01*
X002523Y012227D01*
X002665Y012369D01*
X002774Y012634D01*
X002774Y012920D01*
X002665Y013185D01*
X002462Y013388D01*
X002198Y013497D01*
X001911Y013497D01*
X001646Y013388D01*
X001444Y013185D01*
X001334Y012920D01*
X001334Y012634D01*
X001444Y012369D01*
X001586Y012227D01*
X001444Y012085D01*
X001334Y011820D01*
X001334Y011534D01*
X001444Y011269D01*
X001646Y011067D01*
X001730Y011032D01*
X001506Y011032D01*
X001367Y010975D01*
X001260Y010868D01*
X000913Y010521D01*
X000913Y028626D01*
X001326Y028463D01*
X001826Y028426D01*
X002314Y028537D01*
X002747Y028788D01*
X002747Y028788D01*
X003088Y029155D01*
X003305Y029606D01*
X003380Y030101D01*
X003305Y030596D01*
X003165Y030889D01*
X004334Y030889D01*
X004334Y030889D01*
X004151Y030706D01*
X004052Y030467D01*
X004052Y030208D01*
X004115Y030057D01*
X004080Y030057D01*
X003821Y029950D01*
X003623Y029752D01*
X003516Y029493D01*
X003516Y029213D01*
X003623Y028955D01*
X003821Y028757D01*
X004080Y028649D01*
X004360Y028649D01*
X004390Y028662D01*
X004328Y028512D01*
X004328Y028226D01*
X004437Y027961D01*
X004575Y027824D01*
X004550Y027813D01*
X004460Y027723D01*
X004411Y027606D01*
X004411Y026770D01*
X004460Y026652D01*
X004550Y026562D01*
X004668Y026514D01*
X005425Y026514D01*
X005543Y026562D01*
X005598Y026617D01*
X005653Y026562D01*
X005770Y026514D01*
X006527Y026514D01*
X006645Y026562D01*
X006735Y026652D01*
X006784Y026770D01*
X006784Y026788D01*
X007215Y026788D01*
X007222Y026785D01*
X007910Y026785D01*
X008027Y026833D01*
X008117Y026923D01*
X008166Y027041D01*
X008166Y027728D01*
X008117Y027846D01*
X008027Y027936D01*
X007910Y027985D01*
X007222Y027985D01*
X007105Y027936D01*
X007015Y027846D01*
X006966Y027728D01*
X006966Y027588D01*
X006784Y027588D01*
X006784Y027606D01*
X006735Y027723D01*
X006645Y027813D01*
X006621Y027824D01*
X006758Y027961D01*
X006868Y028226D01*
X006868Y028512D01*
X006806Y028662D01*
X006836Y028649D01*
X007116Y028649D01*
X007374Y028757D01*
X007572Y028955D01*
X007679Y029213D01*
X007679Y029493D01*
X007572Y029752D01*
X007374Y029950D01*
X007116Y030057D01*
X007081Y030057D01*
X007143Y030208D01*
X007143Y030467D01*
X007044Y030706D01*
X006862Y030889D01*
X006861Y030889D01*
X008665Y030889D01*
X008664Y030889D01*
X008482Y030706D01*
X008383Y030467D01*
X008383Y030208D01*
X008445Y030057D01*
X008410Y030057D01*
X008152Y029950D01*
X007954Y029752D01*
X007847Y029493D01*
X007847Y029213D01*
X007954Y028955D01*
X008152Y028757D01*
X008410Y028649D01*
X008690Y028649D01*
X008720Y028662D01*
X008658Y028512D01*
X008658Y028226D01*
X008768Y027961D01*
X008970Y027759D01*
X008153Y027759D01*
X008166Y027601D02*
X008891Y027601D01*
X008894Y027612D02*
X008882Y027566D01*
X008882Y027265D01*
X009300Y027265D01*
X009300Y027110D01*
X009455Y027110D01*
X009455Y026654D01*
X009716Y026654D01*
X009762Y026666D01*
X009803Y026690D01*
X009836Y026723D01*
X009852Y026751D01*
X009893Y026652D01*
X009983Y026562D01*
X010101Y026514D01*
X010858Y026514D01*
X010976Y026562D01*
X011066Y026652D01*
X011114Y026770D01*
X011114Y026788D01*
X011740Y026788D01*
X011828Y026824D01*
X012241Y026824D01*
X012358Y026873D01*
X012448Y026963D01*
X012497Y027080D01*
X012497Y027768D01*
X012448Y027885D01*
X012358Y027975D01*
X012241Y028024D01*
X011553Y028024D01*
X011436Y027975D01*
X011346Y027885D01*
X011297Y027768D01*
X011297Y027588D01*
X011114Y027588D01*
X011114Y027606D01*
X011066Y027723D01*
X010976Y027813D01*
X010951Y027824D01*
X011089Y027961D01*
X011198Y028226D01*
X011198Y028512D01*
X011136Y028662D01*
X011166Y028649D01*
X011446Y028649D01*
X011705Y028757D01*
X011903Y028955D01*
X012010Y029213D01*
X012010Y029493D01*
X011903Y029752D01*
X011705Y029950D01*
X011446Y030057D01*
X011411Y030057D01*
X011474Y030208D01*
X011474Y030467D01*
X011375Y030706D01*
X011192Y030889D01*
X012996Y030889D01*
X012995Y030889D01*
X012812Y030706D01*
X012713Y030467D01*
X012713Y030208D01*
X012776Y030057D01*
X012741Y030057D01*
X012482Y029950D01*
X012284Y029752D01*
X012177Y029493D01*
X012177Y029213D01*
X012284Y028955D01*
X012482Y028757D01*
X012741Y028649D01*
X013021Y028649D01*
X013051Y028662D01*
X012989Y028512D01*
X012989Y028226D01*
X013099Y027961D01*
X013301Y027759D01*
X012497Y027759D01*
X012497Y027601D02*
X013222Y027601D01*
X013225Y027612D02*
X013213Y027566D01*
X013213Y027265D01*
X013630Y027265D01*
X013630Y027110D01*
X013785Y027110D01*
X013785Y026654D01*
X014047Y026654D01*
X014092Y026666D01*
X014133Y026690D01*
X014167Y026723D01*
X014183Y026751D01*
X014224Y026652D01*
X014314Y026562D01*
X014432Y026514D01*
X015189Y026514D01*
X015306Y026562D01*
X015396Y026652D01*
X015445Y026770D01*
X015445Y026827D01*
X015876Y026827D01*
X015884Y026824D01*
X016571Y026824D01*
X016689Y026873D01*
X016779Y026963D01*
X016828Y027080D01*
X016828Y027768D01*
X016779Y027885D01*
X016689Y027975D01*
X016571Y028024D01*
X015884Y028024D01*
X015766Y027975D01*
X015676Y027885D01*
X015628Y027768D01*
X015628Y027627D01*
X015436Y027627D01*
X015396Y027723D01*
X015306Y027813D01*
X015282Y027824D01*
X015419Y027961D01*
X015529Y028226D01*
X015529Y028512D01*
X015467Y028662D01*
X015497Y028649D01*
X015777Y028649D01*
X016036Y028757D01*
X016234Y028955D01*
X016341Y029213D01*
X016341Y029493D01*
X016234Y029752D01*
X016036Y029950D01*
X015777Y030057D01*
X015742Y030057D01*
X015805Y030208D01*
X015805Y030467D01*
X015706Y030706D01*
X015523Y030889D01*
X015523Y030889D01*
X017326Y030889D01*
X017326Y030889D01*
X017143Y030706D01*
X017044Y030467D01*
X017044Y030208D01*
X017107Y030057D01*
X017072Y030057D01*
X016813Y029950D01*
X016615Y029752D01*
X016508Y029493D01*
X016508Y029213D01*
X016615Y028955D01*
X016813Y028757D01*
X017072Y028649D01*
X017352Y028649D01*
X017382Y028662D01*
X017320Y028512D01*
X017320Y028226D01*
X017429Y027961D01*
X017567Y027824D01*
X017542Y027813D01*
X017452Y027723D01*
X017404Y027606D01*
X017404Y026770D01*
X017452Y026652D01*
X017542Y026562D01*
X017660Y026514D01*
X018417Y026514D01*
X018535Y026562D01*
X018590Y026617D01*
X018645Y026562D01*
X018762Y026514D01*
X019520Y026514D01*
X019637Y026562D01*
X019727Y026652D01*
X019776Y026770D01*
X019776Y026827D01*
X019811Y026827D01*
X019958Y026888D01*
X020225Y027155D01*
X020142Y026955D01*
X020142Y026633D01*
X020265Y026335D01*
X020493Y026108D01*
X020791Y025984D01*
X021113Y025984D01*
X021411Y026108D01*
X021639Y026335D01*
X021762Y026633D01*
X021762Y026955D01*
X021639Y027253D01*
X021411Y027481D01*
X021113Y027604D01*
X020883Y027604D01*
X020883Y028122D01*
X020834Y028240D01*
X020744Y028330D01*
X020626Y028378D01*
X019939Y028378D01*
X019860Y028346D01*
X019860Y028512D01*
X019798Y028662D01*
X019828Y028649D01*
X020108Y028649D01*
X020366Y028757D01*
X020564Y028955D01*
X020672Y029213D01*
X020672Y029493D01*
X020564Y029752D01*
X020366Y029950D01*
X020108Y030057D01*
X020073Y030057D01*
X020135Y030208D01*
X020135Y030467D01*
X020036Y030706D01*
X019854Y030889D01*
X019853Y030889D01*
X021092Y030889D01*
X021053Y030830D01*
X020905Y030352D01*
X020905Y029851D01*
X021053Y029372D01*
X021335Y028959D01*
X021726Y028646D01*
X021726Y028646D01*
X022192Y028463D01*
X022192Y028463D01*
X022692Y028426D01*
X023180Y028537D01*
X023354Y028638D01*
X023354Y018799D01*
X023236Y018848D01*
X022926Y018848D01*
X022926Y018905D01*
X022877Y019023D01*
X022787Y019113D01*
X022751Y019127D01*
X022773Y019166D01*
X022786Y019211D01*
X022786Y019512D01*
X022368Y019512D01*
X022368Y019667D01*
X022213Y019667D01*
X022213Y020124D01*
X021952Y020124D01*
X021906Y020112D01*
X021865Y020088D01*
X021832Y020054D01*
X021815Y020026D01*
X021774Y020125D01*
X021684Y020215D01*
X021567Y020264D01*
X020810Y020264D01*
X020692Y020215D01*
X020602Y020125D01*
X020553Y020007D01*
X020553Y019171D01*
X020602Y019054D01*
X020618Y019038D01*
X020602Y019023D01*
X020553Y018905D01*
X020553Y018069D01*
X020602Y017951D01*
X020690Y017863D01*
X020645Y017863D01*
X020107Y018401D01*
X020125Y018420D01*
X020174Y018537D01*
X020174Y019224D01*
X020125Y019342D01*
X020035Y019432D01*
X019918Y019481D01*
X019230Y019481D01*
X019113Y019432D01*
X019023Y019342D01*
X018997Y019281D01*
X016384Y019281D01*
X016237Y019220D01*
X015962Y018944D01*
X015849Y018832D01*
X015788Y018685D01*
X015788Y018474D01*
X015716Y018402D01*
X015708Y018382D01*
X015700Y018402D01*
X015536Y018566D01*
X015323Y018654D01*
X015093Y018654D01*
X014879Y018566D01*
X014716Y018402D01*
X014708Y018382D01*
X014700Y018402D01*
X014536Y018566D01*
X014323Y018654D01*
X014093Y018654D01*
X013879Y018566D01*
X013716Y018402D01*
X013708Y018382D01*
X013700Y018402D01*
X013536Y018566D01*
X013323Y018654D01*
X013093Y018654D01*
X012879Y018566D01*
X012716Y018402D01*
X012708Y018382D01*
X012700Y018402D01*
X012536Y018566D01*
X012323Y018654D01*
X012093Y018654D01*
X011879Y018566D01*
X011716Y018402D01*
X011708Y018382D01*
X011700Y018402D01*
X011536Y018566D01*
X011323Y018654D01*
X011093Y018654D01*
X010879Y018566D01*
X010716Y018402D01*
X010708Y018382D01*
X010700Y018402D01*
X010536Y018566D01*
X010323Y018654D01*
X010093Y018654D01*
X009879Y018566D01*
X009716Y018402D01*
X009628Y018189D01*
X009628Y017438D01*
X009664Y017352D01*
X008983Y017352D01*
X008836Y017291D01*
X008792Y017248D01*
X008792Y018029D01*
X008698Y018256D01*
X008524Y018431D01*
X008296Y018525D01*
X008049Y018525D01*
X007821Y018431D01*
X007647Y018256D01*
X007552Y018029D01*
X007552Y017182D01*
X007647Y016954D01*
X007761Y016840D01*
X006944Y016840D01*
X006737Y017047D01*
X006792Y017182D01*
X006792Y018029D01*
X006698Y018256D01*
X006524Y018431D01*
X006296Y018525D01*
X006049Y018525D01*
X005821Y018431D01*
X005647Y018256D01*
X005552Y018029D01*
X005552Y017182D01*
X005617Y017025D01*
X004762Y017881D01*
X004799Y017896D01*
X004889Y017986D01*
X004938Y018104D01*
X004938Y018791D01*
X004889Y018909D01*
X004799Y018999D01*
X004681Y019048D01*
X003994Y019048D01*
X003877Y018999D01*
X003787Y018909D01*
X003738Y018791D01*
X003738Y018104D01*
X003787Y017986D01*
X003877Y017896D01*
X003938Y017871D01*
X003938Y017659D01*
X003999Y017512D01*
X004111Y017400D01*
X005410Y016101D01*
X005557Y016040D01*
X008630Y016040D01*
X008777Y016101D01*
X008889Y016213D01*
X009228Y016552D01*
X015953Y016552D01*
X016100Y016613D01*
X016212Y016725D01*
X016527Y017040D01*
X016536Y017062D01*
X016700Y017225D01*
X016708Y017245D01*
X016716Y017225D01*
X016879Y017062D01*
X017093Y016974D01*
X017323Y016974D01*
X017536Y017062D01*
X017700Y017225D01*
X017788Y017438D01*
X017788Y018189D01*
X017700Y018402D01*
X017621Y018481D01*
X018997Y018481D01*
X019023Y018420D01*
X019113Y018330D01*
X019213Y018288D01*
X019213Y018250D01*
X019274Y018103D01*
X020140Y017237D01*
X020140Y017237D01*
X020253Y017124D01*
X020400Y017063D01*
X020589Y017063D01*
X020553Y016976D01*
X020553Y016843D01*
X019899Y016188D01*
X019786Y016076D01*
X019412Y015702D01*
X019300Y015748D01*
X019069Y015748D01*
X018856Y015660D01*
X018693Y015497D01*
X018684Y015477D01*
X018618Y015555D02*
X018750Y015555D01*
X018984Y015713D02*
X018385Y015713D01*
X017984Y015713D02*
X017385Y015713D01*
X017618Y015555D02*
X017750Y015555D01*
X016984Y015713D02*
X016385Y015713D01*
X016618Y015555D02*
X016750Y015555D01*
X015984Y015713D02*
X015385Y015713D01*
X015618Y015555D02*
X015750Y015555D01*
X014984Y015713D02*
X014385Y015713D01*
X014618Y015555D02*
X014750Y015555D01*
X013984Y015713D02*
X013385Y015713D01*
X013618Y015555D02*
X013750Y015555D01*
X012984Y015713D02*
X012385Y015713D01*
X012172Y015731D02*
X011857Y016046D01*
X004810Y016046D01*
X003275Y017582D01*
X002251Y017582D01*
X001661Y016991D01*
X001911Y016253D02*
X001646Y016144D01*
X001444Y015941D01*
X001334Y015676D01*
X001334Y015390D01*
X001444Y015125D01*
X001586Y014983D01*
X001444Y014841D01*
X001334Y014576D01*
X001334Y014290D01*
X001444Y014025D01*
X001646Y013823D01*
X001911Y013713D01*
X002198Y013713D01*
X002462Y013823D01*
X002665Y014025D01*
X002774Y014290D01*
X002774Y014576D01*
X002665Y014841D01*
X002523Y014983D01*
X002665Y015125D01*
X002774Y015390D01*
X002774Y015676D01*
X002665Y015941D01*
X002462Y016144D01*
X002198Y016253D01*
X001911Y016253D01*
X001755Y016189D02*
X000913Y016189D01*
X000913Y016347D02*
X005164Y016347D01*
X005006Y016506D02*
X000913Y016506D01*
X000913Y016664D02*
X004847Y016664D01*
X004689Y016823D02*
X000913Y016823D01*
X000913Y016981D02*
X004530Y016981D01*
X004372Y017140D02*
X000913Y017140D01*
X000913Y017298D02*
X004213Y017298D01*
X004055Y017457D02*
X000913Y017457D01*
X000913Y017615D02*
X003956Y017615D01*
X003938Y017774D02*
X000913Y017774D01*
X000913Y017932D02*
X003841Y017932D01*
X003743Y018091D02*
X000913Y018091D01*
X000913Y018249D02*
X003738Y018249D01*
X003738Y018408D02*
X000913Y018408D01*
X000913Y018566D02*
X003738Y018566D01*
X003738Y018725D02*
X000913Y018725D01*
X000913Y018883D02*
X003776Y018883D01*
X003979Y019042D02*
X000913Y019042D01*
X000913Y019200D02*
X006401Y019200D01*
X006347Y019254D02*
X006521Y019080D01*
X006749Y018985D01*
X007596Y018985D01*
X007824Y019080D01*
X007998Y019254D01*
X008092Y019482D01*
X008092Y019729D01*
X007998Y019956D01*
X007824Y020131D01*
X007596Y020225D01*
X006749Y020225D01*
X006521Y020131D01*
X006347Y019956D01*
X006252Y019729D01*
X006252Y019482D01*
X006347Y019254D01*
X006304Y019359D02*
X000913Y019359D01*
X000913Y019517D02*
X006252Y019517D01*
X006252Y019676D02*
X004197Y019676D01*
X004145Y019624D02*
X004485Y019963D01*
X004485Y020444D01*
X004225Y020704D01*
X004325Y020804D01*
X008188Y020804D01*
X008324Y020668D01*
X009511Y019481D01*
X009623Y019368D01*
X009770Y019308D01*
X013787Y019308D01*
X013934Y019368D01*
X014446Y019880D01*
X014559Y019993D01*
X014620Y020140D01*
X014620Y020145D01*
X014700Y020225D01*
X014708Y020245D01*
X014716Y020225D01*
X014879Y020062D01*
X015093Y019974D01*
X015323Y019974D01*
X015536Y020062D01*
X015700Y020225D01*
X015708Y020245D01*
X015716Y020225D01*
X015879Y020062D01*
X016093Y019974D01*
X016323Y019974D01*
X016536Y020062D01*
X016700Y020225D01*
X016708Y020245D01*
X016716Y020225D01*
X016879Y020062D01*
X017093Y019974D01*
X017323Y019974D01*
X017536Y020062D01*
X017700Y020225D01*
X017788Y020438D01*
X017788Y021189D01*
X017700Y021402D01*
X017536Y021566D01*
X017323Y021654D01*
X017093Y021654D01*
X016879Y021566D01*
X016716Y021402D01*
X016708Y021382D01*
X016700Y021402D01*
X016588Y021514D01*
X016588Y022021D01*
X017241Y022021D01*
X017358Y022070D01*
X017448Y022160D01*
X017497Y022277D01*
X017497Y022654D01*
X019210Y022654D01*
X019210Y022632D01*
X019259Y022514D01*
X019349Y022424D01*
X019467Y022375D01*
X020154Y022375D01*
X020272Y022424D01*
X020362Y022514D01*
X020410Y022632D01*
X020410Y023319D01*
X020362Y023437D01*
X020289Y023509D01*
X020289Y024275D01*
X020228Y024422D01*
X018968Y025682D01*
X018856Y025795D01*
X018709Y025856D01*
X007644Y025856D01*
X007497Y025795D01*
X007261Y025558D01*
X007148Y025446D01*
X007087Y025299D01*
X007087Y024431D01*
X007148Y024284D01*
X007261Y024172D01*
X007309Y024123D01*
X007309Y023768D01*
X007622Y023455D01*
X007449Y023282D01*
X007449Y023074D01*
X007979Y023074D01*
X007979Y023034D01*
X007449Y023034D01*
X007449Y022826D01*
X007771Y022504D01*
X007979Y022504D01*
X007979Y023034D01*
X008019Y023034D01*
X008019Y022504D01*
X008227Y022504D01*
X008400Y022677D01*
X008713Y022364D01*
X009285Y022364D01*
X009499Y022578D01*
X009713Y022364D01*
X010285Y022364D01*
X010499Y022578D01*
X010713Y022364D01*
X011285Y022364D01*
X011499Y022578D01*
X011713Y022364D01*
X012285Y022364D01*
X012499Y022578D01*
X012713Y022364D01*
X013285Y022364D01*
X013499Y022578D01*
X013713Y022364D01*
X014285Y022364D01*
X014499Y022578D01*
X014713Y022364D01*
X015285Y022364D01*
X015689Y022768D01*
X015689Y023340D01*
X015475Y023554D01*
X015689Y023768D01*
X015689Y024050D01*
X015788Y023951D01*
X015788Y021474D01*
X015716Y021402D01*
X015708Y021382D01*
X015700Y021402D01*
X015536Y021566D01*
X015323Y021654D01*
X015093Y021654D01*
X014879Y021566D01*
X014716Y021402D01*
X014708Y021382D01*
X014700Y021402D01*
X014536Y021566D01*
X014323Y021654D01*
X014093Y021654D01*
X013879Y021566D01*
X013716Y021402D01*
X013708Y021382D01*
X013700Y021402D01*
X013536Y021566D01*
X013323Y021654D01*
X013093Y021654D01*
X012879Y021566D01*
X012716Y021402D01*
X012708Y021382D01*
X012700Y021402D01*
X012536Y021566D01*
X012323Y021654D01*
X012093Y021654D01*
X011879Y021566D01*
X011716Y021402D01*
X011708Y021382D01*
X011700Y021402D01*
X011536Y021566D01*
X011323Y021654D01*
X011093Y021654D01*
X010879Y021566D01*
X010716Y021402D01*
X010708Y021382D01*
X010700Y021402D01*
X010536Y021566D01*
X010323Y021654D01*
X010093Y021654D01*
X009879Y021566D01*
X009716Y021402D01*
X009628Y021189D01*
X009628Y020495D01*
X008889Y021233D01*
X008580Y021543D01*
X008433Y021604D01*
X004325Y021604D01*
X004225Y021704D01*
X004485Y021963D01*
X004485Y022242D01*
X004579Y022336D01*
X004957Y022336D01*
X005075Y022385D01*
X005165Y022475D01*
X005213Y022592D01*
X005213Y023280D01*
X005165Y023397D01*
X005075Y023487D01*
X004957Y023536D01*
X004270Y023536D01*
X004152Y023487D01*
X004062Y023397D01*
X004013Y023280D01*
X004013Y022902D01*
X003895Y022784D01*
X003664Y022784D01*
X003325Y022444D01*
X003325Y021963D01*
X003584Y021704D01*
X003325Y021444D01*
X003325Y020963D01*
X003584Y020704D01*
X003325Y020444D01*
X003325Y019963D01*
X003664Y019624D01*
X004145Y019624D01*
X004355Y019834D02*
X006296Y019834D01*
X006383Y019993D02*
X004485Y019993D01*
X004485Y020151D02*
X006570Y020151D01*
X006613Y019042D02*
X004696Y019042D01*
X004900Y018883D02*
X015900Y018883D01*
X015805Y018725D02*
X004938Y018725D01*
X004938Y018566D02*
X009880Y018566D01*
X009721Y018408D02*
X008547Y018408D01*
X008701Y018249D02*
X009653Y018249D01*
X009628Y018091D02*
X008767Y018091D01*
X008792Y017932D02*
X009628Y017932D01*
X009628Y017774D02*
X008792Y017774D01*
X008792Y017615D02*
X009628Y017615D01*
X009628Y017457D02*
X008792Y017457D01*
X008792Y017298D02*
X008853Y017298D01*
X009062Y016952D02*
X008550Y016440D01*
X006779Y016440D01*
X006188Y017030D01*
X006188Y017621D01*
X005552Y017615D02*
X005028Y017615D01*
X005186Y017457D02*
X005552Y017457D01*
X005552Y017298D02*
X005345Y017298D01*
X005503Y017140D02*
X005570Y017140D01*
X005552Y017774D02*
X004869Y017774D01*
X004835Y017932D02*
X005552Y017932D01*
X005578Y018091D02*
X004932Y018091D01*
X004938Y018249D02*
X005644Y018249D01*
X005798Y018408D02*
X004938Y018408D01*
X004338Y018448D02*
X004338Y017739D01*
X005637Y016440D01*
X006779Y016440D01*
X006803Y016981D02*
X007636Y016981D01*
X007570Y017140D02*
X006775Y017140D01*
X006792Y017298D02*
X007552Y017298D01*
X007552Y017457D02*
X006792Y017457D01*
X006792Y017615D02*
X007552Y017615D01*
X007552Y017774D02*
X006792Y017774D01*
X006792Y017932D02*
X007552Y017932D01*
X007578Y018091D02*
X006767Y018091D01*
X006701Y018249D02*
X007644Y018249D01*
X007798Y018408D02*
X006547Y018408D01*
X007732Y019042D02*
X016059Y019042D01*
X016217Y019200D02*
X007944Y019200D01*
X008041Y019359D02*
X009647Y019359D01*
X009613Y019314D02*
X008590Y019314D01*
X008196Y018920D01*
X008196Y017582D01*
X009062Y016952D02*
X010361Y016952D01*
X015873Y016952D01*
X016188Y017267D01*
X016188Y017778D01*
X016188Y017818D02*
X016188Y018605D01*
X016464Y018881D01*
X019574Y018881D01*
X019613Y018881D02*
X019613Y018330D01*
X020480Y017463D01*
X023039Y017463D01*
X023393Y017109D01*
X023393Y018211D01*
X023157Y018448D01*
X022251Y018448D01*
X022782Y019200D02*
X023354Y019200D01*
X023354Y019042D02*
X022858Y019042D01*
X022926Y018883D02*
X023354Y018883D01*
X023354Y019359D02*
X022786Y019359D01*
X022786Y019667D02*
X022368Y019667D01*
X022368Y020124D01*
X022629Y020124D01*
X022675Y020112D01*
X022716Y020088D01*
X022750Y020054D01*
X022773Y020013D01*
X022786Y019967D01*
X022786Y019667D01*
X022786Y019676D02*
X023354Y019676D01*
X023354Y019834D02*
X022786Y019834D01*
X022802Y019904D02*
X022487Y019589D01*
X022291Y019589D01*
X022368Y019517D02*
X023354Y019517D01*
X023354Y019993D02*
X022779Y019993D01*
X022802Y019904D02*
X022802Y020377D01*
X020401Y022778D01*
X020401Y024471D01*
X019023Y025849D01*
X006779Y025849D01*
X006543Y025613D01*
X006543Y023408D01*
X006897Y023054D01*
X007999Y023054D01*
X007979Y023004D02*
X008019Y023004D01*
X008019Y022846D02*
X007979Y022846D01*
X007979Y022687D02*
X008019Y022687D01*
X008019Y022529D02*
X007979Y022529D01*
X007747Y022529D02*
X005187Y022529D01*
X005213Y022687D02*
X007588Y022687D01*
X007449Y022846D02*
X005213Y022846D01*
X005213Y023004D02*
X007449Y023004D01*
X007449Y023163D02*
X005213Y023163D01*
X005196Y023321D02*
X007488Y023321D01*
X007598Y023480D02*
X005082Y023480D01*
X004613Y022936D02*
X003905Y022227D01*
X003568Y022687D02*
X000913Y022687D01*
X000913Y022529D02*
X003409Y022529D01*
X003325Y022370D02*
X000913Y022370D01*
X000913Y022212D02*
X003325Y022212D01*
X003325Y022053D02*
X000913Y022053D01*
X000913Y021895D02*
X003394Y021895D01*
X003552Y021736D02*
X000913Y021736D01*
X000913Y021578D02*
X003458Y021578D01*
X003325Y021419D02*
X000913Y021419D01*
X000913Y021261D02*
X003325Y021261D01*
X003325Y021102D02*
X000913Y021102D01*
X000913Y020944D02*
X003345Y020944D01*
X003503Y020785D02*
X000913Y020785D01*
X000913Y020627D02*
X003507Y020627D01*
X003349Y020468D02*
X000913Y020468D01*
X000913Y020310D02*
X003325Y020310D01*
X003325Y020151D02*
X000913Y020151D01*
X000913Y019993D02*
X003325Y019993D01*
X003454Y019834D02*
X000913Y019834D01*
X000913Y019676D02*
X003613Y019676D01*
X003944Y020180D02*
X004850Y020180D01*
X002251Y017582D01*
X002354Y016189D02*
X005323Y016189D01*
X005750Y015555D02*
X002774Y015555D01*
X002759Y015713D02*
X005984Y015713D01*
X006385Y015713D02*
X006984Y015713D01*
X006750Y015555D02*
X006618Y015555D01*
X007385Y015713D02*
X007984Y015713D01*
X007750Y015555D02*
X007618Y015555D01*
X008385Y015713D02*
X008984Y015713D01*
X008750Y015555D02*
X008618Y015555D01*
X008865Y016189D02*
X019899Y016189D01*
X020057Y016347D02*
X009023Y016347D01*
X009182Y016506D02*
X020216Y016506D01*
X020374Y016664D02*
X016151Y016664D01*
X016310Y016823D02*
X020533Y016823D01*
X020555Y016981D02*
X017341Y016981D01*
X017075Y016981D02*
X016468Y016981D01*
X016614Y017140D02*
X016802Y017140D01*
X017614Y017140D02*
X020238Y017140D01*
X020079Y017298D02*
X017730Y017298D01*
X017788Y017457D02*
X019921Y017457D01*
X019762Y017615D02*
X017788Y017615D01*
X017788Y017774D02*
X019604Y017774D01*
X019445Y017932D02*
X017788Y017932D01*
X017788Y018091D02*
X019287Y018091D01*
X019214Y018249D02*
X017763Y018249D01*
X017694Y018408D02*
X019035Y018408D01*
X019039Y019359D02*
X013910Y019359D01*
X013708Y019314D02*
X012842Y018448D01*
X012842Y017621D01*
X012881Y017582D01*
X013157Y017582D01*
X013196Y017621D01*
X013196Y017818D01*
X012721Y018408D02*
X012694Y018408D01*
X012535Y018566D02*
X012880Y018566D01*
X013535Y018566D02*
X013880Y018566D01*
X013721Y018408D02*
X013694Y018408D01*
X014535Y018566D02*
X014880Y018566D01*
X014721Y018408D02*
X014694Y018408D01*
X015535Y018566D02*
X015788Y018566D01*
X015721Y018408D02*
X015694Y018408D01*
X016739Y019314D02*
X013708Y019314D01*
X009613Y019314D01*
X008747Y020180D01*
X004850Y020180D01*
X004485Y020310D02*
X008682Y020310D01*
X008523Y020468D02*
X004461Y020468D01*
X004302Y020627D02*
X008365Y020627D01*
X008206Y020785D02*
X004306Y020785D01*
X003905Y021204D02*
X008354Y021204D01*
X008550Y021007D01*
X009850Y019708D01*
X013708Y019708D01*
X014220Y020219D01*
X014220Y020810D01*
X014683Y021419D02*
X014733Y021419D01*
X014908Y021578D02*
X014508Y021578D01*
X013908Y021578D02*
X013508Y021578D01*
X013683Y021419D02*
X013733Y021419D01*
X013707Y022370D02*
X013291Y022370D01*
X013450Y022529D02*
X013549Y022529D01*
X014291Y022370D02*
X014707Y022370D01*
X014549Y022529D02*
X014450Y022529D01*
X015291Y022370D02*
X015788Y022370D01*
X015788Y022212D02*
X004485Y022212D01*
X004485Y022053D02*
X015788Y022053D01*
X015788Y021895D02*
X004416Y021895D01*
X004257Y021736D02*
X015788Y021736D01*
X015788Y021578D02*
X015508Y021578D01*
X015683Y021419D02*
X015733Y021419D01*
X016188Y020810D02*
X016188Y024117D01*
X015322Y024983D01*
X009653Y024983D01*
X009535Y024865D01*
X009456Y024786D01*
X008983Y024314D01*
X008983Y024038D01*
X007999Y024038D02*
X007960Y024038D01*
X007487Y024511D01*
X007487Y024826D01*
X007487Y024904D01*
X007487Y025219D01*
X007724Y025456D01*
X018629Y025456D01*
X019889Y024196D01*
X019889Y023054D01*
X019810Y022975D01*
X019731Y023054D01*
X017330Y023054D01*
X016897Y022621D01*
X017497Y022529D02*
X019253Y022529D01*
X020289Y023638D02*
X023354Y023638D01*
X023354Y023480D02*
X020319Y023480D01*
X020409Y023321D02*
X023354Y023321D01*
X023354Y023163D02*
X020410Y023163D01*
X020410Y023004D02*
X023354Y023004D01*
X023354Y022846D02*
X020410Y022846D01*
X020401Y022778D02*
X020401Y022503D01*
X018708Y020810D01*
X018235Y020810D01*
X016739Y019314D01*
X017047Y019993D02*
X016368Y019993D01*
X016625Y020151D02*
X016790Y020151D01*
X017212Y020810D02*
X018235Y020810D01*
X017788Y020785D02*
X023354Y020785D01*
X023354Y020627D02*
X017788Y020627D01*
X017788Y020468D02*
X023354Y020468D01*
X023354Y020310D02*
X017734Y020310D01*
X017625Y020151D02*
X020628Y020151D01*
X020553Y019993D02*
X017368Y019993D01*
X017788Y020944D02*
X023354Y020944D01*
X023354Y021102D02*
X017788Y021102D01*
X017758Y021261D02*
X023354Y021261D01*
X023354Y021419D02*
X017683Y021419D01*
X017508Y021578D02*
X023354Y021578D01*
X023354Y021736D02*
X016588Y021736D01*
X016588Y021578D02*
X016908Y021578D01*
X016733Y021419D02*
X016683Y021419D01*
X016588Y021895D02*
X023354Y021895D01*
X023354Y022053D02*
X017318Y022053D01*
X017470Y022212D02*
X023354Y022212D01*
X023354Y022370D02*
X017497Y022370D01*
X018708Y020810D02*
X018747Y020810D01*
X020109Y019359D02*
X020553Y019359D01*
X020553Y019517D02*
X014083Y019517D01*
X014242Y019676D02*
X020553Y019676D01*
X020553Y019834D02*
X014400Y019834D01*
X014559Y019993D02*
X015047Y019993D01*
X014790Y020151D02*
X014625Y020151D01*
X015368Y019993D02*
X016047Y019993D01*
X015790Y020151D02*
X015625Y020151D01*
X015788Y022529D02*
X015450Y022529D01*
X015608Y022687D02*
X015788Y022687D01*
X015788Y022846D02*
X015689Y022846D01*
X015689Y023004D02*
X015788Y023004D01*
X015788Y023163D02*
X015689Y023163D01*
X015689Y023321D02*
X015788Y023321D01*
X015788Y023480D02*
X015549Y023480D01*
X015559Y023638D02*
X015788Y023638D01*
X015788Y023797D02*
X015689Y023797D01*
X015689Y023955D02*
X015784Y023955D01*
X014023Y026243D02*
X013708Y026558D01*
X013708Y027188D01*
X013630Y027125D02*
X012497Y027125D01*
X012497Y027284D02*
X013213Y027284D01*
X013213Y027442D02*
X012497Y027442D01*
X012416Y027918D02*
X013142Y027918D01*
X013051Y028076D02*
X011136Y028076D01*
X011198Y028235D02*
X012989Y028235D01*
X012989Y028393D02*
X011198Y028393D01*
X011182Y028552D02*
X013005Y028552D01*
X012595Y028710D02*
X011593Y028710D01*
X011817Y028869D02*
X012370Y028869D01*
X012254Y029027D02*
X011933Y029027D01*
X011999Y029186D02*
X012189Y029186D01*
X012177Y029344D02*
X012010Y029344D01*
X012006Y029503D02*
X012181Y029503D01*
X012247Y029661D02*
X011941Y029661D01*
X011835Y029820D02*
X012352Y029820D01*
X012550Y029978D02*
X011637Y029978D01*
X011444Y030137D02*
X012743Y030137D01*
X012713Y030295D02*
X011474Y030295D01*
X011474Y030454D02*
X012713Y030454D01*
X012774Y030612D02*
X011414Y030612D01*
X011310Y030771D02*
X012877Y030771D01*
X011192Y030889D02*
X011192Y030889D01*
X011045Y027918D02*
X011378Y027918D01*
X011297Y027759D02*
X011030Y027759D01*
X011114Y027601D02*
X011297Y027601D01*
X011661Y027188D02*
X011897Y027424D01*
X011661Y027188D02*
X010480Y027188D01*
X011063Y026650D02*
X014227Y026650D01*
X014023Y026243D02*
X009653Y026243D01*
X009377Y026519D01*
X009377Y027188D01*
X009300Y027125D02*
X008166Y027125D01*
X008166Y027284D02*
X008882Y027284D01*
X008882Y027442D02*
X008166Y027442D01*
X008046Y027918D02*
X008812Y027918D01*
X008720Y028076D02*
X006806Y028076D01*
X006868Y028235D02*
X008658Y028235D01*
X008658Y028393D02*
X006868Y028393D01*
X006851Y028552D02*
X008675Y028552D01*
X008264Y028710D02*
X007262Y028710D01*
X007486Y028869D02*
X008040Y028869D01*
X007924Y029027D02*
X007602Y029027D01*
X007668Y029186D02*
X007858Y029186D01*
X007847Y029344D02*
X007679Y029344D01*
X007676Y029503D02*
X007850Y029503D01*
X007916Y029661D02*
X007610Y029661D01*
X007505Y029820D02*
X008021Y029820D01*
X008220Y029978D02*
X007306Y029978D01*
X007114Y030137D02*
X008412Y030137D01*
X008383Y030295D02*
X007143Y030295D01*
X007143Y030454D02*
X008383Y030454D01*
X008443Y030612D02*
X007083Y030612D01*
X006979Y030771D02*
X008547Y030771D01*
X008970Y027759D02*
X009058Y027722D01*
X009039Y027722D01*
X008993Y027710D01*
X008952Y027686D01*
X008918Y027653D01*
X008894Y027612D01*
X008882Y027110D02*
X008882Y026810D01*
X008894Y026764D01*
X008918Y026723D01*
X008952Y026690D01*
X008993Y026666D01*
X009039Y026654D01*
X009300Y026654D01*
X009300Y027110D01*
X008882Y027110D01*
X008882Y026967D02*
X008135Y026967D01*
X007966Y026808D02*
X008883Y026808D01*
X009300Y026808D02*
X009455Y026808D01*
X009455Y026967D02*
X009300Y026967D01*
X009896Y026650D02*
X006732Y026650D01*
X006188Y027188D02*
X007369Y027188D01*
X007566Y027385D01*
X006966Y027601D02*
X006784Y027601D01*
X006699Y027759D02*
X006979Y027759D01*
X007086Y027918D02*
X006714Y027918D01*
X005046Y026479D02*
X005283Y026243D01*
X009653Y026243D01*
X007439Y023638D02*
X000913Y023638D01*
X000913Y023480D02*
X004144Y023480D01*
X004031Y023321D02*
X000913Y023321D01*
X000913Y023163D02*
X004013Y023163D01*
X004013Y023004D02*
X000913Y023004D01*
X000913Y022846D02*
X003957Y022846D01*
X005039Y022370D02*
X008707Y022370D01*
X008549Y022529D02*
X008252Y022529D01*
X008496Y021578D02*
X009908Y021578D01*
X009733Y021419D02*
X008704Y021419D01*
X008862Y021261D02*
X009657Y021261D01*
X009628Y021102D02*
X009021Y021102D01*
X009179Y020944D02*
X009628Y020944D01*
X009628Y020785D02*
X009338Y020785D01*
X009496Y020627D02*
X009628Y020627D01*
X008999Y019993D02*
X007962Y019993D01*
X008049Y019834D02*
X009157Y019834D01*
X009316Y019676D02*
X008092Y019676D01*
X008092Y019517D02*
X009474Y019517D01*
X008840Y020151D02*
X007775Y020151D01*
X007409Y021991D02*
X009810Y021991D01*
X009968Y022149D01*
X009968Y023054D01*
X009549Y022529D02*
X009450Y022529D01*
X009291Y022370D02*
X009707Y022370D01*
X010291Y022370D02*
X010707Y022370D01*
X010549Y022529D02*
X010450Y022529D01*
X011291Y022370D02*
X011707Y022370D01*
X011549Y022529D02*
X011450Y022529D01*
X012291Y022370D02*
X012707Y022370D01*
X012549Y022529D02*
X012450Y022529D01*
X012508Y021578D02*
X012908Y021578D01*
X012733Y021419D02*
X012683Y021419D01*
X011908Y021578D02*
X011508Y021578D01*
X011683Y021419D02*
X011733Y021419D01*
X010908Y021578D02*
X010508Y021578D01*
X010683Y021419D02*
X010733Y021419D01*
X010880Y018566D02*
X010535Y018566D01*
X010694Y018408D02*
X010721Y018408D01*
X010204Y017818D02*
X010204Y017109D01*
X010361Y016952D01*
X010385Y015713D02*
X010984Y015713D01*
X010750Y015555D02*
X010618Y015555D01*
X009984Y015713D02*
X009385Y015713D01*
X009618Y015555D02*
X009750Y015555D01*
X011385Y015713D02*
X011984Y015713D01*
X012172Y015731D02*
X012172Y014904D01*
X011750Y015555D02*
X011618Y015555D01*
X012618Y015555D02*
X012750Y015555D01*
X013354Y013763D02*
X014692Y012424D01*
X014692Y010849D01*
X015165Y010377D01*
X015165Y009235D01*
X012842Y006912D01*
X011582Y006912D01*
X006953Y011117D02*
X006416Y011117D01*
X006631Y011275D02*
X006737Y011275D01*
X005953Y011117D02*
X002512Y011117D01*
X002667Y011275D02*
X005737Y011275D01*
X005645Y011434D02*
X002733Y011434D01*
X002774Y011592D02*
X005588Y011592D01*
X005430Y011751D02*
X002774Y011751D01*
X002738Y011909D02*
X003610Y011909D01*
X003657Y011862D02*
X003895Y011763D01*
X004151Y011763D01*
X004388Y011862D01*
X004570Y012043D01*
X004668Y012280D01*
X004668Y012537D01*
X004570Y012774D01*
X004388Y012955D01*
X004151Y013053D01*
X003895Y013053D01*
X003657Y012955D01*
X003476Y012774D01*
X003378Y012537D01*
X003378Y012280D01*
X003476Y012043D01*
X003657Y011862D01*
X003466Y012068D02*
X002672Y012068D01*
X002524Y012226D02*
X003400Y012226D01*
X003378Y012385D02*
X002671Y012385D01*
X002737Y012543D02*
X003380Y012543D01*
X003446Y012702D02*
X002774Y012702D01*
X002774Y012860D02*
X003562Y012860D01*
X003810Y013019D02*
X002734Y013019D01*
X002668Y013177D02*
X005431Y013177D01*
X005356Y013019D02*
X004235Y013019D01*
X004483Y012860D02*
X005355Y012860D01*
X005355Y012702D02*
X004600Y012702D01*
X004665Y012543D02*
X005355Y012543D01*
X005355Y012385D02*
X004668Y012385D01*
X004645Y012226D02*
X005355Y012226D01*
X005355Y012068D02*
X004580Y012068D01*
X004436Y011909D02*
X005356Y011909D01*
X005755Y011991D02*
X005755Y012936D01*
X006582Y013763D01*
X013354Y013763D01*
X011721Y018408D02*
X011694Y018408D01*
X011535Y018566D02*
X011880Y018566D01*
X007409Y021991D02*
X006543Y022857D01*
X006543Y023408D01*
X007160Y024272D02*
X000913Y024272D01*
X000913Y024114D02*
X007309Y024114D01*
X007261Y024172D02*
X007261Y024172D01*
X007309Y023955D02*
X000913Y023955D01*
X000913Y023797D02*
X007309Y023797D01*
X007088Y024431D02*
X000913Y024431D01*
X000913Y024589D02*
X007087Y024589D01*
X007087Y024748D02*
X000913Y024748D01*
X000913Y024906D02*
X007087Y024906D01*
X007087Y025065D02*
X000913Y025065D01*
X000913Y025223D02*
X007087Y025223D01*
X007122Y025382D02*
X000913Y025382D01*
X000913Y025540D02*
X007242Y025540D01*
X007401Y025699D02*
X000913Y025699D01*
X000913Y025857D02*
X023354Y025857D01*
X023354Y025699D02*
X018952Y025699D01*
X018968Y025682D02*
X018968Y025682D01*
X019110Y025540D02*
X023354Y025540D01*
X023354Y025382D02*
X019269Y025382D01*
X019427Y025223D02*
X023354Y025223D01*
X023354Y025065D02*
X019586Y025065D01*
X019744Y024906D02*
X023354Y024906D01*
X023354Y024748D02*
X019903Y024748D01*
X020061Y024589D02*
X023354Y024589D01*
X023354Y024431D02*
X020220Y024431D01*
X020289Y024272D02*
X023354Y024272D01*
X023354Y024114D02*
X020289Y024114D01*
X020289Y023955D02*
X023354Y023955D01*
X023354Y023797D02*
X020289Y023797D01*
X020410Y022687D02*
X023354Y022687D01*
X023354Y022529D02*
X020368Y022529D01*
X021748Y020151D02*
X023354Y020151D01*
X022802Y020377D02*
X022802Y022700D01*
X019259Y026243D01*
X017842Y026243D01*
X014023Y026243D01*
X013630Y026654D02*
X013630Y027110D01*
X013213Y027110D01*
X013213Y026810D01*
X013225Y026764D01*
X013249Y026723D01*
X013282Y026690D01*
X013323Y026666D01*
X013369Y026654D01*
X013630Y026654D01*
X013630Y026808D02*
X013785Y026808D01*
X013785Y026967D02*
X013630Y026967D01*
X013213Y026967D02*
X012450Y026967D01*
X011789Y026808D02*
X013213Y026808D01*
X013225Y027612D02*
X013249Y027653D01*
X013282Y027686D01*
X013323Y027710D01*
X013369Y027722D01*
X013389Y027722D01*
X013301Y027759D01*
X014810Y027227D02*
X016031Y027227D01*
X016228Y027424D01*
X016828Y027442D02*
X017404Y027442D01*
X017404Y027284D02*
X016828Y027284D01*
X016828Y027125D02*
X017404Y027125D01*
X017404Y026967D02*
X016780Y026967D01*
X016828Y027601D02*
X017404Y027601D01*
X017488Y027759D02*
X016828Y027759D01*
X016747Y027918D02*
X017473Y027918D01*
X017382Y028076D02*
X015467Y028076D01*
X015529Y028235D02*
X017320Y028235D01*
X017320Y028393D02*
X015529Y028393D01*
X015513Y028552D02*
X017336Y028552D01*
X016925Y028710D02*
X015923Y028710D01*
X016148Y028869D02*
X016701Y028869D01*
X016585Y029027D02*
X016264Y029027D01*
X016329Y029186D02*
X016519Y029186D01*
X016508Y029344D02*
X016341Y029344D01*
X016337Y029503D02*
X016512Y029503D01*
X016577Y029661D02*
X016271Y029661D01*
X016166Y029820D02*
X016683Y029820D01*
X016881Y029978D02*
X015968Y029978D01*
X015775Y030137D02*
X017074Y030137D01*
X017044Y030295D02*
X015805Y030295D01*
X015805Y030454D02*
X017044Y030454D01*
X017104Y030612D02*
X015745Y030612D01*
X015641Y030771D02*
X017208Y030771D01*
X015708Y027918D02*
X015376Y027918D01*
X015361Y027759D02*
X015628Y027759D01*
X015445Y026808D02*
X017404Y026808D01*
X017455Y026650D02*
X015394Y026650D01*
X017842Y026243D02*
X018078Y026479D01*
X018078Y027188D01*
X019180Y027227D02*
X019731Y027227D01*
X020283Y027778D01*
X020212Y027125D02*
X020195Y027125D01*
X020147Y026967D02*
X020036Y026967D01*
X020142Y026808D02*
X019776Y026808D01*
X019724Y026650D02*
X020142Y026650D01*
X020201Y026491D02*
X003593Y026491D01*
X003652Y026633D02*
X003528Y026335D01*
X003301Y026108D01*
X003003Y025984D01*
X002681Y025984D01*
X002383Y026108D01*
X002155Y026335D01*
X002032Y026633D01*
X002032Y026955D01*
X002155Y027253D01*
X002383Y027481D01*
X002681Y027604D01*
X003003Y027604D01*
X003301Y027481D01*
X003528Y027253D01*
X003652Y026955D01*
X003652Y026633D01*
X003652Y026650D02*
X004463Y026650D01*
X004411Y026808D02*
X003652Y026808D01*
X003647Y026967D02*
X004411Y026967D01*
X004411Y027125D02*
X003581Y027125D01*
X003498Y027284D02*
X004411Y027284D01*
X004411Y027442D02*
X003339Y027442D01*
X003011Y027601D02*
X004411Y027601D01*
X004496Y027759D02*
X000913Y027759D01*
X000913Y027601D02*
X002672Y027601D01*
X002344Y027442D02*
X000913Y027442D01*
X000913Y027284D02*
X002186Y027284D01*
X002102Y027125D02*
X000913Y027125D01*
X000913Y026967D02*
X002036Y026967D01*
X002032Y026808D02*
X000913Y026808D01*
X000913Y026650D02*
X002032Y026650D01*
X002091Y026491D02*
X000913Y026491D01*
X000913Y026333D02*
X002158Y026333D01*
X002316Y026174D02*
X000913Y026174D01*
X000913Y026016D02*
X002605Y026016D01*
X003078Y026016D02*
X020715Y026016D01*
X020427Y026174D02*
X003367Y026174D01*
X003526Y026333D02*
X020268Y026333D01*
X021189Y026016D02*
X023354Y026016D01*
X023354Y026174D02*
X021477Y026174D01*
X021636Y026333D02*
X023354Y026333D01*
X023354Y026491D02*
X021703Y026491D01*
X021762Y026650D02*
X023354Y026650D01*
X023354Y026808D02*
X021762Y026808D01*
X021757Y026967D02*
X023354Y026967D01*
X023354Y027125D02*
X021692Y027125D01*
X021608Y027284D02*
X023354Y027284D01*
X023354Y027442D02*
X021449Y027442D01*
X021122Y027601D02*
X023354Y027601D01*
X023354Y027759D02*
X020883Y027759D01*
X020883Y027918D02*
X023354Y027918D01*
X023354Y028076D02*
X020883Y028076D01*
X020836Y028235D02*
X023354Y028235D01*
X023354Y028393D02*
X019860Y028393D01*
X019843Y028552D02*
X021968Y028552D01*
X021646Y028710D02*
X020254Y028710D01*
X020478Y028869D02*
X021448Y028869D01*
X021335Y028959D02*
X021335Y028959D01*
X021335Y028959D01*
X021288Y029027D02*
X020594Y029027D01*
X020660Y029186D02*
X021180Y029186D01*
X021072Y029344D02*
X020672Y029344D01*
X020668Y029503D02*
X021012Y029503D01*
X021053Y029372D02*
X021053Y029372D01*
X020963Y029661D02*
X020602Y029661D01*
X020497Y029820D02*
X020915Y029820D01*
X020905Y029978D02*
X020299Y029978D01*
X020106Y030137D02*
X020905Y030137D01*
X020905Y030295D02*
X020135Y030295D01*
X020135Y030454D02*
X020936Y030454D01*
X020985Y030612D02*
X020075Y030612D01*
X019972Y030771D02*
X021034Y030771D01*
X021053Y030830D02*
X021053Y030830D01*
X022692Y028426D02*
X022692Y028426D01*
X023180Y028537D02*
X023180Y028537D01*
X023204Y028552D02*
X023354Y028552D01*
X022368Y019993D02*
X022213Y019993D01*
X022213Y019834D02*
X022368Y019834D01*
X022368Y019676D02*
X022213Y019676D01*
X021188Y019589D02*
X021188Y018605D01*
X020614Y019042D02*
X020174Y019042D01*
X020174Y019200D02*
X020553Y019200D01*
X020553Y018883D02*
X020174Y018883D01*
X020174Y018725D02*
X020553Y018725D01*
X020553Y018566D02*
X020174Y018566D01*
X020113Y018408D02*
X020553Y018408D01*
X020553Y018249D02*
X020260Y018249D01*
X020418Y018091D02*
X020553Y018091D01*
X020577Y017932D02*
X020621Y017932D01*
X020834Y016558D02*
X020125Y015849D01*
X019740Y016030D02*
X002576Y016030D01*
X002693Y015872D02*
X019582Y015872D01*
X019423Y015713D02*
X019385Y015713D01*
X020834Y016558D02*
X021188Y016558D01*
X022291Y016597D02*
X023117Y016597D01*
X023393Y016873D01*
X023393Y017109D01*
X006223Y013970D02*
X004496Y013970D01*
X004570Y014043D02*
X004668Y014280D01*
X004668Y014537D01*
X004570Y014774D01*
X004388Y014955D01*
X004151Y015053D01*
X003895Y015053D01*
X003657Y014955D01*
X003476Y014774D01*
X003378Y014537D01*
X003378Y014280D01*
X003476Y014043D01*
X003657Y013862D01*
X003895Y013763D01*
X004151Y013763D01*
X004388Y013862D01*
X004570Y014043D01*
X004605Y014128D02*
X005925Y014128D01*
X005726Y014287D02*
X004668Y014287D01*
X004668Y014445D02*
X005641Y014445D01*
X005604Y014604D02*
X004640Y014604D01*
X004574Y014762D02*
X005604Y014762D01*
X005604Y014921D02*
X004423Y014921D01*
X003623Y014921D02*
X002585Y014921D01*
X002618Y015079D02*
X005604Y015079D01*
X005604Y015238D02*
X002711Y015238D01*
X002774Y015396D02*
X005651Y015396D01*
X006065Y013811D02*
X004266Y013811D01*
X003779Y013811D02*
X002434Y013811D01*
X002609Y013970D02*
X003549Y013970D01*
X003441Y014128D02*
X002707Y014128D01*
X002773Y014287D02*
X003378Y014287D01*
X003378Y014445D02*
X002774Y014445D01*
X002763Y014604D02*
X003406Y014604D01*
X003471Y014762D02*
X002697Y014762D01*
X001523Y014921D02*
X000913Y014921D01*
X000913Y015079D02*
X001490Y015079D01*
X001397Y015238D02*
X000913Y015238D01*
X000913Y015396D02*
X001334Y015396D01*
X001334Y015555D02*
X000913Y015555D01*
X000913Y015713D02*
X001350Y015713D01*
X001415Y015872D02*
X000913Y015872D01*
X000913Y016030D02*
X001533Y016030D01*
X001411Y014762D02*
X000913Y014762D01*
X000913Y014604D02*
X001346Y014604D01*
X001334Y014445D02*
X000913Y014445D01*
X000913Y014287D02*
X001336Y014287D01*
X001401Y014128D02*
X000913Y014128D01*
X000913Y013970D02*
X001500Y013970D01*
X001675Y013811D02*
X000913Y013811D01*
X000913Y013653D02*
X005906Y013653D01*
X005748Y013494D02*
X002205Y013494D01*
X001903Y013494D02*
X000913Y013494D01*
X000913Y013336D02*
X001594Y013336D01*
X001441Y013177D02*
X000913Y013177D01*
X000913Y013019D02*
X001375Y013019D01*
X001334Y012860D02*
X000913Y012860D01*
X000913Y012702D02*
X001334Y012702D01*
X001372Y012543D02*
X000913Y012543D01*
X000913Y012385D02*
X001438Y012385D01*
X001585Y012226D02*
X000913Y012226D01*
X000913Y012068D02*
X001437Y012068D01*
X001371Y011909D02*
X000913Y011909D01*
X000913Y011751D02*
X001334Y011751D01*
X001334Y011592D02*
X000913Y011592D01*
X000913Y011434D02*
X001376Y011434D01*
X001442Y011275D02*
X000913Y011275D01*
X000913Y011117D02*
X001597Y011117D01*
X001350Y010958D02*
X000913Y010958D01*
X000913Y010800D02*
X001192Y010800D01*
X001033Y010641D02*
X000913Y010641D01*
X001149Y008999D02*
X001464Y008684D01*
X001936Y008684D01*
X002960Y009668D02*
X003432Y009668D01*
X004062Y009038D01*
X004062Y003999D01*
X005834Y011912D02*
X005755Y011991D01*
X005834Y011912D02*
X006188Y011912D01*
X005589Y013336D02*
X002514Y013336D01*
X004338Y018093D02*
X004338Y018448D01*
X005046Y026479D02*
X005046Y027109D01*
X004481Y027918D02*
X000913Y027918D01*
X000913Y028076D02*
X004390Y028076D01*
X004328Y028235D02*
X000913Y028235D01*
X000913Y028393D02*
X004328Y028393D01*
X004344Y028552D02*
X002338Y028552D01*
X002314Y028537D02*
X002314Y028537D01*
X002613Y028710D02*
X003933Y028710D01*
X003709Y028869D02*
X002822Y028869D01*
X002969Y029027D02*
X003593Y029027D01*
X003527Y029186D02*
X003103Y029186D01*
X003088Y029155D02*
X003088Y029155D01*
X003179Y029344D02*
X003516Y029344D01*
X003520Y029503D02*
X003256Y029503D01*
X003305Y029606D02*
X003305Y029606D01*
X003314Y029661D02*
X003585Y029661D01*
X003691Y029820D02*
X003338Y029820D01*
X003361Y029978D02*
X003889Y029978D01*
X004082Y030137D02*
X003375Y030137D01*
X003380Y030101D02*
X003380Y030101D01*
X003351Y030295D02*
X004052Y030295D01*
X004052Y030454D02*
X003327Y030454D01*
X003298Y030612D02*
X004112Y030612D01*
X004216Y030771D02*
X003222Y030771D01*
X001826Y028426D02*
X001826Y028426D01*
X001326Y028463D02*
X001326Y028463D01*
X001102Y028552D02*
X000913Y028552D01*
D11*
X010208Y021074D02*
X010208Y020554D01*
X011208Y020554D02*
X011208Y021074D01*
X012208Y021074D02*
X012208Y020554D01*
X013208Y020554D02*
X013208Y021074D01*
X014208Y021074D02*
X014208Y020554D01*
X015208Y020554D02*
X015208Y021074D01*
X016208Y021074D02*
X016208Y020554D01*
X017208Y020554D02*
X017208Y021074D01*
X017208Y018074D02*
X017208Y017554D01*
X016208Y017554D02*
X016208Y018074D01*
X015208Y018074D02*
X015208Y017554D01*
X014208Y017554D02*
X014208Y018074D01*
X013208Y018074D02*
X013208Y017554D01*
X012208Y017554D02*
X012208Y018074D01*
X011208Y018074D02*
X011208Y017554D01*
X010208Y017554D02*
X010208Y018074D01*
X010184Y015168D02*
X010184Y014648D01*
X009184Y014648D02*
X009184Y015168D01*
X008184Y015168D02*
X008184Y014648D01*
X007184Y014648D02*
X007184Y015168D01*
X006184Y015168D02*
X006184Y014648D01*
X006184Y012168D02*
X006184Y011648D01*
X007184Y011648D02*
X007184Y012168D01*
X008184Y012168D02*
X008184Y011648D01*
X009184Y011648D02*
X009184Y012168D01*
X010184Y012168D02*
X010184Y011648D01*
X011184Y011648D02*
X011184Y012168D01*
X012184Y012168D02*
X012184Y011648D01*
X013184Y011648D02*
X013184Y012168D01*
X014184Y012168D02*
X014184Y011648D01*
X015184Y011648D02*
X015184Y012168D01*
X016184Y012168D02*
X016184Y011648D01*
X017184Y011648D02*
X017184Y012168D01*
X018184Y012168D02*
X018184Y011648D01*
X019184Y011648D02*
X019184Y012168D01*
X019184Y014648D02*
X019184Y015168D01*
X018184Y015168D02*
X018184Y014648D01*
X017184Y014648D02*
X017184Y015168D01*
X016184Y015168D02*
X016184Y014648D01*
X015184Y014648D02*
X015184Y015168D01*
X014184Y015168D02*
X014184Y014648D01*
X013184Y014648D02*
X013184Y015168D01*
X012184Y015168D02*
X012184Y014648D01*
X011184Y014648D02*
X011184Y015168D01*
D12*
X004023Y014408D03*
X004023Y012408D03*
D13*
X005046Y027188D03*
X006149Y027188D03*
X009377Y027188D03*
X010480Y027188D03*
X013708Y027188D03*
X014810Y027188D03*
X018039Y027188D03*
X019141Y027188D03*
X021188Y019589D03*
X021188Y018487D03*
X022291Y018487D03*
X022291Y019589D03*
X022291Y016558D03*
X021188Y016558D03*
D14*
X020854Y014688D03*
X022625Y014688D03*
X022625Y012129D03*
X020854Y012129D03*
X019485Y030337D03*
X017694Y030337D03*
X015155Y030337D03*
X013363Y030337D03*
X010824Y030337D03*
X009033Y030337D03*
X006493Y030337D03*
X004702Y030337D03*
D15*
X004220Y029353D03*
X006976Y029353D03*
X008550Y029353D03*
X011306Y029353D03*
X012881Y029353D03*
X015637Y029353D03*
X017212Y029353D03*
X019968Y029353D03*
D16*
X011598Y008928D03*
X011598Y007928D03*
X011598Y006928D03*
X011598Y005928D03*
X011598Y004928D03*
X011598Y003928D03*
X011598Y002928D03*
X011598Y001928D03*
D17*
X012134Y010416D03*
X013234Y010416D03*
X002054Y011677D03*
X002054Y012777D03*
X002054Y014433D03*
X002054Y015533D03*
X005048Y028369D03*
X006148Y028369D03*
X009378Y028369D03*
X010478Y028369D03*
X013709Y028369D03*
X014809Y028369D03*
X018040Y028369D03*
X019140Y028369D03*
D18*
X020322Y026794D02*
X020324Y026844D01*
X020330Y026894D01*
X020340Y026943D01*
X020354Y026991D01*
X020371Y027038D01*
X020392Y027083D01*
X020417Y027127D01*
X020445Y027168D01*
X020477Y027207D01*
X020511Y027244D01*
X020548Y027278D01*
X020588Y027308D01*
X020630Y027335D01*
X020674Y027359D01*
X020720Y027380D01*
X020767Y027396D01*
X020815Y027409D01*
X020865Y027418D01*
X020914Y027423D01*
X020965Y027424D01*
X021015Y027421D01*
X021064Y027414D01*
X021113Y027403D01*
X021161Y027388D01*
X021207Y027370D01*
X021252Y027348D01*
X021295Y027322D01*
X021336Y027293D01*
X021375Y027261D01*
X021411Y027226D01*
X021443Y027188D01*
X021473Y027148D01*
X021500Y027105D01*
X021523Y027061D01*
X021542Y027015D01*
X021558Y026967D01*
X021570Y026918D01*
X021578Y026869D01*
X021582Y026819D01*
X021582Y026769D01*
X021578Y026719D01*
X021570Y026670D01*
X021558Y026621D01*
X021542Y026573D01*
X021523Y026527D01*
X021500Y026483D01*
X021473Y026440D01*
X021443Y026400D01*
X021411Y026362D01*
X021375Y026327D01*
X021336Y026295D01*
X021295Y026266D01*
X021252Y026240D01*
X021207Y026218D01*
X021161Y026200D01*
X021113Y026185D01*
X021064Y026174D01*
X021015Y026167D01*
X020965Y026164D01*
X020914Y026165D01*
X020865Y026170D01*
X020815Y026179D01*
X020767Y026192D01*
X020720Y026208D01*
X020674Y026229D01*
X020630Y026253D01*
X020588Y026280D01*
X020548Y026310D01*
X020511Y026344D01*
X020477Y026381D01*
X020445Y026420D01*
X020417Y026461D01*
X020392Y026505D01*
X020371Y026550D01*
X020354Y026597D01*
X020340Y026645D01*
X020330Y026694D01*
X020324Y026744D01*
X020322Y026794D01*
X021975Y030101D02*
X021977Y030149D01*
X021983Y030197D01*
X021993Y030244D01*
X022006Y030290D01*
X022024Y030335D01*
X022044Y030379D01*
X022069Y030421D01*
X022097Y030460D01*
X022127Y030497D01*
X022161Y030531D01*
X022198Y030563D01*
X022236Y030592D01*
X022277Y030617D01*
X022320Y030639D01*
X022365Y030657D01*
X022411Y030671D01*
X022458Y030682D01*
X022506Y030689D01*
X022554Y030692D01*
X022602Y030691D01*
X022650Y030686D01*
X022698Y030677D01*
X022744Y030665D01*
X022789Y030648D01*
X022833Y030628D01*
X022875Y030605D01*
X022915Y030578D01*
X022953Y030548D01*
X022988Y030515D01*
X023020Y030479D01*
X023050Y030441D01*
X023076Y030400D01*
X023098Y030357D01*
X023118Y030313D01*
X023133Y030268D01*
X023145Y030221D01*
X023153Y030173D01*
X023157Y030125D01*
X023157Y030077D01*
X023153Y030029D01*
X023145Y029981D01*
X023133Y029934D01*
X023118Y029889D01*
X023098Y029845D01*
X023076Y029802D01*
X023050Y029761D01*
X023020Y029723D01*
X022988Y029687D01*
X022953Y029654D01*
X022915Y029624D01*
X022875Y029597D01*
X022833Y029574D01*
X022789Y029554D01*
X022744Y029537D01*
X022698Y029525D01*
X022650Y029516D01*
X022602Y029511D01*
X022554Y029510D01*
X022506Y029513D01*
X022458Y029520D01*
X022411Y029531D01*
X022365Y029545D01*
X022320Y029563D01*
X022277Y029585D01*
X022236Y029610D01*
X022198Y029639D01*
X022161Y029671D01*
X022127Y029705D01*
X022097Y029742D01*
X022069Y029781D01*
X022044Y029823D01*
X022024Y029867D01*
X022006Y029912D01*
X021993Y029958D01*
X021983Y030005D01*
X021977Y030053D01*
X021975Y030101D01*
X002212Y026794D02*
X002214Y026844D01*
X002220Y026894D01*
X002230Y026943D01*
X002244Y026991D01*
X002261Y027038D01*
X002282Y027083D01*
X002307Y027127D01*
X002335Y027168D01*
X002367Y027207D01*
X002401Y027244D01*
X002438Y027278D01*
X002478Y027308D01*
X002520Y027335D01*
X002564Y027359D01*
X002610Y027380D01*
X002657Y027396D01*
X002705Y027409D01*
X002755Y027418D01*
X002804Y027423D01*
X002855Y027424D01*
X002905Y027421D01*
X002954Y027414D01*
X003003Y027403D01*
X003051Y027388D01*
X003097Y027370D01*
X003142Y027348D01*
X003185Y027322D01*
X003226Y027293D01*
X003265Y027261D01*
X003301Y027226D01*
X003333Y027188D01*
X003363Y027148D01*
X003390Y027105D01*
X003413Y027061D01*
X003432Y027015D01*
X003448Y026967D01*
X003460Y026918D01*
X003468Y026869D01*
X003472Y026819D01*
X003472Y026769D01*
X003468Y026719D01*
X003460Y026670D01*
X003448Y026621D01*
X003432Y026573D01*
X003413Y026527D01*
X003390Y026483D01*
X003363Y026440D01*
X003333Y026400D01*
X003301Y026362D01*
X003265Y026327D01*
X003226Y026295D01*
X003185Y026266D01*
X003142Y026240D01*
X003097Y026218D01*
X003051Y026200D01*
X003003Y026185D01*
X002954Y026174D01*
X002905Y026167D01*
X002855Y026164D01*
X002804Y026165D01*
X002755Y026170D01*
X002705Y026179D01*
X002657Y026192D01*
X002610Y026208D01*
X002564Y026229D01*
X002520Y026253D01*
X002478Y026280D01*
X002438Y026310D01*
X002401Y026344D01*
X002367Y026381D01*
X002335Y026420D01*
X002307Y026461D01*
X002282Y026505D01*
X002261Y026550D01*
X002244Y026597D01*
X002230Y026645D01*
X002220Y026694D01*
X002214Y026744D01*
X002212Y026794D01*
X001109Y030101D02*
X001111Y030149D01*
X001117Y030197D01*
X001127Y030244D01*
X001140Y030290D01*
X001158Y030335D01*
X001178Y030379D01*
X001203Y030421D01*
X001231Y030460D01*
X001261Y030497D01*
X001295Y030531D01*
X001332Y030563D01*
X001370Y030592D01*
X001411Y030617D01*
X001454Y030639D01*
X001499Y030657D01*
X001545Y030671D01*
X001592Y030682D01*
X001640Y030689D01*
X001688Y030692D01*
X001736Y030691D01*
X001784Y030686D01*
X001832Y030677D01*
X001878Y030665D01*
X001923Y030648D01*
X001967Y030628D01*
X002009Y030605D01*
X002049Y030578D01*
X002087Y030548D01*
X002122Y030515D01*
X002154Y030479D01*
X002184Y030441D01*
X002210Y030400D01*
X002232Y030357D01*
X002252Y030313D01*
X002267Y030268D01*
X002279Y030221D01*
X002287Y030173D01*
X002291Y030125D01*
X002291Y030077D01*
X002287Y030029D01*
X002279Y029981D01*
X002267Y029934D01*
X002252Y029889D01*
X002232Y029845D01*
X002210Y029802D01*
X002184Y029761D01*
X002154Y029723D01*
X002122Y029687D01*
X002087Y029654D01*
X002049Y029624D01*
X002009Y029597D01*
X001967Y029574D01*
X001923Y029554D01*
X001878Y029537D01*
X001832Y029525D01*
X001784Y029516D01*
X001736Y029511D01*
X001688Y029510D01*
X001640Y029513D01*
X001592Y029520D01*
X001545Y029531D01*
X001499Y029545D01*
X001454Y029563D01*
X001411Y029585D01*
X001370Y029610D01*
X001332Y029639D01*
X001295Y029671D01*
X001261Y029705D01*
X001231Y029742D01*
X001203Y029781D01*
X001178Y029823D01*
X001158Y029867D01*
X001140Y029912D01*
X001127Y029958D01*
X001117Y030005D01*
X001111Y030053D01*
X001109Y030101D01*
X002212Y001597D02*
X002214Y001647D01*
X002220Y001697D01*
X002230Y001746D01*
X002244Y001794D01*
X002261Y001841D01*
X002282Y001886D01*
X002307Y001930D01*
X002335Y001971D01*
X002367Y002010D01*
X002401Y002047D01*
X002438Y002081D01*
X002478Y002111D01*
X002520Y002138D01*
X002564Y002162D01*
X002610Y002183D01*
X002657Y002199D01*
X002705Y002212D01*
X002755Y002221D01*
X002804Y002226D01*
X002855Y002227D01*
X002905Y002224D01*
X002954Y002217D01*
X003003Y002206D01*
X003051Y002191D01*
X003097Y002173D01*
X003142Y002151D01*
X003185Y002125D01*
X003226Y002096D01*
X003265Y002064D01*
X003301Y002029D01*
X003333Y001991D01*
X003363Y001951D01*
X003390Y001908D01*
X003413Y001864D01*
X003432Y001818D01*
X003448Y001770D01*
X003460Y001721D01*
X003468Y001672D01*
X003472Y001622D01*
X003472Y001572D01*
X003468Y001522D01*
X003460Y001473D01*
X003448Y001424D01*
X003432Y001376D01*
X003413Y001330D01*
X003390Y001286D01*
X003363Y001243D01*
X003333Y001203D01*
X003301Y001165D01*
X003265Y001130D01*
X003226Y001098D01*
X003185Y001069D01*
X003142Y001043D01*
X003097Y001021D01*
X003051Y001003D01*
X003003Y000988D01*
X002954Y000977D01*
X002905Y000970D01*
X002855Y000967D01*
X002804Y000968D01*
X002755Y000973D01*
X002705Y000982D01*
X002657Y000995D01*
X002610Y001011D01*
X002564Y001032D01*
X002520Y001056D01*
X002478Y001083D01*
X002438Y001113D01*
X002401Y001147D01*
X002367Y001184D01*
X002335Y001223D01*
X002307Y001264D01*
X002282Y001308D01*
X002261Y001353D01*
X002244Y001400D01*
X002230Y001448D01*
X002220Y001497D01*
X002214Y001547D01*
X002212Y001597D01*
X020322Y001597D02*
X020324Y001647D01*
X020330Y001697D01*
X020340Y001746D01*
X020354Y001794D01*
X020371Y001841D01*
X020392Y001886D01*
X020417Y001930D01*
X020445Y001971D01*
X020477Y002010D01*
X020511Y002047D01*
X020548Y002081D01*
X020588Y002111D01*
X020630Y002138D01*
X020674Y002162D01*
X020720Y002183D01*
X020767Y002199D01*
X020815Y002212D01*
X020865Y002221D01*
X020914Y002226D01*
X020965Y002227D01*
X021015Y002224D01*
X021064Y002217D01*
X021113Y002206D01*
X021161Y002191D01*
X021207Y002173D01*
X021252Y002151D01*
X021295Y002125D01*
X021336Y002096D01*
X021375Y002064D01*
X021411Y002029D01*
X021443Y001991D01*
X021473Y001951D01*
X021500Y001908D01*
X021523Y001864D01*
X021542Y001818D01*
X021558Y001770D01*
X021570Y001721D01*
X021578Y001672D01*
X021582Y001622D01*
X021582Y001572D01*
X021578Y001522D01*
X021570Y001473D01*
X021558Y001424D01*
X021542Y001376D01*
X021523Y001330D01*
X021500Y001286D01*
X021473Y001243D01*
X021443Y001203D01*
X021411Y001165D01*
X021375Y001130D01*
X021336Y001098D01*
X021295Y001069D01*
X021252Y001043D01*
X021207Y001021D01*
X021161Y001003D01*
X021113Y000988D01*
X021064Y000977D01*
X021015Y000970D01*
X020965Y000967D01*
X020914Y000968D01*
X020865Y000973D01*
X020815Y000982D01*
X020767Y000995D01*
X020720Y001011D01*
X020674Y001032D01*
X020630Y001056D01*
X020588Y001083D01*
X020548Y001113D01*
X020511Y001147D01*
X020477Y001184D01*
X020445Y001223D01*
X020417Y001264D01*
X020392Y001308D01*
X020371Y001353D01*
X020354Y001400D01*
X020340Y001448D01*
X020330Y001497D01*
X020324Y001547D01*
X020322Y001597D01*
D19*
X014999Y023054D03*
X013999Y023054D03*
X012999Y023054D03*
X011999Y023054D03*
X010999Y023054D03*
X009999Y023054D03*
X008999Y023054D03*
X007999Y023054D03*
X007999Y024054D03*
X008999Y024054D03*
X009999Y024054D03*
X010999Y024054D03*
X011999Y024054D03*
X012999Y024054D03*
X013999Y024054D03*
X014999Y024054D03*
X002948Y009684D03*
X002948Y008684D03*
X002948Y007684D03*
X001948Y007684D03*
X001948Y008684D03*
X001948Y009684D03*
D20*
X007960Y002385D03*
D21*
X007960Y003385D03*
X007960Y004385D03*
X007960Y005385D03*
X007960Y007503D03*
X007960Y008503D03*
D22*
X003905Y020204D03*
X003905Y021204D03*
X003905Y022204D03*
D23*
X010289Y009629D03*
D24*
X009489Y009629D03*
D25*
X008172Y017305D02*
X008172Y017905D01*
X007472Y019605D02*
X006872Y019605D01*
X006172Y017905D02*
X006172Y017305D01*
D26*
X004338Y018448D03*
X001661Y016991D03*
X004613Y022936D03*
X007566Y027385D03*
X011897Y027424D03*
X016228Y027424D03*
X019810Y022975D03*
X016897Y022621D03*
X019574Y018881D03*
X020283Y027778D03*
X005086Y007700D03*
D27*
X005676Y007700D01*
X009180Y011204D01*
X009180Y011912D01*
X008196Y011912D02*
X008196Y011479D01*
X007369Y010652D01*
X001582Y010652D01*
X001149Y010219D01*
X001149Y008999D01*
M02*
